<?xml version="1.0" standalone="no"?>
<!DOCTYPE svg PUBLIC "-//W3C//DTD SVG 1.1//EN" "http://www.w3.org/Graphics/SVG/1.1/DTD/svg11.dtd" >
<svg xmlns="http://www.w3.org/2000/svg" xmlns:xlink="http://www.w3.org/1999/xlink" version="1.1">
<metadata>
Created by FontForge 20161003 at Mon May  6 19:12:10 2019
 By www-data
All Rights Reserved, c Charles Daoud
</metadata>
<defs>
<font id="NTFGrandRegular" horiz-adv-x="0" >
  <font-face 
    font-family="NTFGrandRegular"
    font-weight="400"
    font-stretch="normal"
    units-per-em="1000"
    panose-1="0 0 5 0 0 0 0 0 0 0"
    ascent="800"
    descent="-200"
    x-height="560"
    cap-height="700"
    bbox="-250 -200 720 930"
    underline-thickness="50"
    underline-position="-150"
    unicode-range="U+0020-FB02"
  />
<missing-glyph horiz-adv-x="442" 
d="M50 -200v1000h342v-1000h-342zM126 -130h190v860h-190v-860z" />
    <glyph glyph-name="fi" unicode="fi" horiz-adv-x="350" 
d="M10 490v70h36v70q0 44 23 67t67 23h52v-70h-50q-16 0 -16 -16v-74h66v-70h-66v-490h-76v490h-36zM234 640v80h76v-80h-76zM234 0v560h76v-560h-76z" />
    <glyph glyph-name="fl" unicode="fl" horiz-adv-x="350" 
d="M10 490v70h36v70q0 44 23 67t67 23h52v-70h-50q-16 0 -16 -16v-74h66v-70h-66v-490h-76v490h-36zM234 0v720h76v-720h-76z" />
    <glyph glyph-name="f_f" unicode="ff" horiz-adv-x="387" 
d="M10 490v70h36v70q0 44 23 67t67 23h52v-70h-50q-16 0 -16 -16v-74h117v70q0 44 23.5 67t66.5 23h52v-70h-50q-16 0 -16 -16v-74h66v-70h-66v-490h-76v490h-117v-490h-76v490h-36z" />
    <glyph glyph-name="f_f_i" unicode="ffi" horiz-adv-x="543" 
d="M10 490v70h36v70q0 44 23 67t67 23h52v-70h-50q-16 0 -16 -16v-74h117v70q0 44 23.5 67t66.5 23h52v-70h-50q-16 0 -16 -16v-74h66v-70h-66v-490h-76v490h-117v-490h-76v490h-36zM427 640v80h76v-80h-76zM427 0v560h76v-560h-76z" />
    <glyph glyph-name="f_f_l" unicode="ffl" horiz-adv-x="543" 
d="M10 490v70h36v70q0 44 23 67t67 23h52v-70h-50q-16 0 -16 -16v-74h117v70q0 44 23.5 67t66.5 23h52v-70h-50q-16 0 -16 -16v-74h66v-70h-66v-490h-76v490h-117v-490h-76v490h-36zM427 0v720h76v-720h-76z" />
    <glyph glyph-name=".notdef" horiz-adv-x="442" 
d="M50 -200v1000h342v-1000h-342zM126 -130h190v860h-190v-860z" />
    <glyph glyph-name=".null" 
 />
    <glyph glyph-name="nonmarkingreturn" horiz-adv-x="333" 
 />
    <glyph glyph-name="space" unicode=" " horiz-adv-x="128" 
 />
    <glyph glyph-name="exclam" unicode="!" horiz-adv-x="178" 
d="M50 160v540h78v-540h-78zM50 0v110h78v-110h-78z" />
    <glyph glyph-name="quotedbl" unicode="&#x22;" horiz-adv-x="244" 
d="M32 520l-10 200h80l-10 -200h-60zM152 520l-10 200h80l-10 -200h-60z" />
    <glyph glyph-name="numbersign" unicode="#" horiz-adv-x="511" 
d="M30 190v72h92l21 176h-82v72h91l24 190h76l-24 -190h94l24 190h76l-24 -190h83v-72h-92l-21 -176h82v-72h-91l-24 -190h-76l24 190h-94l-24 -190h-76l24 190h-83zM198 262h94l21 176h-94z" />
    <glyph glyph-name="dollar" unicode="$" horiz-adv-x="372" 
d="M38 86v174h80v-168q0 -20 20 -20h96q20 0 20 20v155q0 15 -12 24l-164 119q-37 27 -37 73v151q0 44 23.5 67t66.5 23h19v92h72v-92h19q43 0 66.5 -23t23.5 -67v-164h-80v158q0 20 -20 20h-90q-20 0 -20 -20v-137q0 -15 12 -24l164 -118q37 -27 37 -73v-170q0 -44 -23 -67
t-67 -23h-22v-92h-72v92h-22q-44 0 -67 23t-23 67z" />
    <glyph glyph-name="percent" unicode="%" horiz-adv-x="490" 
d="M110 394q-80 0 -80 80v150q0 80 80 80h30q80 0 80 -80v-150q0 -80 -80 -80h-30zM60 0l300 700h70l-300 -700h-70zM111 454h28q15 0 15 15v160q0 15 -15 15h-28q-15 0 -15 -15v-160q0 -15 15 -15zM350 -4q-80 0 -80 80v150q0 80 80 80h30q80 0 80 -80v-150q0 -80 -80 -80
h-30zM351 56h28q15 0 15 15v160q0 15 -15 15h-28q-15 0 -15 -15v-160q0 -15 15 -15z" />
    <glyph glyph-name="ampersand" unicode="&#x26;" horiz-adv-x="401" 
d="M133 -4q-43 0 -66.5 23t-23.5 67v206q0 58 55 77q-55 19 -55 77v168q0 44 23.5 67t66.5 23h116q43 0 66.5 -23t23.5 -67v-126h-80v120q0 20 -20 20h-96q-20 0 -20 -20v-181q0 -20 20 -20h238v-76h-42v-331h-80v46l-40 -50h-86zM143 72h116v259h-116q-20 0 -20 -20v-219
q0 -20 20 -20z" />
    <glyph glyph-name="quotesingle" unicode="'" horiz-adv-x="124" 
d="M32 520l-10 200h80l-10 -200h-60z" />
    <glyph glyph-name="parenleft" unicode="(" horiz-adv-x="203" 
d="M166 -140l-78 102q-38 49 -38 111v480q0 62 38 111l78 102l52 -40l-63 -92q-27 -40 -27 -87v-468q0 -47 27 -87l63 -92z" />
    <glyph glyph-name="parenright" unicode=")" horiz-adv-x="203" 
d="M37 -140l-52 40l63 92q27 40 27 87v468q0 47 -27 87l-63 92l52 40l78 -102q38 -49 38 -111v-480q0 -62 -38 -111z" />
    <glyph glyph-name="asterisk" unicode="*" horiz-adv-x="350" 
d="M150 440v86l-75 -43l-25 44l74 43l-74 43l25 44l75 -43v86h50v-86l75 43l25 -44l-74 -43l74 -43l-25 -44l-75 43v-86h-50z" />
    <glyph glyph-name="plus" unicode="+" horiz-adv-x="400" 
d="M30 311v76h132v132h76v-132h132v-76h-132v-132h-76v132h-132z" />
    <glyph glyph-name="comma" unicode="," horiz-adv-x="150" 
d="M36 -80v36q36 0 36 44h-36v110h78v-100q0 -41 -19.5 -65.5t-58.5 -24.5z" />
    <glyph glyph-name="hyphen" unicode="-" horiz-adv-x="220" 
d="M10 241v70h200v-70h-200z" />
    <glyph glyph-name="period" unicode="." horiz-adv-x="150" 
d="M36 0v110h78v-110h-78z" />
    <glyph glyph-name="slash" unicode="/" horiz-adv-x="258" 
d="M20 -140l140 914h78l-140 -914h-78z" />
    <glyph glyph-name="zero" unicode="0" horiz-adv-x="388" 
d="M133 -4q-43 0 -66.5 23t-23.5 67v528q0 44 23.5 67t66.5 23h122q43 0 66.5 -23t23.5 -67v-528q0 -44 -23.5 -67t-66.5 -23h-122zM143 72h102q20 0 20 20v516q0 20 -20 20h-102q-20 0 -20 -20v-516q0 -20 20 -20z" />
    <glyph glyph-name="one" unicode="1" horiz-adv-x="220" 
d="M80 0v604h-60v56l90 40h50v-700h-80z" />
    <glyph glyph-name="two" unicode="2" horiz-adv-x="352" 
d="M30 0v126q0 38 21 71l180 271q11 16 11 35v105q0 20 -20 20h-88q-20 0 -20 -20v-138h-80v144q0 44 23 67t67 23h108q44 0 67 -23t23 -67v-107q0 -38 -21 -71l-180 -271q-11 -16 -11 -35v-54h212v-76h-292z" />
    <glyph glyph-name="three" unicode="3" horiz-adv-x="380" 
d="M39 86v146h80v-140q0 -20 20 -20h98q20 0 20 20v206q0 20 -20 20h-102v76h102q20 0 20 20v194q0 20 -20 20h-98q-20 0 -20 -20v-141h-80v147q0 44 23.5 67t66.5 23h118q43 0 66.5 -23t23.5 -67v-181q0 -58 -55 -77q55 -19 55 -77v-193q0 -44 -23.5 -67t-66.5 -23h-118
q-43 0 -66.5 23t-23.5 67z" />
    <glyph glyph-name="four" unicode="4" horiz-adv-x="402" 
d="M20 120v96l163 484h130v-504h69v-76h-69v-120h-80v120h-213zM94 196h139v415z" />
    <glyph glyph-name="five" unicode="5" horiz-adv-x="373" 
d="M130 -4q-44 0 -67 23t-23 67v144h80v-138q0 -20 20 -20h98q20 0 20 20v256q0 20 -20 20h-118v-35h-80v367h282v-76h-202v-230l40 50h88q44 0 67 -23t23 -67v-268q0 -44 -23 -67t-67 -23h-118z" />
    <glyph glyph-name="six" unicode="6" horiz-adv-x="381" 
d="M43 86v528q0 44 23.5 67t66.5 23h112q43 0 66.5 -23t23.5 -67v-126h-80v120q0 20 -20 20h-92q-20 0 -20 -20v-244l40 50h88q43 0 66.5 -23t23.5 -67v-238q0 -44 -23.5 -67t-66.5 -23h-118q-43 0 -66.5 23t-23.5 67zM123 92q0 -20 20 -20h98q20 0 20 20v226q0 20 -20 20
h-118v-246z" />
    <glyph glyph-name="seven" unicode="7" horiz-adv-x="340" 
d="M20 624v76h300v-76l-170 -624h-80l170 624h-220z" />
    <glyph glyph-name="eight" unicode="8" horiz-adv-x="380" 
d="M129 -4q-43 0 -66.5 23t-23.5 67v196q0 58 59 77q-55 19 -55 77v178q0 44 23.5 67t66.5 23h114q43 0 66.5 -23t23.5 -67v-178q0 -58 -55 -77q59 -19 59 -77v-196q0 -44 -23.5 -67t-66.5 -23h-122zM143 397h94q20 0 20 20v191q0 20 -20 20h-94q-20 0 -20 -20v-191
q0 -20 20 -20zM139 72h102q20 0 20 20v209q0 20 -20 20h-102q-20 0 -20 -20v-209q0 -20 20 -20z" />
    <glyph glyph-name="nine" unicode="9" horiz-adv-x="381" 
d="M136 -4q-44 0 -67 23t-23 67v126h80v-120q0 -20 20 -20h92q20 0 20 20v244l-40 -50h-88q-44 0 -67 23t-23 67v238q0 44 23 67t67 23h118q44 0 67 -23t23 -67v-528q0 -44 -23 -67t-67 -23h-112zM140 362h118v246q0 20 -20 20h-98q-20 0 -20 -20v-226q0 -20 20 -20z" />
    <glyph glyph-name="colon" unicode=":" horiz-adv-x="150" 
d="M36 340v110h78v-110h-78zM36 0v110h78v-110h-78z" />
    <glyph glyph-name="semicolon" unicode=";" horiz-adv-x="150" 
d="M36 340v110h78v-110h-78zM36 -80v36q36 0 36 44h-36v110h78v-100q0 -41 -19.5 -65.5t-58.5 -24.5z" />
    <glyph glyph-name="less" unicode="&#x3c;" horiz-adv-x="300" 
d="M30 290v120l230 130v-86l-184 -104l184 -104v-86z" />
    <glyph glyph-name="equal" unicode="=" horiz-adv-x="400" 
d="M30 389v76h340v-76h-340zM30 233v76h340v-76h-340z" />
    <glyph glyph-name="greater" unicode="&#x3e;" horiz-adv-x="300" 
d="M40 160v86l184 104l-184 104v86l230 -130v-120z" />
    <glyph glyph-name="question" unicode="?" horiz-adv-x="348" 
d="M119 160v126q0 58 44 98l58 51q17 16 17 37v136q0 20 -20 20h-88q-20 0 -20 -20v-128h-80v134q0 44 23 67t67 23h108q44 0 67 -23t23 -67v-136q0 -59 -45 -98l-63 -55q-17 -16 -17 -37v-128h-74zM117 0v110h78v-110h-78z" />
    <glyph glyph-name="at" unicode="@" horiz-adv-x="560" 
d="M45 125v394q0 90 47.5 137.5t137.5 47.5h96q90 0 137.5 -47.5t47.5 -137.5v-384q0 -85 -86 -85q-69 0 -83 54l-38 -48h-84q-38 0 -58.5 23t-20.5 67v352q0 44 20.5 67t58.5 23h79l40 -50v46h76v-449q0 -43 33 -43t33 43v389q0 73 -38.5 111.5t-111.5 38.5h-106
q-73 0 -111.5 -38.5t-38.5 -111.5v-404q0 -73 38.5 -111.5t111.5 -38.5h223v-30h-218q-90 0 -137.5 47.5t-47.5 137.5zM217 142q0 -16 16 -16h106v9v383h-106q-16 0 -16 -16v-360z" />
    <glyph glyph-name="A" unicode="A" horiz-adv-x="374" 
d="M17 0l105 700h130l105 -700h-80l-23 160h-134l-23 -160h-80zM131 236h112l-56 388z" />
    <glyph glyph-name="B" unicode="B" horiz-adv-x="381" 
d="M45 0v700h204q43 0 66.5 -23t23.5 -67v-176q0 -55 -53 -75q55 -19 55 -77v-192q0 -44 -23.5 -67t-66.5 -23h-206zM125 396h116q20 0 20 20v188q0 20 -20 20h-116v-228zM125 76h116q20 0 20 20v204q0 20 -20 20h-116v-244z" />
    <glyph glyph-name="C" unicode="C" horiz-adv-x="377" 
d="M133 -4q-43 0 -66.5 23t-23.5 67v528q0 44 23.5 67t66.5 23h116q43 0 66.5 -23t23.5 -67v-174h-80v168q0 20 -20 20h-96q-20 0 -20 -20v-516q0 -20 20 -20h96q20 0 20 20v168h80v-174q0 -44 -23.5 -67t-66.5 -23h-116z" />
    <glyph glyph-name="D" unicode="D" horiz-adv-x="384" 
d="M45 0v700h206q43 0 66.5 -23t23.5 -67v-520q0 -44 -23.5 -67t-66.5 -23h-206zM125 76h116q20 0 20 20v508q0 20 -20 20h-116v-548z" />
    <glyph glyph-name="E" unicode="E" horiz-adv-x="314" 
d="M45 0v700h242v-76h-162v-230h156v-76h-156v-242h166v-76h-246z" />
    <glyph glyph-name="F" unicode="F" horiz-adv-x="307" 
d="M45 0v700h242v-76h-162v-230h156v-76h-156v-318h-80z" />
    <glyph glyph-name="G" unicode="G" horiz-adv-x="381" 
d="M133 -4q-43 0 -66.5 23t-23.5 67v528q0 44 23.5 67t66.5 23h116q43 0 66.5 -23t23.5 -67v-174h-80v168q0 20 -20 20h-96q-20 0 -20 -20v-516q0 -20 20 -20h116v212h-70v76h150v-360h-80v46l-40 -50h-86z" />
    <glyph glyph-name="H" unicode="H" horiz-adv-x="386" 
d="M45 0v700h80v-314h136v314h80v-700h-80v310h-136v-310h-80z" />
    <glyph glyph-name="I" unicode="I" horiz-adv-x="170" 
d="M45 0v700h80v-700h-80z" />
    <glyph glyph-name="J" unicode="J" horiz-adv-x="260" 
d="M20 -4v76h96q20 0 20 20v532h-116v76h196v-614q0 -44 -23 -67t-67 -23h-106z" />
    <glyph glyph-name="K" unicode="K" horiz-adv-x="360" 
d="M45 0v700h80v-343l147 343h80l-150 -350l150 -350h-80l-147 343v-343h-80z" />
    <glyph glyph-name="L" unicode="L" horiz-adv-x="302" 
d="M45 0v700h80v-624h162v-76h-242z" />
    <glyph glyph-name="M" unicode="M" horiz-adv-x="532" 
d="M45 0v700h132l89 -599l88 599h133v-700h-80v573l-90 -573h-102l-90 573v-573h-80z" />
    <glyph glyph-name="N" unicode="N" horiz-adv-x="400" 
d="M45 0v700h80l150 -354v354h80v-700h-80v162l-150 354v-516h-80z" />
    <glyph glyph-name="O" unicode="O" horiz-adv-x="384" 
d="M133 -4q-43 0 -66.5 23t-23.5 67v528q0 44 23.5 67t66.5 23h118q43 0 66.5 -23t23.5 -67v-528q0 -44 -23.5 -67t-66.5 -23h-118zM143 72h98q20 0 20 20v516q0 20 -20 20h-98q-20 0 -20 -20v-516q0 -20 20 -20z" />
    <glyph glyph-name="P" unicode="P" horiz-adv-x="370" 
d="M45 0v700h202q43 0 66.5 -23t23.5 -67v-246q0 -44 -23.5 -67t-66.5 -23h-122v-274h-80zM125 350h112q20 0 20 20v234q0 20 -20 20h-112v-274z" />
    <glyph glyph-name="Q" unicode="Q" horiz-adv-x="382" 
d="M301 -97l-93 93h-75q-43 0 -66.5 23t-23.5 67v528q0 44 23.5 67t66.5 23h116q43 0 66.5 -23t23.5 -67v-528q0 -53 -33 -74l52 -52zM143 72h96q20 0 20 20v516q0 20 -20 20h-96q-20 0 -20 -20v-516q0 -20 20 -20z" />
    <glyph glyph-name="R" unicode="R" horiz-adv-x="375" 
d="M45 0v700h202q43 0 66.5 -23t23.5 -67v-230q0 -76 -66 -88l76 -292h-80l-75 290h-67v-290h-80zM125 366h112q20 0 20 20v218q0 20 -20 20h-112v-258z" />
    <glyph glyph-name="S" unicode="S" horiz-adv-x="372" 
d="M128 -4q-44 0 -67 23t-23 67v174h80v-168q0 -20 20 -20h96q20 0 20 20v155q0 15 -12 24l-164 119q-37 27 -37 73v151q0 44 23.5 67t66.5 23h110q43 0 66.5 -23t23.5 -67v-164h-80v158q0 20 -20 20h-90q-20 0 -20 -20v-137q0 -15 12 -24l164 -118q37 -27 37 -73v-170
q0 -44 -23 -67t-67 -23h-116z" />
    <glyph glyph-name="T" unicode="T" horiz-adv-x="316" 
d="M15 624v76h286v-76h-103v-624h-80v624h-103z" />
    <glyph glyph-name="U" unicode="U" horiz-adv-x="384" 
d="M134 -4q-44 0 -67 23t-23 67v614h80v-608q0 -20 20 -20h96q20 0 20 20v608h80v-614q0 -44 -23 -67t-67 -23h-116z" />
    <glyph glyph-name="V" unicode="V" horiz-adv-x="360" 
d="M115 0l-105 700h80l90 -624l90 624h80l-105 -700h-130z" />
    <glyph glyph-name="W" unicode="W" horiz-adv-x="570" 
d="M10 700h80l81 -598l56 598h116l56 -598l81 598h80l-105 -700h-114l-56 579l-56 -579h-114z" />
    <glyph glyph-name="X" unicode="X" horiz-adv-x="386" 
d="M15 0l121 350l-121 350h84l94 -282l94 282h84l-121 -350l121 -350h-84l-94 284l-94 -284h-84z" />
    <glyph glyph-name="Y" unicode="Y" horiz-adv-x="354" 
d="M7 700h80l90 -321l90 321h80l-130 -450v-250h-80v250z" />
    <glyph glyph-name="Z" unicode="Z" horiz-adv-x="322" 
d="M25 0v76l190 548h-186v76h268v-76l-190 -548h190v-76h-272z" />
    <glyph glyph-name="bracketleft" unicode="[" horiz-adv-x="208" 
d="M50 -140v914h168v-73h-90v-768h90v-73h-168z" />
    <glyph glyph-name="backslash" unicode="\" horiz-adv-x="258" 
d="M160 -140l-140 914h78l140 -914h-78z" />
    <glyph glyph-name="bracketright" unicode="]" horiz-adv-x="208" 
d="M-10 -140v73h90v768h-90v73h168v-914h-168z" />
    <glyph glyph-name="asciicircum" unicode="^" horiz-adv-x="404" 
d="M40 410l110 290h104l110 -290h-78l-84 221l-84 -221h-78z" />
    <glyph glyph-name="underscore" unicode="_" horiz-adv-x="360" 
d="M20 -104v64h320v-64h-320z" />
    <glyph glyph-name="grave" unicode="`" horiz-adv-x="216" 
d="M60 610l-72 110h82l54 -110h-64z" />
    <glyph glyph-name="a" unicode="a" horiz-adv-x="339" 
d="M115 -4q-90 0 -90 90v114q0 80 74 102l124 38v138q0 16 -16 16h-80q-16 0 -16 -16v-98h-76v94q0 44 23.5 67t66.5 23h84q43 0 66.5 -23t23.5 -67v-474h-76v46l-40 -50h-68zM117 66h106v199l-109 -33q-13 -4 -13 -18v-132q0 -16 16 -16z" />
    <glyph glyph-name="b" unicode="b" horiz-adv-x="352" 
d="M156 -4l-40 50v-46h-76v720h76v-206l40 50h68q44 0 67 -23t23 -67v-388q0 -44 -23 -67t-67 -23h-68zM116 66h106q16 0 16 16v396q0 16 -16 16h-106v-428z" />
    <glyph glyph-name="c" unicode="c" horiz-adv-x="347" 
d="M128 -4q-44 0 -67 23t-23 67v388q0 44 23 67t67 23h94q44 0 67 -23t23 -67v-128h-76v132q0 16 -16 16h-90q-16 0 -16 -16v-396q0 -16 16 -16h90q16 0 16 16v132h76v-128q0 -44 -23 -67t-67 -23h-94z" />
    <glyph glyph-name="d" unicode="d" horiz-adv-x="352" 
d="M128 -4q-44 0 -67 23t-23 67v388q0 44 23 67t67 23h68l40 -50v206h76v-720h-76v46l-40 -50h-68zM130 66h106v428h-106q-16 0 -16 -16v-396q0 -16 16 -16z" />
    <glyph glyph-name="e" unicode="e" horiz-adv-x="349" 
d="M38 86v388q0 44 23 67t67 23h94q44 0 67 -23t23 -67v-223h-198v-169q0 -16 16 -16h90q16 0 16 16v97h76v-93q0 -44 -23 -67t-67 -23h-94q-44 0 -67 23t-23 67zM114 321h122v157q0 16 -16 16h-90q-16 0 -16 -16v-157z" />
    <glyph glyph-name="f" unicode="f" horiz-adv-x="194" 
d="M10 490v70h36v70q0 44 23 67t67 23h52v-70h-50q-16 0 -16 -16v-74h66v-70h-66v-490h-76v490h-36z" />
    <glyph glyph-name="g" unicode="g" horiz-adv-x="352" 
d="M38 100v374q0 44 23 67t67 23h68l40 -50v46h76v-634q0 -44 -23 -67t-67 -23h-88q-44 0 -67 23t-23 67v31h76v-35q0 -16 16 -16h84q16 0 16 16v138l-40 -50h-68q-44 0 -67 23t-23 67zM114 96q0 -16 16 -16h106v414h-106q-16 0 -16 -16v-382z" />
    <glyph glyph-name="h" unicode="h" horiz-adv-x="354" 
d="M40 0v720h76v-206l40 50h68q44 0 67 -23t23 -67v-474h-76v478q0 16 -16 16h-106v-494h-76z" />
    <glyph glyph-name="i" unicode="i" horiz-adv-x="156" 
d="M40 640v80h76v-80h-76zM40 0v560h76v-560h-76z" />
    <glyph glyph-name="j" unicode="j" horiz-adv-x="157" 
d="M41 640v80h76v-80h-76zM-17 -160v70h42q16 0 16 16v634h76v-630q0 -44 -23.5 -67t-66.5 -23h-44z" />
    <glyph glyph-name="k" unicode="k" horiz-adv-x="351" 
d="M40 0v720h76v-429l143 269h82l-144 -270l144 -290h-82l-143 289v-289h-76z" />
    <glyph glyph-name="l" unicode="l" horiz-adv-x="156" 
d="M40 0v720h76v-720h-76z" />
    <glyph glyph-name="m" unicode="m" horiz-adv-x="532" 
d="M40 0v560h76v-46l40 50h58q65 0 83 -50l40 50h65q44 0 67 -23t23 -67v-474h-76v478q0 16 -16 16h-97q1 -6 1 -20v-474h-76v478q0 16 -16 16h-96v-494h-76z" />
    <glyph glyph-name="n" unicode="n" horiz-adv-x="354" 
d="M40 0v560h76v-46l40 50h68q44 0 67 -23t23 -67v-474h-76v478q0 16 -16 16h-106v-494h-76z" />
    <glyph glyph-name="o" unicode="o" horiz-adv-x="350" 
d="M128 -4q-44 0 -67 23t-23 67v388q0 44 23 67t67 23h94q44 0 67 -23t23 -67v-388q0 -44 -23 -67t-67 -23h-94zM130 66h90q16 0 16 16v396q0 16 -16 16h-90q-16 0 -16 -16v-396q0 -16 16 -16z" />
    <glyph glyph-name="p" unicode="p" horiz-adv-x="352" 
d="M40 -160v720h76v-46l40 50h68q44 0 67 -23t23 -67v-388q0 -44 -23 -67t-67 -23h-68l-40 50v-206h-76zM116 66h106q16 0 16 16v396q0 16 -16 16h-106v-428z" />
    <glyph glyph-name="q" unicode="q" horiz-adv-x="352" 
d="M236 -160v206l-40 -50h-68q-44 0 -67 23t-23 67v388q0 44 23 67t67 23h68l40 -50v46h76v-720h-76zM130 66h106v428h-106q-16 0 -16 -16v-396q0 -16 16 -16z" />
    <glyph glyph-name="r" unicode="r" horiz-adv-x="239" 
d="M40 0v560h76v-50l40 50h73v-70h-113v-490h-76z" />
    <glyph glyph-name="s" unicode="s" horiz-adv-x="338" 
d="M122 -4q-44 0 -67 23t-23 67v114h76v-118q0 -16 16 -16h90q16 0 16 16v93q0 11 -9 19l-154 121q-35 28 -35 73v86q0 44 23 67t67 23h91q43 0 66.5 -23t23.5 -67v-112h-76v116q0 16 -16 16h-87q-16 0 -16 -16v-87q0 -11 10 -19l152 -120q36 -29 36 -73v-93q0 -44 -23 -67
t-67 -23h-94z" />
    <glyph glyph-name="t" unicode="t" horiz-adv-x="217" 
d="M10 490v70h50v96h76v-96h76v-70h-76v-408q0 -16 16 -16h40v-70h-42q-44 0 -67 23t-23 67v404h-50z" />
    <glyph glyph-name="u" unicode="u" horiz-adv-x="349" 
d="M35 86v474h76v-478q0 -16 16 -16h106v494h76v-560h-76v46l-40 -50h-68q-43 0 -66.5 23t-23.5 67z" />
    <glyph glyph-name="v" unicode="v" horiz-adv-x="324" 
d="M7 560h80l75 -506l75 506h80l-93 -560h-124z" />
    <glyph glyph-name="w" unicode="w" horiz-adv-x="536" 
d="M7 560h76l65 -499l67 499h106l67 -499l65 499h76l-81 -560h-116l-64 478l-64 -478h-116z" />
    <glyph glyph-name="x" unicode="x" horiz-adv-x="328" 
d="M10 0l107 280l-103 280h80l70 -211l70 211h80l-103 -280l107 -280h-80l-74 214l-74 -214h-80z" />
    <glyph glyph-name="y" unicode="y" horiz-adv-x="324" 
d="M7 560h80l75 -506l75 506h80l-93 -560l-27 -160h-80l29 160h-46z" />
    <glyph glyph-name="z" unicode="z" horiz-adv-x="306" 
d="M22 0v70l182 420h-178v70h258v-70l-182 -420h182v-70h-262z" />
    <glyph glyph-name="braceleft" unicode="{" horiz-adv-x="241" 
d="M199 -140l-78 102q-38 49 -38 111v183q0 20 -20 20h-48v74h48q20 0 20 20v183q0 62 38 111l78 102l52 -40l-63 -92q-27 -40 -27 -87v-147q0 -37 -10.5 -57t-39.5 -30q29 -10 39.5 -30t10.5 -57v-147q0 -47 27 -87l63 -92z" />
    <glyph glyph-name="bar" unicode="|" horiz-adv-x="278" 
d="M100 -140v914h78v-914h-78z" />
    <glyph glyph-name="braceright" unicode="}" horiz-adv-x="241" 
d="M42 -140l-52 40l63 92q27 40 27 87v147q0 37 10.5 57t39.5 30q-29 10 -39.5 30t-10.5 57v147q0 47 -27 87l-63 92l52 40l78 -102q38 -49 38 -111v-183q0 -20 20 -20h48v-74h-48q-20 0 -20 -20v-183q0 -62 -38 -111z" />
    <glyph glyph-name="asciitilde" unicode="~" horiz-adv-x="398" 
d="M276 225q-39 0 -85 26t-63 26t-27.5 -9.5t-12.5 -18t-2 -15.5h-56q0 27 6.5 52t28.5 47t57 22q39 0 85 -26t63 -26t27.5 9.5t12.5 18t2 15.5h56q0 -27 -6.5 -52t-28.5 -47t-57 -22z" />
    <glyph glyph-name="uni00A0" unicode="&#xa0;" horiz-adv-x="128" 
 />
    <glyph glyph-name="exclamdown" unicode="&#xa1;" horiz-adv-x="178" 
d="M128 540v-110h-78v110h78zM128 380v-540h-78v540h78z" />
    <glyph glyph-name="cent" unicode="&#xa2;" horiz-adv-x="347" 
d="M38 180v340q0 44 23 67t67 23h13v90h68v-90h13q44 0 67 -23t23 -67v-95h-76v99q0 16 -16 16h-90q-16 0 -16 -16v-348q0 -16 16 -16h90q16 0 16 16v99h76v-95q0 -44 -23 -67t-67 -23h-13v-90h-68v90h-13q-44 0 -67 23t-23 67z" />
    <glyph glyph-name="sterling" unicode="&#xa3;" horiz-adv-x="409" 
d="M35 0v76h42v184h-42v76h42v278q0 44 23.5 67t66.5 23h116q43 0 66.5 -23t23.5 -67v-130h-80v124q0 20 -20 20h-96q-20 0 -20 -20v-272h132v-76h-132v-144l-50 -40h272v-76h-344z" />
    <glyph glyph-name="currency" unicode="&#xa4;" horiz-adv-x="486" 
d="M45 206l66 66q-3 14 -3 30v172q0 16 3 30l-66 66l54 54l65 -65q17 5 34 5h90q17 0 34 -5l65 65l54 -54l-66 -66q3 -14 3 -30v-172q0 -16 -3 -30l66 -66l-54 -54l-65 65q-17 -5 -34 -5h-90q-17 0 -34 5l-65 -65zM200 282h86q16 0 16 16v180q0 16 -16 16h-86q-16 0 -16 -16
v-180q0 -16 16 -16z" />
    <glyph glyph-name="yen" unicode="&#xa5;" horiz-adv-x="360" 
d="M10 700h79l91 -322l90 322h80l-113 -390h73v-60h-90v-72h90v-60h-90v-118h-80v118h-90v60h90v72h-90v60h73z" />
    <glyph glyph-name="brokenbar" unicode="&#xa6;" horiz-adv-x="238" 
d="M80 390v384h78v-384h-78zM80 -140v384h78v-384h-78z" />
    <glyph glyph-name="section" unicode="&#xa7;" horiz-adv-x="351" 
d="M313 162l-76 60v93q0 11 -9 19l-154 121q-35 28 -35 73v86q0 44 23.5 67t66.5 23h91q44 0 67 -23t23 -67v-112h-76v116q0 16 -16 16h-87q-16 0 -16 -16v-87q0 -11 10 -19l152 -120q36 -29 36 -73v-157zM131 -122q-43 0 -66.5 23t-23.5 67v112h76v-116q0 -16 16 -16h87
q16 0 16 16v87q0 11 -10 19l-152 120q-36 29 -36 73v157l76 -60v-93q0 -12 9 -19l154 -121q35 -28 35 -73v-86q0 -44 -23 -67t-67 -23h-91z" />
    <glyph glyph-name="dieresis" unicode="&#xa8;" horiz-adv-x="280" 
d="M46 628v80h70v-80h-70zM164 628v80h70v-80h-70z" />
    <glyph glyph-name="copyright" unicode="&#xa9;" horiz-adv-x="500" 
d="M235 -4q-90 0 -137.5 47.5t-47.5 137.5v338q0 90 47.5 137.5t137.5 47.5h30q90 0 137.5 -47.5t47.5 -137.5v-338q0 -90 -47.5 -137.5t-137.5 -47.5h-30zM230 26h40q73 0 111.5 38.5t38.5 111.5v348q0 73 -38.5 111.5t-111.5 38.5h-40q-73 0 -111.5 -38.5t-38.5 -111.5
v-348q0 -73 38.5 -111.5t111.5 -38.5zM209 102q-63 0 -63 63v370q0 63 63 63h82q63 0 63 -63v-123h-56v120q0 14 -14 14h-68q-14 0 -14 -14v-364q0 -14 14 -14h68q14 0 14 14v120h56v-123q0 -63 -63 -63h-82z" />
    <glyph glyph-name="ordfeminine" unicode="&#xaa;" horiz-adv-x="235" 
d="M70 355q-45 0 -45 45v76q0 49 46 64l74 25v83q0 10 -10 10h-44q-10 0 -10 -10v-60h-50v71q0 45 45 45h74q45 0 45 -45v-304h-50v31l-25 -31h-50zM85 401h60v116l-62 -21q-8 -3 -8 -11v-74q0 -10 10 -10z" />
    <glyph glyph-name="guillemotleft" unicode="&#xab;" horiz-adv-x="354" 
d="M10 300l110 180h84l-110 -180l110 -180h-84zM140 300l110 180h84l-110 -180l110 -180h-84z" />
    <glyph glyph-name="logicalnot" unicode="&#xac;" horiz-adv-x="410" 
d="M30 317v76h340v-182h-80v106h-260z" />
    <glyph glyph-name="uni00AD" unicode="&#xad;" horiz-adv-x="220" 
d="M10 241v70h200v-70h-200z" />
    <glyph glyph-name="registered" unicode="&#xae;" horiz-adv-x="500" 
d="M50 181v338q0 90 47.5 137.5t137.5 47.5h30q90 0 137.5 -47.5t47.5 -137.5v-338q0 -90 -47.5 -137.5t-137.5 -47.5h-30q-90 0 -137.5 47.5t-47.5 137.5zM80 176q0 -73 38.5 -111.5t111.5 -38.5h40q73 0 111.5 38.5t38.5 111.5v348q0 73 -38.5 111.5t-111.5 38.5h-40
q-73 0 -111.5 -38.5t-38.5 -111.5v-348zM148 105v490h141q63 0 63 -63v-160q0 -53 -46 -61l46 -206h-56l-45 204h-47v-204h-56zM204 361h78q14 0 14 14v154q0 14 -14 14h-78v-182z" />
    <glyph glyph-name="macron" unicode="&#xaf;" horiz-adv-x="246" 
d="M40 634v60h166v-60h-166z" />
    <glyph glyph-name="degree" unicode="&#xb0;" horiz-adv-x="266" 
d="M110 414q-70 0 -70 70v156q0 70 70 70h46q70 0 70 -70v-156q0 -70 -70 -70h-46zM113 468h40q15 0 15 15v158q0 15 -15 15h-40q-15 0 -15 -15v-158q0 -15 15 -15z" />
    <glyph glyph-name="plusminus" unicode="&#xb1;" horiz-adv-x="400" 
d="M30 149v70h132v112h-132v76h132v132h76v-132h132v-76h-132v-112h132v-70h-340z" />
    <glyph glyph-name="uni00B2" unicode="&#xb2;" horiz-adv-x="206" 
d="M30 357v64q0 15 9 32l82 137q5 8 5 20v38q0 10 -10 10h-24q-10 0 -10 -10v-56h-50v67q0 45 45 45h54q45 0 45 -45v-49q0 -16 -9 -32l-82 -138q-5 -8 -5 -20v-17h96v-46h-146z" />
    <glyph glyph-name="uni00B3" unicode="&#xb3;" horiz-adv-x="242" 
d="M84 355q-45 0 -45 45v66h50v-55q0 -10 10 -10h40q10 0 10 10v94q0 10 -10 10h-40v46h40q10 0 10 10v77q0 10 -10 10h-40q-10 0 -10 -10v-51h-50v62q0 45 45 45h70q45 0 45 -45v-83q0 -28 -28 -38q28 -10 28 -39v-99q0 -45 -45 -45h-70z" />
    <glyph glyph-name="acute" unicode="&#xb4;" horiz-adv-x="216" 
d="M60 610l54 110h82l-72 -110h-64z" />
    <glyph glyph-name="uni00B5" unicode="&#xb5;" horiz-adv-x="354" 
d="M40 -160v720h76v-478q0 -16 16 -16h106v494h76v-560h-76v46l-40 -50h-82v-156h-76z" />
    <glyph glyph-name="paragraph" unicode="&#xb6;" horiz-adv-x="403" 
d="M188 0v360h-60q-44 0 -67 23t-23 67v160q0 44 23 67t67 23h120v-700h-60zM298 0v700h60v-700h-60z" />
    <glyph glyph-name="periodcentered" unicode="&#xb7;" horiz-adv-x="138" 
d="M40 220v110h78v-110h-78z" />
    <glyph glyph-name="cedilla" unicode="&#xb8;" horiz-adv-x="166" 
d="M-2 -110l42 110h64l-24 -110h-82z" />
    <glyph glyph-name="uni00B9" unicode="&#xb9;" horiz-adv-x="160" 
d="M20 644v32l45 24h35v-345h-50v289h-30z" />
    <glyph glyph-name="ordmasculine" unicode="&#xba;" horiz-adv-x="246" 
d="M83 355q-45 0 -45 45v259q0 45 45 45h80q45 0 45 -45v-259q0 -45 -45 -45h-80zM98 401h50q10 0 10 10v237q0 10 -10 10h-50q-10 0 -10 -10v-237q0 -10 10 -10z" />
    <glyph glyph-name="guillemotright" unicode="&#xbb;" horiz-adv-x="354" 
d="M20 120l110 180l-110 180h84l110 -180l-110 -180h-84zM150 120l110 180l-110 180h84l110 -180l-110 -180h-84z" />
    <glyph glyph-name="questiondown" unicode="&#xbf;" horiz-adv-x="348" 
d="M231 544v-110h-78v110h78zM229 384v-126q0 -58 -44 -98l-58 -51q-17 -16 -17 -37v-136q0 -20 20 -20h88q20 0 20 20v128h80v-134q0 -44 -23 -67t-67 -23h-108q-44 0 -67 23t-23 67v136q0 59 45 98l63 55q17 16 17 37v128h74z" />
    <glyph glyph-name="Agrave" unicode="&#xc0;" horiz-adv-x="374" 
d="M155 774l-72 110h82l54 -110h-64zM17 0l105 700h130l105 -700h-80l-23 160h-134l-23 -160h-80zM131 236h112l-56 388z" />
    <glyph glyph-name="Aacute" unicode="&#xc1;" horiz-adv-x="374" 
d="M155 774l54 110h82l-72 -110h-64zM17 0l105 700h130l105 -700h-80l-23 160h-134l-23 -160h-80zM131 236h112l-56 388z" />
    <glyph glyph-name="Acircumflex" unicode="&#xc2;" horiz-adv-x="374" 
d="M91 774l54 110h84l54 -110h-54l-42 64l-42 -64h-54zM17 0l105 700h130l105 -700h-80l-23 160h-134l-23 -160h-80zM131 236h112l-56 388z" />
    <glyph glyph-name="Atilde" unicode="&#xc3;" horiz-adv-x="374" 
d="M232 765q-22 0 -52 15t-44 15q-12 0 -18 -8t-6 -17h-30q0 10 1.5 20t6 27t18.5 27.5t34 10.5q22 0 52 -15t44 -15q12 0 18 8t6 17h30q0 -10 -1.5 -20t-6 -27t-18.5 -27.5t-34 -10.5zM17 0l105 700h130l105 -700h-80l-23 160h-134l-23 -160h-80zM131 236h112l-56 388z" />
    <glyph glyph-name="Adieresis" unicode="&#xc4;" horiz-adv-x="374" 
d="M93 774v80h70v-80h-70zM211 774v80h70v-80h-70zM17 0l105 700h130l105 -700h-80l-23 160h-134l-23 -160h-80zM131 236h112l-56 388z" />
    <glyph glyph-name="Aring" unicode="&#xc5;" horiz-adv-x="374" 
d="M187 770q-33 0 -56.5 23.5t-23.5 56.5t23.5 56.5t56.5 23.5t56.5 -23.5t23.5 -56.5t-23.5 -56.5t-56.5 -23.5zM187 810q17 0 28.5 12t11.5 28t-11.5 28t-28.5 12t-28.5 -12t-11.5 -28t11.5 -28t28.5 -12zM17 0l105 700h130l105 -700h-80l-23 160h-134l-23 -160h-80z
M131 236h112l-56 388z" />
    <glyph glyph-name="AE" unicode="&#xc6;" horiz-adv-x="505" 
d="M17 0l115 700h346v-76h-162v-230h156v-76h-156v-242h166v-76h-246v160h-114l-26 -160h-79zM134 236h102v388h-40z" />
    <glyph glyph-name="Ccedilla" unicode="&#xc7;" horiz-adv-x="377" 
d="M339 440h-80v168q0 20 -20 20h-96q-20 0 -20 -20v-516q0 -20 20 -20h96q20 0 20 20v168h80v-174q0 -44 -23.5 -67t-66.5 -23h-33l-23 -106h-82l40 106h-18q-43 0 -66.5 23t-23.5 67v528q0 44 23.5 67t66.5 23h116q43 0 66.5 -23t23.5 -67v-174z" />
    <glyph glyph-name="Egrave" unicode="&#xc8;" horiz-adv-x="314" 
d="M133 774l-72 110h82l54 -110h-64zM45 0v700h242v-76h-162v-230h156v-76h-156v-242h166v-76h-246z" />
    <glyph glyph-name="Eacute" unicode="&#xc9;" horiz-adv-x="314" 
d="M128 774l54 110h82l-72 -110h-64zM45 0v700h242v-76h-162v-230h156v-76h-156v-242h166v-76h-246z" />
    <glyph glyph-name="Ecircumflex" unicode="&#xca;" horiz-adv-x="314" 
d="M70 774l54 110h84l54 -110h-54l-42 64l-42 -64h-54zM45 0v700h242v-76h-162v-230h156v-76h-156v-242h166v-76h-246z" />
    <glyph glyph-name="Edieresis" unicode="&#xcb;" horiz-adv-x="314" 
d="M72 774v80h70v-80h-70zM190 774v80h70v-80h-70zM45 0v700h242v-76h-162v-230h156v-76h-156v-242h166v-76h-246z" />
    <glyph glyph-name="Igrave" unicode="&#xcc;" horiz-adv-x="170" 
d="M53 774l-72 110h82l54 -110h-64zM45 0v700h80v-700h-80z" />
    <glyph glyph-name="Iacute" unicode="&#xcd;" horiz-adv-x="170" 
d="M53 774l54 110h82l-72 -110h-64zM45 0v700h80v-700h-80z" />
    <glyph glyph-name="Icircumflex" unicode="&#xce;" horiz-adv-x="170" 
d="M-11 774l54 110h84l54 -110h-54l-42 64l-42 -64h-54zM45 0v700h80v-700h-80z" />
    <glyph glyph-name="Idieresis" unicode="&#xcf;" horiz-adv-x="170" 
d="M-9 774v80h70v-80h-70zM109 774v80h70v-80h-70zM45 0v700h80v-700h-80z" />
    <glyph glyph-name="Eth" unicode="&#xd0;" horiz-adv-x="399" 
d="M10 312v76h50v312h206q44 0 67 -23t23 -67v-520q0 -44 -23 -67t-67 -23h-206v312h-50zM140 76h116q20 0 20 20v508q0 20 -20 20h-116v-236h70v-76h-70v-236z" />
    <glyph glyph-name="Ntilde" unicode="&#xd1;" horiz-adv-x="400" 
d="M245 765q-22 0 -52 15t-44 15q-12 0 -18 -8t-6 -17h-30q0 10 1.5 20t6 27t18.5 27.5t34 10.5q22 0 52 -15t44 -15q12 0 18 8t6 17h30q0 -10 -1.5 -20t-6 -27t-18.5 -27.5t-34 -10.5zM45 0v700h80l150 -354v354h80v-700h-80v162l-150 354v-516h-80z" />
    <glyph glyph-name="Ograve" unicode="&#xd2;" horiz-adv-x="384" 
d="M160 774l-72 110h82l54 -110h-64zM133 -4q-43 0 -66.5 23t-23.5 67v528q0 44 23.5 67t66.5 23h118q43 0 66.5 -23t23.5 -67v-528q0 -44 -23.5 -67t-66.5 -23h-118zM143 72h98q20 0 20 20v516q0 20 -20 20h-98q-20 0 -20 -20v-516q0 -20 20 -20z" />
    <glyph glyph-name="Oacute" unicode="&#xd3;" horiz-adv-x="384" 
d="M160 774l54 110h82l-72 -110h-64zM133 -4q-43 0 -66.5 23t-23.5 67v528q0 44 23.5 67t66.5 23h118q43 0 66.5 -23t23.5 -67v-528q0 -44 -23.5 -67t-66.5 -23h-118zM143 72h98q20 0 20 20v516q0 20 -20 20h-98q-20 0 -20 -20v-516q0 -20 20 -20z" />
    <glyph glyph-name="Ocircumflex" unicode="&#xd4;" horiz-adv-x="384" 
d="M96 774l54 110h84l54 -110h-54l-42 64l-42 -64h-54zM133 -4q-43 0 -66.5 23t-23.5 67v528q0 44 23.5 67t66.5 23h118q43 0 66.5 -23t23.5 -67v-528q0 -44 -23.5 -67t-66.5 -23h-118zM143 72h98q20 0 20 20v516q0 20 -20 20h-98q-20 0 -20 -20v-516q0 -20 20 -20z" />
    <glyph glyph-name="Otilde" unicode="&#xd5;" horiz-adv-x="384" 
d="M237 765q-22 0 -52 15t-44 15q-12 0 -18 -8t-6 -17h-30q0 10 1.5 20t6 27t18.5 27.5t34 10.5q22 0 52 -15t44 -15q12 0 18 8t6 17h30q0 -10 -1.5 -20t-6 -27t-18.5 -27.5t-34 -10.5zM133 -4q-43 0 -66.5 23t-23.5 67v528q0 44 23.5 67t66.5 23h118q43 0 66.5 -23
t23.5 -67v-528q0 -44 -23.5 -67t-66.5 -23h-118zM143 72h98q20 0 20 20v516q0 20 -20 20h-98q-20 0 -20 -20v-516q0 -20 20 -20z" />
    <glyph glyph-name="Odieresis" unicode="&#xd6;" horiz-adv-x="384" 
d="M98 774v80h70v-80h-70zM216 774v80h70v-80h-70zM133 -4q-43 0 -66.5 23t-23.5 67v528q0 44 23.5 67t66.5 23h118q43 0 66.5 -23t23.5 -67v-528q0 -44 -23.5 -67t-66.5 -23h-118zM143 72h98q20 0 20 20v516q0 20 -20 20h-98q-20 0 -20 -20v-516q0 -20 20 -20z" />
    <glyph glyph-name="multiply" unicode="&#xd7;" horiz-adv-x="402" 
d="M40 242l107 107l-107 107l54 54l107 -107l107 107l54 -54l-107 -107l107 -107l-54 -54l-107 107l-107 -107z" />
    <glyph glyph-name="Oslash" unicode="&#xd8;" horiz-adv-x="382" 
d="M133 -4q-43 0 -66.5 23t-23.5 67v528q0 44 23.5 67t66.5 23h116q43 0 66.5 -23t23.5 -67v-528q0 -44 -23.5 -67t-66.5 -23h-116zM123 242l136 368q-1 18 -20 18h-96q-20 0 -20 -20v-366zM143 72h96q20 0 20 20v366l-136 -368q1 -18 20 -18z" />
    <glyph glyph-name="Ugrave" unicode="&#xd9;" horiz-adv-x="384" 
d="M161 774l-72 110h82l54 -110h-64zM134 -4q-44 0 -67 23t-23 67v614h80v-608q0 -20 20 -20h96q20 0 20 20v608h80v-614q0 -44 -23 -67t-67 -23h-116z" />
    <glyph glyph-name="Uacute" unicode="&#xda;" horiz-adv-x="384" 
d="M161 774l54 110h82l-72 -110h-64zM134 -4q-44 0 -67 23t-23 67v614h80v-608q0 -20 20 -20h96q20 0 20 20v608h80v-614q0 -44 -23 -67t-67 -23h-116z" />
    <glyph glyph-name="Ucircumflex" unicode="&#xdb;" horiz-adv-x="384" 
d="M97 774l54 110h84l54 -110h-54l-42 64l-42 -64h-54zM134 -4q-44 0 -67 23t-23 67v614h80v-608q0 -20 20 -20h96q20 0 20 20v608h80v-614q0 -44 -23 -67t-67 -23h-116z" />
    <glyph glyph-name="Udieresis" unicode="&#xdc;" horiz-adv-x="384" 
d="M99 774v80h70v-80h-70zM217 774v80h70v-80h-70zM134 -4q-44 0 -67 23t-23 67v614h80v-608q0 -20 20 -20h96q20 0 20 20v608h80v-614q0 -44 -23 -67t-67 -23h-116z" />
    <glyph glyph-name="Yacute" unicode="&#xdd;" horiz-adv-x="354" 
d="M145 774l54 110h82l-72 -110h-64zM7 700h80l90 -321l90 321h80l-130 -450v-250h-80v250z" />
    <glyph glyph-name="Thorn" unicode="&#xde;" horiz-adv-x="370" 
d="M45 0v700h80v-144h122q43 0 66.5 -23t23.5 -67v-232q0 -44 -23.5 -67t-66.5 -23h-122v-144h-80zM125 220h112q20 0 20 20v220q0 20 -20 20h-112v-260z" />
    <glyph glyph-name="germandbls" unicode="&#xdf;" horiz-adv-x="379" 
d="M45 0v614q0 43 23 66.5t66 23.5h116q43 0 66 -23.5t23 -66.5v-177q0 -60 -50 -80q50 -20 50 -80v-191q0 -44 -23.5 -67t-66.5 -23h-80v70h78q16 0 16 16v224q0 16 -16 16h-78v70h78q16 0 16 16v210q0 16 -16 16h-110q-16 0 -16 -16v-618h-76z" />
    <glyph glyph-name="agrave" unicode="&#xe0;" horiz-adv-x="339" 
d="M133 610l-72 110h82l54 -110h-64zM115 -4q-90 0 -90 90v114q0 80 74 102l124 38v138q0 16 -16 16h-80q-16 0 -16 -16v-98h-76v94q0 44 23.5 67t66.5 23h84q43 0 66.5 -23t23.5 -67v-474h-76v46l-40 -50h-68zM117 66h106v199l-109 -33q-13 -4 -13 -18v-132q0 -16 16 -16z
" />
    <glyph glyph-name="aacute" unicode="&#xe1;" horiz-adv-x="339" 
d="M133 610l54 110h82l-72 -110h-64zM115 -4q-90 0 -90 90v114q0 80 74 102l124 38v138q0 16 -16 16h-80q-16 0 -16 -16v-98h-76v94q0 44 23.5 67t66.5 23h84q43 0 66.5 -23t23.5 -67v-474h-76v46l-40 -50h-68zM117 66h106v199l-109 -33q-13 -4 -13 -18v-132q0 -16 16 -16z
" />
    <glyph glyph-name="acircumflex" unicode="&#xe2;" horiz-adv-x="339" 
d="M69 610l54 110h84l54 -110h-54l-42 64l-42 -64h-54zM115 -4q-90 0 -90 90v114q0 80 74 102l124 38v138q0 16 -16 16h-80q-16 0 -16 -16v-98h-76v94q0 44 23.5 67t66.5 23h84q43 0 66.5 -23t23.5 -67v-474h-76v46l-40 -50h-68zM117 66h106v199l-109 -33q-13 -4 -13 -18
v-132q0 -16 16 -16z" />
    <glyph glyph-name="atilde" unicode="&#xe3;" horiz-adv-x="339" 
d="M210 625q-22 0 -52 15t-44 15q-12 0 -18 -8t-6 -17h-30q0 10 1.5 20t6 27t18.5 27.5t34 10.5q22 0 52 -15t44 -15q12 0 18 8t6 17h30q0 -10 -1.5 -20t-6 -27t-18.5 -27.5t-34 -10.5zM115 -4q-90 0 -90 90v114q0 80 74 102l124 38v138q0 16 -16 16h-80q-16 0 -16 -16v-98
h-76v94q0 44 23.5 67t66.5 23h84q43 0 66.5 -23t23.5 -67v-474h-76v46l-40 -50h-68zM117 66h106v199l-109 -33q-13 -4 -13 -18v-132q0 -16 16 -16z" />
    <glyph glyph-name="adieresis" unicode="&#xe4;" horiz-adv-x="339" 
d="M71 628v80h70v-80h-70zM189 628v80h70v-80h-70zM115 -4q-90 0 -90 90v114q0 80 74 102l124 38v138q0 16 -16 16h-80q-16 0 -16 -16v-98h-76v94q0 44 23.5 67t66.5 23h84q43 0 66.5 -23t23.5 -67v-474h-76v46l-40 -50h-68zM117 66h106v199l-109 -33q-13 -4 -13 -18v-132
q0 -16 16 -16z" />
    <glyph glyph-name="aring" unicode="&#xe5;" horiz-adv-x="339" 
d="M165 610q-33 0 -56.5 23.5t-23.5 56.5t23.5 56.5t56.5 23.5t56.5 -23.5t23.5 -56.5t-23.5 -56.5t-56.5 -23.5zM165 650q17 0 28.5 12t11.5 28t-11.5 28t-28.5 12t-28.5 -12t-11.5 -28t11.5 -28t28.5 -12zM115 -4q-90 0 -90 90v114q0 80 74 102l124 38v138q0 16 -16 16
h-80q-16 0 -16 -16v-98h-76v94q0 44 23.5 67t66.5 23h84q43 0 66.5 -23t23.5 -67v-474h-76v46l-40 -50h-68zM117 66h106v199l-109 -33q-13 -4 -13 -18v-132q0 -16 16 -16z" />
    <glyph glyph-name="ae" unicode="&#xe6;" horiz-adv-x="530" 
d="M104 -6q-38 0 -58.5 23t-20.5 67v116q0 77 74 102l124 41v137q0 16 -16 16h-80q-16 0 -16 -16v-106h-76v102q0 44 23.5 67t66.5 23h96l40 -50l40 50h102q43 0 66.5 -23t23.5 -67v-225h-194v-171q0 -16 16 -16h86q16 0 16 16v105h76v-101q0 -44 -23.5 -67t-66.5 -23h-102
l-40 50l-40 -50h-117zM299 321h118v159q0 16 -16 16h-86q-16 0 -16 -16v-159zM117 64h90q16 0 16 15v186l-109 -33q-13 -4 -13 -18v-134q0 -16 16 -16z" />
    <glyph glyph-name="ccedilla" unicode="&#xe7;" horiz-adv-x="347" 
d="M312 346h-76v132q0 16 -16 16h-90q-16 0 -16 -16v-396q0 -16 16 -16h90q16 0 16 16v132h76v-128q0 -44 -23 -67t-67 -23h-17l-23 -106h-82l40 106h-12q-44 0 -67 23t-23 67v388q0 44 23 67t67 23h94q44 0 67 -23t23 -67v-128z" />
    <glyph glyph-name="egrave" unicode="&#xe8;" horiz-adv-x="349" 
d="M143 610l-72 110h82l54 -110h-64zM38 86v388q0 44 23 67t67 23h94q44 0 67 -23t23 -67v-223h-198v-169q0 -16 16 -16h90q16 0 16 16v97h76v-93q0 -44 -23 -67t-67 -23h-94q-44 0 -67 23t-23 67zM114 321h122v157q0 16 -16 16h-90q-16 0 -16 -16v-157z" />
    <glyph glyph-name="eacute" unicode="&#xe9;" horiz-adv-x="349" 
d="M143 610l54 110h82l-72 -110h-64zM38 86v388q0 44 23 67t67 23h94q44 0 67 -23t23 -67v-223h-198v-169q0 -16 16 -16h90q16 0 16 16v97h76v-93q0 -44 -23 -67t-67 -23h-94q-44 0 -67 23t-23 67zM114 321h122v157q0 16 -16 16h-90q-16 0 -16 -16v-157z" />
    <glyph glyph-name="ecircumflex" unicode="&#xea;" horiz-adv-x="349" 
d="M79 610l54 110h84l54 -110h-54l-42 64l-42 -64h-54zM38 86v388q0 44 23 67t67 23h94q44 0 67 -23t23 -67v-223h-198v-169q0 -16 16 -16h90q16 0 16 16v97h76v-93q0 -44 -23 -67t-67 -23h-94q-44 0 -67 23t-23 67zM114 321h122v157q0 16 -16 16h-90q-16 0 -16 -16v-157z
" />
    <glyph glyph-name="edieresis" unicode="&#xeb;" horiz-adv-x="349" 
d="M81 628v80h70v-80h-70zM199 628v80h70v-80h-70zM38 86v388q0 44 23 67t67 23h94q44 0 67 -23t23 -67v-223h-198v-169q0 -16 16 -16h90q16 0 16 16v97h76v-93q0 -44 -23 -67t-67 -23h-94q-44 0 -67 23t-23 67zM114 321h122v157q0 16 -16 16h-90q-16 0 -16 -16v-157z" />
    <glyph glyph-name="igrave" unicode="&#xec;" horiz-adv-x="156" 
d="M46 610l-72 110h82l54 -110h-64zM40 0v560h76v-560h-76z" />
    <glyph glyph-name="iacute" unicode="&#xed;" horiz-adv-x="156" 
d="M46 610l54 110h82l-72 -110h-64zM40 0v560h76v-560h-76z" />
    <glyph glyph-name="icircumflex" unicode="&#xee;" horiz-adv-x="156" 
d="M-18 610l54 110h84l54 -110h-54l-42 64l-42 -64h-54zM40 0v560h76v-560h-76z" />
    <glyph glyph-name="idieresis" unicode="&#xef;" horiz-adv-x="156" 
d="M-16 628v80h70v-80h-70zM102 628v80h70v-80h-70zM40 0v560h76v-560h-76z" />
    <glyph glyph-name="eth" unicode="&#xf0;" horiz-adv-x="352" 
d="M128 -4q-44 0 -67 23t-23 67v364q0 44 23 67t67 23h68l40 -50v3l-38 107h-84v50h66l-24 70h76l24 -70h96l-40 -50h-38l38 -110v-404q0 -44 -23 -67t-67 -23h-94zM130 66h90q16 0 16 16v388h-106q-16 0 -16 -16v-372q0 -16 16 -16z" />
    <glyph glyph-name="ntilde" unicode="&#xf1;" horiz-adv-x="354" 
d="M222 625q-22 0 -52 15t-44 15q-12 0 -18 -8t-6 -17h-30q0 10 1.5 20t6 27t18.5 27.5t34 10.5q22 0 52 -15t44 -15q12 0 18 8t6 17h30q0 -10 -1.5 -20t-6 -27t-18.5 -27.5t-34 -10.5zM40 0v560h76v-46l40 50h68q44 0 67 -23t23 -67v-474h-76v478q0 16 -16 16h-106v-494
h-76z" />
    <glyph glyph-name="ograve" unicode="&#xf2;" horiz-adv-x="350" 
d="M141 610l-72 110h82l54 -110h-64zM128 -4q-44 0 -67 23t-23 67v388q0 44 23 67t67 23h94q44 0 67 -23t23 -67v-388q0 -44 -23 -67t-67 -23h-94zM130 66h90q16 0 16 16v396q0 16 -16 16h-90q-16 0 -16 -16v-396q0 -16 16 -16z" />
    <glyph glyph-name="oacute" unicode="&#xf3;" horiz-adv-x="350" 
d="M141 610l54 110h82l-72 -110h-64zM128 -4q-44 0 -67 23t-23 67v388q0 44 23 67t67 23h94q44 0 67 -23t23 -67v-388q0 -44 -23 -67t-67 -23h-94zM130 66h90q16 0 16 16v396q0 16 -16 16h-90q-16 0 -16 -16v-396q0 -16 16 -16z" />
    <glyph glyph-name="ocircumflex" unicode="&#xf4;" horiz-adv-x="350" 
d="M77 610l54 110h84l54 -110h-54l-42 64l-42 -64h-54zM128 -4q-44 0 -67 23t-23 67v388q0 44 23 67t67 23h94q44 0 67 -23t23 -67v-388q0 -44 -23 -67t-67 -23h-94zM130 66h90q16 0 16 16v396q0 16 -16 16h-90q-16 0 -16 -16v-396q0 -16 16 -16z" />
    <glyph glyph-name="otilde" unicode="&#xf5;" horiz-adv-x="350" 
d="M218 625q-22 0 -52 15t-44 15q-12 0 -18 -8t-6 -17h-30q0 10 1.5 20t6 27t18.5 27.5t34 10.5q22 0 52 -15t44 -15q12 0 18 8t6 17h30q0 -10 -1.5 -20t-6 -27t-18.5 -27.5t-34 -10.5zM128 -4q-44 0 -67 23t-23 67v388q0 44 23 67t67 23h94q44 0 67 -23t23 -67v-388
q0 -44 -23 -67t-67 -23h-94zM130 66h90q16 0 16 16v396q0 16 -16 16h-90q-16 0 -16 -16v-396q0 -16 16 -16z" />
    <glyph glyph-name="odieresis" unicode="&#xf6;" horiz-adv-x="350" 
d="M79 628v80h70v-80h-70zM197 628v80h70v-80h-70zM128 -4q-44 0 -67 23t-23 67v388q0 44 23 67t67 23h94q44 0 67 -23t23 -67v-388q0 -44 -23 -67t-67 -23h-94zM130 66h90q16 0 16 16v396q0 16 -16 16h-90q-16 0 -16 -16v-396q0 -16 16 -16z" />
    <glyph glyph-name="divide" unicode="&#xf7;" horiz-adv-x="400" 
d="M162 437v76h76v-76h-76zM30 311v76h340v-76h-340zM162 185v76h76v-76h-76z" />
    <glyph glyph-name="oslash" unicode="&#xf8;" horiz-adv-x="350" 
d="M128 -4q-44 0 -67 23t-23 67v388q0 44 23 67t67 23h94q44 0 67 -23t23 -67v-388q0 -44 -23 -67t-67 -23h-94zM114 191l122 287q0 16 -16 16h-90q-16 0 -16 -16v-287zM130 66h90q16 0 16 16v287l-122 -287q0 -16 16 -16z" />
    <glyph glyph-name="ugrave" unicode="&#xf9;" horiz-adv-x="349" 
d="M140 610l-72 110h82l54 -110h-64zM35 86v474h76v-478q0 -16 16 -16h106v494h76v-560h-76v46l-40 -50h-68q-43 0 -66.5 23t-23.5 67z" />
    <glyph glyph-name="uacute" unicode="&#xfa;" horiz-adv-x="349" 
d="M140 610l54 110h82l-72 -110h-64zM35 86v474h76v-478q0 -16 16 -16h106v494h76v-560h-76v46l-40 -50h-68q-43 0 -66.5 23t-23.5 67z" />
    <glyph glyph-name="ucircumflex" unicode="&#xfb;" horiz-adv-x="349" 
d="M76 610l54 110h84l54 -110h-54l-42 64l-42 -64h-54zM35 86v474h76v-478q0 -16 16 -16h106v494h76v-560h-76v46l-40 -50h-68q-43 0 -66.5 23t-23.5 67z" />
    <glyph glyph-name="udieresis" unicode="&#xfc;" horiz-adv-x="349" 
d="M78 628v80h70v-80h-70zM196 628v80h70v-80h-70zM35 86v474h76v-478q0 -16 16 -16h106v494h76v-560h-76v46l-40 -50h-68q-43 0 -66.5 23t-23.5 67z" />
    <glyph glyph-name="yacute" unicode="&#xfd;" horiz-adv-x="324" 
d="M130 610l54 110h82l-72 -110h-64zM7 560h80l75 -506l75 506h80l-93 -560l-27 -160h-80l29 160h-46z" />
    <glyph glyph-name="thorn" unicode="&#xfe;" horiz-adv-x="352" 
d="M40 -160v860h76v-186l40 50h68q44 0 67 -23t23 -67v-388q0 -44 -23 -67t-67 -23h-68l-40 50v-206h-76zM116 66h106q16 0 16 16v396q0 16 -16 16h-106v-428z" />
    <glyph glyph-name="ydieresis" unicode="&#xff;" horiz-adv-x="324" 
d="M68 628v80h70v-80h-70zM186 628v80h70v-80h-70zM7 560h80l75 -506l75 506h80l-93 -560l-27 -160h-80l29 160h-46z" />
    <glyph glyph-name="Amacron" unicode="&#x100;" horiz-adv-x="374" 
d="M104 774v60h166v-60h-166zM17 0l105 700h130l105 -700h-80l-23 160h-134l-23 -160h-80zM131 236h112l-56 388z" />
    <glyph glyph-name="amacron" unicode="&#x101;" horiz-adv-x="339" 
d="M83 634v60h166v-60h-166zM115 -4q-90 0 -90 90v114q0 80 74 102l124 38v138q0 16 -16 16h-80q-16 0 -16 -16v-98h-76v94q0 44 23.5 67t66.5 23h84q43 0 66.5 -23t23.5 -67v-474h-76v46l-40 -50h-68zM117 66h106v199l-109 -33q-13 -4 -13 -18v-132q0 -16 16 -16z" />
    <glyph glyph-name="Abreve" unicode="&#x102;" horiz-adv-x="374" 
d="M187 770q-41 0 -70.5 29.5t-29.5 70.5h50q0 -21 14.5 -35.5t35.5 -14.5t35.5 14.5t14.5 35.5h50q0 -41 -29.5 -70.5t-70.5 -29.5zM17 0l105 700h130l105 -700h-80l-23 160h-134l-23 -160h-80zM131 236h112l-56 388z" />
    <glyph glyph-name="abreve" unicode="&#x103;" horiz-adv-x="339" 
d="M165 610q-41 0 -70.5 29.5t-29.5 70.5h55q0 -19 13 -32t32 -13t32 13t13 32h55q0 -41 -29.5 -70.5t-70.5 -29.5zM115 -4q-90 0 -90 90v114q0 80 74 102l124 38v138q0 16 -16 16h-80q-16 0 -16 -16v-98h-76v94q0 44 23.5 67t66.5 23h84q43 0 66.5 -23t23.5 -67v-474h-76
v46l-40 -50h-68zM117 66h106v199l-109 -33q-13 -4 -13 -18v-132q0 -16 16 -16z" />
    <glyph glyph-name="Aogonek" unicode="&#x104;" horiz-adv-x="374" 
d="M357 0l-53 -105h53v-60h-54q-42 0 -55 29t5 60l38 76h-14l-23 160h-134l-23 -160h-80l105 700h130zM131 236h112l-56 388z" />
    <glyph glyph-name="aogonek" unicode="&#x105;" horiz-adv-x="339" 
d="M299 474v-474l-53 -105h53v-60h-54q-42 0 -55 29t5 60l38 76h-10v46l-40 -50h-68q-90 0 -90 90v114q0 80 74 102l124 38v138q0 16 -16 16h-80q-16 0 -16 -16v-98h-76v94q0 44 23.5 67t66.5 23h84q43 0 66.5 -23t23.5 -67zM223 66v199l-109 -33q-13 -4 -13 -18v-132
q0 -16 16 -16h106z" />
    <glyph glyph-name="Cacute" unicode="&#x106;" horiz-adv-x="377" 
d="M161 774l54 110h82l-72 -110h-64zM133 -4q-43 0 -66.5 23t-23.5 67v528q0 44 23.5 67t66.5 23h116q43 0 66.5 -23t23.5 -67v-174h-80v168q0 20 -20 20h-96q-20 0 -20 -20v-516q0 -20 20 -20h96q20 0 20 20v168h80v-174q0 -44 -23.5 -67t-66.5 -23h-116z" />
    <glyph glyph-name="cacute" unicode="&#x107;" horiz-adv-x="347" 
d="M142 610l54 110h82l-72 -110h-64zM128 -4q-44 0 -67 23t-23 67v388q0 44 23 67t67 23h94q44 0 67 -23t23 -67v-128h-76v132q0 16 -16 16h-90q-16 0 -16 -16v-396q0 -16 16 -16h90q16 0 16 16v132h76v-128q0 -44 -23 -67t-67 -23h-94z" />
    <glyph glyph-name="Ccircumflex" unicode="&#x108;" horiz-adv-x="377" 
d="M89 774l54 110h84l54 -110h-54l-42 64l-42 -64h-54zM133 -4q-43 0 -66.5 23t-23.5 67v528q0 44 23.5 67t66.5 23h116q43 0 66.5 -23t23.5 -67v-174h-80v168q0 20 -20 20h-96q-20 0 -20 -20v-516q0 -20 20 -20h96q20 0 20 20v168h80v-174q0 -44 -23.5 -67t-66.5 -23h-116z
" />
    <glyph glyph-name="ccircumflex" unicode="&#x109;" horiz-adv-x="347" 
d="M78 610l54 110h84l54 -110h-54l-42 64l-42 -64h-54zM128 -4q-44 0 -67 23t-23 67v388q0 44 23 67t67 23h94q44 0 67 -23t23 -67v-128h-76v132q0 16 -16 16h-90q-16 0 -16 -16v-396q0 -16 16 -16h90q16 0 16 16v132h76v-128q0 -44 -23 -67t-67 -23h-94z" />
    <glyph glyph-name="Cdotaccent" unicode="&#x10a;" horiz-adv-x="377" 
d="M147 774v80h76v-80h-76zM133 -4q-43 0 -66.5 23t-23.5 67v528q0 44 23.5 67t66.5 23h116q43 0 66.5 -23t23.5 -67v-174h-80v168q0 20 -20 20h-96q-20 0 -20 -20v-516q0 -20 20 -20h96q20 0 20 20v168h80v-174q0 -44 -23.5 -67t-66.5 -23h-116z" />
    <glyph glyph-name="cdotaccent" unicode="&#x10b;" horiz-adv-x="347" 
d="M136 628v80h76v-80h-76zM128 -4q-44 0 -67 23t-23 67v388q0 44 23 67t67 23h94q44 0 67 -23t23 -67v-128h-76v132q0 16 -16 16h-90q-16 0 -16 -16v-396q0 -16 16 -16h90q16 0 16 16v132h76v-128q0 -44 -23 -67t-67 -23h-94z" />
    <glyph glyph-name="Ccaron" unicode="&#x10c;" horiz-adv-x="377" 
d="M89 884h54l42 -64l42 64h54l-54 -110h-84zM133 -4q-43 0 -66.5 23t-23.5 67v528q0 44 23.5 67t66.5 23h116q43 0 66.5 -23t23.5 -67v-174h-80v168q0 20 -20 20h-96q-20 0 -20 -20v-516q0 -20 20 -20h96q20 0 20 20v168h80v-174q0 -44 -23.5 -67t-66.5 -23h-116z" />
    <glyph glyph-name="ccaron" unicode="&#x10d;" horiz-adv-x="347" 
d="M78 720h54l42 -64l42 64h54l-54 -110h-84zM128 -4q-44 0 -67 23t-23 67v388q0 44 23 67t67 23h94q44 0 67 -23t23 -67v-128h-76v132q0 16 -16 16h-90q-16 0 -16 -16v-396q0 -16 16 -16h90q16 0 16 16v132h76v-128q0 -44 -23 -67t-67 -23h-94z" />
    <glyph glyph-name="Dcaron" unicode="&#x10e;" horiz-adv-x="384" 
d="M72 884h54l42 -64l42 64h54l-54 -110h-84zM45 0v700h206q43 0 66.5 -23t23.5 -67v-520q0 -44 -23.5 -67t-66.5 -23h-206zM125 76h116q20 0 20 20v508q0 20 -20 20h-116v-548z" />
    <glyph glyph-name="dcaron" unicode="&#x10f;" horiz-adv-x="425" 
d="M128 -4q-44 0 -67 23t-23 67v388q0 44 23 67t67 23h68l40 -50v206h76v-720h-76v46l-40 -50h-68zM349 580v140h76l-30 -140h-46zM130 66h106v428h-106q-16 0 -16 -16v-396q0 -16 16 -16z" />
    <glyph glyph-name="Dcroat" unicode="&#x110;" horiz-adv-x="399" 
d="M10 312v76h50v312h206q44 0 67 -23t23 -67v-520q0 -44 -23 -67t-67 -23h-206v312h-50zM140 76h116q20 0 20 20v508q0 20 -20 20h-116v-236h70v-76h-70v-236z" />
    <glyph glyph-name="dcroat" unicode="&#x111;" horiz-adv-x="349" 
d="M38 86v388q0 44 23 67t67 23h68l40 -50v96h-80v50h80v60h76v-60h30v-50h-30v-610h-76v46l-40 -50h-68q-44 0 -67 23t-23 67zM114 82q0 -16 16 -16h106v428h-106q-16 0 -16 -16v-396z" />
    <glyph glyph-name="Emacron" unicode="&#x112;" horiz-adv-x="314" 
d="M79 774v60h166v-60h-166zM45 0v700h242v-76h-162v-230h156v-76h-156v-242h166v-76h-246z" />
    <glyph glyph-name="emacron" unicode="&#x113;" horiz-adv-x="349" 
d="M92 634v60h166v-60h-166zM38 86v388q0 44 23 67t67 23h94q44 0 67 -23t23 -67v-223h-198v-169q0 -16 16 -16h90q16 0 16 16v97h76v-93q0 -44 -23 -67t-67 -23h-94q-44 0 -67 23t-23 67zM114 321h122v157q0 16 -16 16h-90q-16 0 -16 -16v-157z" />
    <glyph glyph-name="Edotaccent" unicode="&#x116;" horiz-adv-x="314" 
d="M124 774v80h76v-80h-76zM45 0v700h242v-76h-162v-230h156v-76h-156v-242h166v-76h-246z" />
    <glyph glyph-name="edotaccent" unicode="&#x117;" horiz-adv-x="349" 
d="M137 628v80h76v-80h-76zM38 86v388q0 44 23 67t67 23h94q44 0 67 -23t23 -67v-223h-198v-169q0 -16 16 -16h90q16 0 16 16v97h76v-93q0 -44 -23 -67t-67 -23h-94q-44 0 -67 23t-23 67zM114 321h122v157q0 16 -16 16h-90q-16 0 -16 -16v-157z" />
    <glyph glyph-name="Eogonek" unicode="&#x118;" horiz-adv-x="314" 
d="M291 76v-76l-53 -105h53v-60h-54q-42 0 -55 29t5 60l38 76h-180v700h242v-76h-162v-230h156v-76h-156v-242h166z" />
    <glyph glyph-name="eogonek" unicode="&#x119;" horiz-adv-x="349" 
d="M219 -175q-39 0 -50.5 26.5t10.5 72.5l36 72h-87q-44 0 -67 23t-23 67v388q0 44 23 67t67 23h94q44 0 67 -23t23 -67v-223h-198v-169q0 -16 16 -16h90q16 0 16 16v97h76v-93q0 -31 -12 -52l-70 -139h53v-70h-64zM114 321h122v157q0 16 -16 16h-90q-16 0 -16 -16v-157z
" />
    <glyph glyph-name="Ecaron" unicode="&#x11a;" horiz-adv-x="314" 
d="M69 884h54l42 -64l42 64h54l-54 -110h-84zM45 0v700h242v-76h-162v-230h156v-76h-156v-242h166v-76h-246z" />
    <glyph glyph-name="ecaron" unicode="&#x11b;" horiz-adv-x="349" 
d="M72 720h54l42 -64l42 64h54l-54 -110h-84zM38 86v388q0 44 23 67t67 23h94q44 0 67 -23t23 -67v-223h-198v-169q0 -16 16 -16h90q16 0 16 16v97h76v-93q0 -44 -23 -67t-67 -23h-94q-44 0 -67 23t-23 67zM114 321h122v157q0 16 -16 16h-90q-16 0 -16 -16v-157z" />
    <glyph glyph-name="Gcircumflex" unicode="&#x11c;" horiz-adv-x="381" 
d="M94 774l54 110h84l54 -110h-54l-42 64l-42 -64h-54zM133 -4q-43 0 -66.5 23t-23.5 67v528q0 44 23.5 67t66.5 23h116q43 0 66.5 -23t23.5 -67v-174h-80v168q0 20 -20 20h-96q-20 0 -20 -20v-516q0 -20 20 -20h116v212h-70v76h150v-360h-80v46l-40 -50h-86z" />
    <glyph glyph-name="gcircumflex" unicode="&#x11d;" horiz-adv-x="352" 
d="M77 610l54 110h84l54 -110h-54l-42 64l-42 -64h-54zM38 100v374q0 44 23 67t67 23h68l40 -50v46h76v-634q0 -44 -23 -67t-67 -23h-88q-44 0 -67 23t-23 67v31h76v-35q0 -16 16 -16h84q16 0 16 16v138l-40 -50h-68q-44 0 -67 23t-23 67zM114 96q0 -16 16 -16h106v414h-106
q-16 0 -16 -16v-382z" />
    <glyph glyph-name="Gbreve" unicode="&#x11e;" horiz-adv-x="381" 
d="M190 770q-41 0 -70.5 29.5t-29.5 70.5h50q0 -21 14.5 -35.5t35.5 -14.5t35.5 14.5t14.5 35.5h50q0 -41 -29.5 -70.5t-70.5 -29.5zM133 -4q-43 0 -66.5 23t-23.5 67v528q0 44 23.5 67t66.5 23h116q43 0 66.5 -23t23.5 -67v-174h-80v168q0 20 -20 20h-96q-20 0 -20 -20
v-516q0 -20 20 -20h116v212h-70v76h150v-360h-80v46l-40 -50h-86z" />
    <glyph glyph-name="gbreve" unicode="&#x11f;" horiz-adv-x="352" 
d="M173 610q-41 0 -70.5 29.5t-29.5 70.5h55q0 -19 13 -32t32 -13t32 13t13 32h55q0 -41 -29.5 -70.5t-70.5 -29.5zM38 100v374q0 44 23 67t67 23h68l40 -50v46h76v-634q0 -44 -23 -67t-67 -23h-88q-44 0 -67 23t-23 67v31h76v-35q0 -16 16 -16h84q16 0 16 16v138l-40 -50
h-68q-44 0 -67 23t-23 67zM114 96q0 -16 16 -16h106v414h-106q-16 0 -16 -16v-382z" />
    <glyph glyph-name="Gdotaccent" unicode="&#x120;" horiz-adv-x="381" 
d="M152 774v80h76v-80h-76zM133 -4q-43 0 -66.5 23t-23.5 67v528q0 44 23.5 67t66.5 23h116q43 0 66.5 -23t23.5 -67v-174h-80v168q0 20 -20 20h-96q-20 0 -20 -20v-516q0 -20 20 -20h116v212h-70v76h150v-360h-80v46l-40 -50h-86z" />
    <glyph glyph-name="gdotaccent" unicode="&#x121;" horiz-adv-x="352" 
d="M135 628v80h76v-80h-76zM38 100v374q0 44 23 67t67 23h68l40 -50v46h76v-634q0 -44 -23 -67t-67 -23h-88q-44 0 -67 23t-23 67v31h76v-35q0 -16 16 -16h84q16 0 16 16v138l-40 -50h-68q-44 0 -67 23t-23 67zM114 96q0 -16 16 -16h106v414h-106q-16 0 -16 -16v-382z" />
    <glyph glyph-name="Gcommaaccent" unicode="&#x122;" horiz-adv-x="381" 
d="M133 -4q-43 0 -66.5 23t-23.5 67v528q0 44 23.5 67t66.5 23h116q43 0 66.5 -23t23.5 -67v-174h-80v168q0 20 -20 20h-96q-20 0 -20 -20v-516q0 -20 20 -20h116v212h-70v76h150v-360h-80v46l-40 -50h-86zM157 -194v30q31 0 31 37h-31v67h66v-59q0 -34 -16.5 -54.5
t-49.5 -20.5z" />
    <glyph glyph-name="gcommaaccent" unicode="&#x123;" horiz-adv-x="352" 
d="M127 610v59q0 34 16.5 54.5t49.5 20.5v-30q-31 0 -31 -37h31v-67h-66zM38 100v374q0 44 23 67t67 23h68l40 -50v46h76v-634q0 -44 -23 -67t-67 -23h-88q-44 0 -67 23t-23 67v31h76v-35q0 -16 16 -16h84q16 0 16 16v138l-40 -50h-68q-44 0 -67 23t-23 67zM114 96
q0 -16 16 -16h106v414h-106q-16 0 -16 -16v-382z" />
    <glyph glyph-name="Hcircumflex" unicode="&#x124;" horiz-adv-x="386" 
d="M97 774l54 110h84l54 -110h-54l-42 64l-42 -64h-54zM45 0v700h80v-314h136v314h80v-700h-80v310h-136v-310h-80z" />
    <glyph glyph-name="hcircumflex" unicode="&#x125;" horiz-adv-x="354" 
d="M-18 750l54 110h84l54 -110h-54l-42 64l-42 -64h-54zM40 0v720h76v-206l40 50h79q38 0 58.5 -23t20.5 -67v-474h-76v478q0 16 -16 16h-106v-494h-76z" />
    <glyph glyph-name="Hbar" unicode="&#x126;" horiz-adv-x="396" 
d="M8 512v60h42v128h80v-128h136v128h80v-128h42v-60h-42v-512h-80v310h-136v-310h-80v512h-42zM130 386h136v126h-136v-126z" />
    <glyph glyph-name="hbar" unicode="&#x127;" horiz-adv-x="354" 
d="M10 610v50h30v60h76v-60h80v-50h-80v-96l40 50h68q44 0 67 -23t23 -67v-474h-76v478q0 16 -16 16h-106v-494h-76v610h-30z" />
    <glyph glyph-name="Itilde" unicode="&#x128;" horiz-adv-x="170" 
d="M130 765q-22 0 -52 15t-44 15q-12 0 -18 -8t-6 -17h-30q0 10 1.5 20t6 27t18.5 27.5t34 10.5q22 0 52 -15t44 -15q12 0 18 8t6 17h30q0 -10 -1.5 -20t-6 -27t-18.5 -27.5t-34 -10.5zM45 0v700h80v-700h-80z" />
    <glyph glyph-name="itilde" unicode="&#x129;" horiz-adv-x="156" 
d="M123 625q-22 0 -52 15t-44 15q-12 0 -18 -8t-6 -17h-30q0 10 1.5 20t6 27t18.5 27.5t34 10.5q22 0 52 -15t44 -15q12 0 18 8t6 17h30q0 -10 -1.5 -20t-6 -27t-18.5 -27.5t-34 -10.5zM40 0v560h76v-560h-76z" />
    <glyph glyph-name="Imacron" unicode="&#x12a;" horiz-adv-x="170" 
d="M2 774v60h166v-60h-166zM45 0v700h80v-700h-80z" />
    <glyph glyph-name="imacron" unicode="&#x12b;" horiz-adv-x="156" 
d="M-5 634v60h166v-60h-166zM40 0v560h76v-560h-76z" />
    <glyph glyph-name="Iogonek" unicode="&#x12e;" horiz-adv-x="170" 
d="M125 700v-700l-53 -105h53v-60h-54q-42 0 -55 29t5 60l38 76h-14v700h80z" />
    <glyph glyph-name="iogonek" unicode="&#x12f;" horiz-adv-x="156" 
d="M40 720h76v-80h-76v80zM40 0v560h76v-560l-53 -105h53v-60h-54q-42 0 -55 29t5 60l38 76h-10z" />
    <glyph glyph-name="Idotaccent" unicode="&#x130;" horiz-adv-x="170" 
d="M47 774v80h76v-80h-76zM45 0v700h80v-700h-80z" />
    <glyph glyph-name="dotlessi" unicode="&#x131;" horiz-adv-x="156" 
d="M40 0v560h76v-560h-76z" />
    <glyph glyph-name="IJ" unicode="&#x132;" horiz-adv-x="430" 
d="M45 0v700h80v-700h-80zM190 -4v76h96q20 0 20 20v532h-116v76h196v-614q0 -44 -23 -67t-67 -23h-106z" />
    <glyph glyph-name="ij" unicode="&#x133;" horiz-adv-x="313" 
d="M40 640v80h76v-80h-76zM197 640v80h76v-80h-76zM40 0v560h76v-560h-76zM139 -160v70h42q16 0 16 16v634h76v-630q0 -44 -23.5 -67t-66.5 -23h-44z" />
    <glyph glyph-name="Jcircumflex" unicode="&#x134;" horiz-adv-x="260" 
d="M40 774l54 110h84l54 -110h-54l-42 64l-42 -64h-54zM20 -4v76h96q20 0 20 20v532h-116v76h196v-614q0 -44 -23 -67t-67 -23h-106z" />
    <glyph glyph-name="jcircumflex" unicode="&#x135;" horiz-adv-x="156" 
d="M-18 610l54 110h84l54 -110h-54l-42 64l-42 -64h-54zM-17 -160v70h42q16 0 16 16v634h76v-630q0 -44 -23.5 -67t-66.5 -23h-44z" />
    <glyph glyph-name="Kcommaaccent" unicode="&#x136;" horiz-adv-x="360" 
d="M45 0v700h80v-343l147 343h80l-150 -350l150 -350h-80l-147 343v-343h-80zM147 -194v30q31 0 31 37h-31v67h66v-59q0 -34 -16.5 -54.5t-49.5 -20.5z" />
    <glyph glyph-name="kcommaaccent" unicode="&#x137;" horiz-adv-x="351" 
d="M40 0v720h76v-429l143 269h82l-144 -270l144 -290h-82l-143 289v-289h-76zM142 -194v30q31 0 31 37h-31v67h66v-59q0 -34 -16.5 -54.5t-49.5 -20.5z" />
    <glyph glyph-name="Lacute" unicode="&#x139;" horiz-adv-x="302" 
d="M61 774l54 110h82l-72 -110h-64zM45 0v700h80v-624h162v-76h-242z" />
    <glyph glyph-name="lacute" unicode="&#x13a;" horiz-adv-x="156" 
d="M52 774l54 110h82l-72 -110h-64zM40 0v720h76v-720h-76z" />
    <glyph glyph-name="Lcommaaccent" unicode="&#x13b;" horiz-adv-x="302" 
d="M45 0v700h80v-624h162v-76h-242zM124 -194v30q31 0 31 37h-31v67h66v-59q0 -34 -16.5 -54.5t-49.5 -20.5z" />
    <glyph glyph-name="lcommaaccent" unicode="&#x13c;" horiz-adv-x="156" 
d="M40 0v720h76v-720h-76zM45 -194v30q31 0 31 37h-31v67h66v-59q0 -34 -16.5 -54.5t-49.5 -20.5z" />
    <glyph glyph-name="Lcaron" unicode="&#x13d;" horiz-adv-x="302" 
d="M45 0v700h80v-624h162v-76h-242zM165 560v140h80l-30 -140h-50z" />
    <glyph glyph-name="lcaron" unicode="&#x13e;" horiz-adv-x="252" 
d="M40 0v720h76v-720h-76zM166 580v140h76l-30 -140h-46z" />
    <glyph glyph-name="Ldot" unicode="&#x13f;" horiz-adv-x="302" 
d="M45 0v700h80v-624h162v-76h-242zM205 300v110h78v-110h-78z" />
    <glyph glyph-name="ldot" unicode="&#x140;" horiz-adv-x="252" 
d="M40 0v720h76v-720h-76zM164 300v110h78v-110h-78z" />
    <glyph glyph-name="Lslash" unicode="&#x141;" horiz-adv-x="327" 
d="M10 260v76l60 29v335h80v-297l90 43v-76l-90 -43v-251h162v-76h-242v289z" />
    <glyph glyph-name="lslash" unicode="&#x142;" horiz-adv-x="206" 
d="M10 306v50l45 19v345h76v-312l65 28v-50l-65 -28v-358h-76v325z" />
    <glyph glyph-name="Nacute" unicode="&#x143;" horiz-adv-x="400" 
d="M168 774l54 110h82l-72 -110h-64zM45 0v700h80l150 -354v354h80v-700h-80v162l-150 354v-516h-80z" />
    <glyph glyph-name="nacute" unicode="&#x144;" horiz-adv-x="354" 
d="M145 610l54 110h82l-72 -110h-64zM40 0v560h76v-46l40 50h68q44 0 67 -23t23 -67v-474h-76v478q0 16 -16 16h-106v-494h-76z" />
    <glyph glyph-name="Ncommaaccent" unicode="&#x145;" horiz-adv-x="400" 
d="M45 0v700h80l150 -354v354h80v-700h-80v162l-150 354v-516h-80zM167 -194v30q31 0 31 37h-31v67h66v-59q0 -34 -16.5 -54.5t-49.5 -20.5z" />
    <glyph glyph-name="ncommaaccent" unicode="&#x146;" horiz-adv-x="354" 
d="M40 0v560h76v-46l40 50h68q44 0 67 -23t23 -67v-474h-76v478q0 16 -16 16h-106v-494h-76zM144 -194v30q31 0 31 37h-31v67h66v-59q0 -34 -16.5 -54.5t-49.5 -20.5z" />
    <glyph glyph-name="Ncaron" unicode="&#x147;" horiz-adv-x="400" 
d="M104 884h54l42 -64l42 64h54l-54 -110h-84zM45 0v700h80l150 -354v354h80v-700h-80v162l-150 354v-516h-80z" />
    <glyph glyph-name="ncaron" unicode="&#x148;" horiz-adv-x="354" 
d="M81 720h54l42 -64l42 64h54l-54 -110h-84zM40 0v560h76v-46l40 50h68q44 0 67 -23t23 -67v-474h-76v478q0 16 -16 16h-106v-494h-76z" />
    <glyph glyph-name="Eng" unicode="&#x14a;" horiz-adv-x="399" 
d="M45 0v700h80l150 -354v354h80v-746q0 -58 -30.5 -89t-89.5 -31h-76v76h76q40 0 40 40v212l-150 354v-516h-80z" />
    <glyph glyph-name="eng" unicode="&#x14b;" horiz-adv-x="354" 
d="M40 0v560h76v-46l40 50h68q44 0 67 -23t23 -67v-544q0 -44 -23 -67t-67 -23h-44v70h42q16 0 16 16v552q0 16 -16 16h-106v-494h-76z" />
    <glyph glyph-name="Omacron" unicode="&#x14c;" horiz-adv-x="384" 
d="M109 774v60h166v-60h-166zM133 -4q-43 0 -66.5 23t-23.5 67v528q0 44 23.5 67t66.5 23h118q43 0 66.5 -23t23.5 -67v-528q0 -44 -23.5 -67t-66.5 -23h-118zM143 72h98q20 0 20 20v516q0 20 -20 20h-98q-20 0 -20 -20v-516q0 -20 20 -20z" />
    <glyph glyph-name="omacron" unicode="&#x14d;" horiz-adv-x="350" 
d="M90 634v60h166v-60h-166zM128 -4q-44 0 -67 23t-23 67v388q0 44 23 67t67 23h94q44 0 67 -23t23 -67v-388q0 -44 -23 -67t-67 -23h-94zM130 66h90q16 0 16 16v396q0 16 -16 16h-90q-16 0 -16 -16v-396q0 -16 16 -16z" />
    <glyph glyph-name="Ohungarumlaut" unicode="&#x150;" horiz-adv-x="384" 
d="M115 774l44 110h74l-62 -110h-56zM213 774l44 110h74l-62 -110h-56zM133 -4q-43 0 -66.5 23t-23.5 67v528q0 44 23.5 67t66.5 23h118q43 0 66.5 -23t23.5 -67v-528q0 -44 -23.5 -67t-66.5 -23h-118zM143 72h98q20 0 20 20v516q0 20 -20 20h-98q-20 0 -20 -20v-516
q0 -20 20 -20z" />
    <glyph glyph-name="ohungarumlaut" unicode="&#x151;" horiz-adv-x="353" 
d="M99 610l44 110h74l-62 -110h-56zM197 610l44 110h74l-62 -110h-56zM128 -4q-44 0 -67 23t-23 67v388q0 44 23 67t67 23h94q44 0 67 -23t23 -67v-388q0 -44 -23 -67t-67 -23h-94zM130 66h90q16 0 16 16v396q0 16 -16 16h-90q-16 0 -16 -16v-396q0 -16 16 -16z" />
    <glyph glyph-name="OE" unicode="&#x152;" horiz-adv-x="528" 
d="M43 90v520q0 44 23.5 67t66.5 23h368v-76h-162v-230h156v-76h-156v-242h166v-76h-372q-43 0 -66.5 23t-23.5 67zM123 96q0 -20 20 -20h116v548h-116q-20 0 -20 -20v-508z" />
    <glyph glyph-name="oe" unicode="&#x153;" horiz-adv-x="543" 
d="M128 -4q-44 0 -67 23t-23 67v388q0 44 23 67t67 23h102l40 -48l40 48h106q44 0 67 -23t23 -67v-223h-198v-169q0 -16 16 -16h90q16 0 16 16v97h76v-93q0 -44 -23 -67t-67 -23h-106l-40 48l-40 -48h-102zM130 66h86q16 0 16 16v396q0 16 -16 16h-86q-16 0 -16 -16v-396
q0 -16 16 -16zM308 321h122v157q0 16 -16 16h-90q-16 0 -16 -16v-157z" />
    <glyph glyph-name="Racute" unicode="&#x154;" horiz-adv-x="375" 
d="M134 774l54 110h82l-72 -110h-64zM45 0v700h202q43 0 66.5 -23t23.5 -67v-230q0 -76 -66 -88l76 -292h-80l-75 290h-67v-290h-80zM125 366h112q20 0 20 20v218q0 20 -20 20h-112v-258z" />
    <glyph glyph-name="racute" unicode="&#x155;" horiz-adv-x="239" 
d="M88 610l54 110h82l-72 -110h-64zM40 0v560h76v-50l40 50h73v-70h-113v-490h-76z" />
    <glyph glyph-name="Rcommaaccent" unicode="&#x156;" horiz-adv-x="375" 
d="M45 0v700h202q43 0 66.5 -23t23.5 -67v-230q0 -76 -66 -88l76 -292h-80l-75 290h-67v-290h-80zM125 366h112q20 0 20 20v218q0 20 -20 20h-112v-258zM153 -194v30q31 0 31 37h-31v67h66v-59q0 -34 -16.5 -54.5t-49.5 -20.5z" />
    <glyph glyph-name="rcommaaccent" unicode="&#x157;" horiz-adv-x="239" 
d="M40 0v560h76v-50l40 50h73v-70h-113v-490h-76zM40 -194v30q31 0 31 37h-31v67h66v-59q0 -34 -16.5 -54.5t-49.5 -20.5z" />
    <glyph glyph-name="Rcaron" unicode="&#x158;" horiz-adv-x="375" 
d="M70 884h54l42 -64l42 64h54l-54 -110h-84zM45 0v700h202q43 0 66.5 -23t23.5 -67v-230q0 -76 -66 -88l76 -292h-80l-75 290h-67v-290h-80zM125 366h112q20 0 20 20v218q0 20 -20 20h-112v-258z" />
    <glyph glyph-name="rcaron" unicode="&#x159;" horiz-adv-x="239" 
d="M24 720h54l42 -64l42 64h54l-54 -110h-84zM40 0v560h76v-50l40 50h73v-70h-113v-490h-76z" />
    <glyph glyph-name="Sacute" unicode="&#x15a;" horiz-adv-x="372" 
d="M155 774l54 110h82l-72 -110h-64zM128 -4q-44 0 -67 23t-23 67v174h80v-168q0 -20 20 -20h96q20 0 20 20v155q0 15 -12 24l-164 119q-37 27 -37 73v151q0 44 23.5 67t66.5 23h110q43 0 66.5 -23t23.5 -67v-164h-80v158q0 20 -20 20h-90q-20 0 -20 -20v-137q0 -15 12 -24
l164 -118q37 -27 37 -73v-170q0 -44 -23 -67t-67 -23h-116z" />
    <glyph glyph-name="sacute" unicode="&#x15b;" horiz-adv-x="338" 
d="M135 610l54 110h82l-72 -110h-64zM122 -4q-44 0 -67 23t-23 67v114h76v-118q0 -16 16 -16h90q16 0 16 16v93q0 11 -9 19l-154 121q-35 28 -35 73v86q0 44 23 67t67 23h91q43 0 66.5 -23t23.5 -67v-112h-76v116q0 16 -16 16h-87q-16 0 -16 -16v-87q0 -11 10 -19l152 -120
q36 -29 36 -73v-93q0 -44 -23 -67t-67 -23h-94z" />
    <glyph glyph-name="Scircumflex" unicode="&#x15c;" horiz-adv-x="372" 
d="M91 774l54 110h84l54 -110h-54l-42 64l-42 -64h-54zM128 -4q-44 0 -67 23t-23 67v174h80v-168q0 -20 20 -20h96q20 0 20 20v155q0 15 -12 24l-164 119q-37 27 -37 73v151q0 44 23.5 67t66.5 23h110q43 0 66.5 -23t23.5 -67v-164h-80v158q0 20 -20 20h-90q-20 0 -20 -20
v-137q0 -15 12 -24l164 -118q37 -27 37 -73v-170q0 -44 -23 -67t-67 -23h-116z" />
    <glyph glyph-name="scircumflex" unicode="&#x15d;" horiz-adv-x="338" 
d="M71 610l54 110h84l54 -110h-54l-42 64l-42 -64h-54zM122 -4q-44 0 -67 23t-23 67v114h76v-118q0 -16 16 -16h90q16 0 16 16v93q0 11 -9 19l-154 121q-35 28 -35 73v86q0 44 23 67t67 23h91q43 0 66.5 -23t23.5 -67v-112h-76v116q0 16 -16 16h-87q-16 0 -16 -16v-87
q0 -11 10 -19l152 -120q36 -29 36 -73v-93q0 -44 -23 -67t-67 -23h-94z" />
    <glyph glyph-name="Scedilla" unicode="&#x15e;" horiz-adv-x="372" 
d="M297 329q37 -27 37 -73v-170q0 -44 -23 -67t-67 -23h-26l-23 -106h-82l40 106h-25q-44 0 -67 23t-23 67v174h80v-168q0 -20 20 -20h96q20 0 20 20v155q0 15 -12 24l-164 119q-37 27 -37 73v151q0 44 23.5 67t66.5 23h110q43 0 66.5 -23t23.5 -67v-164h-80v158
q0 20 -20 20h-90q-20 0 -20 -20v-137q0 -15 12 -24z" />
    <glyph glyph-name="scedilla" unicode="&#x15f;" horiz-adv-x="338" 
d="M270 252q36 -29 36 -73v-93q0 -44 -23 -67t-67 -23h-16l-23 -106h-82l40 106h-13q-44 0 -67 23t-23 67v114h76v-118q0 -16 16 -16h90q16 0 16 16v93q0 11 -9 19l-154 121q-35 28 -35 73v86q0 44 23 67t67 23h91q43 0 66.5 -23t23.5 -67v-112h-76v116q0 16 -16 16h-87
q-16 0 -16 -16v-87q0 -11 10 -19z" />
    <glyph glyph-name="Scaron" unicode="&#x160;" horiz-adv-x="372" 
d="M91 884h54l42 -64l42 64h54l-54 -110h-84zM128 -4q-44 0 -67 23t-23 67v174h80v-168q0 -20 20 -20h96q20 0 20 20v155q0 15 -12 24l-164 119q-37 27 -37 73v151q0 44 23.5 67t66.5 23h110q43 0 66.5 -23t23.5 -67v-164h-80v158q0 20 -20 20h-90q-20 0 -20 -20v-137
q0 -15 12 -24l164 -118q37 -27 37 -73v-170q0 -44 -23 -67t-67 -23h-116z" />
    <glyph glyph-name="scaron" unicode="&#x161;" horiz-adv-x="338" 
d="M71 720h54l42 -64l42 64h54l-54 -110h-84zM122 -4q-44 0 -67 23t-23 67v114h76v-118q0 -16 16 -16h90q16 0 16 16v93q0 11 -9 19l-154 121q-35 28 -35 73v86q0 44 23 67t67 23h91q43 0 66.5 -23t23.5 -67v-112h-76v116q0 16 -16 16h-87q-16 0 -16 -16v-87q0 -11 10 -19
l152 -120q36 -29 36 -73v-93q0 -44 -23 -67t-67 -23h-94z" />
    <glyph glyph-name="uni0162" unicode="&#x162;" horiz-adv-x="316" 
d="M15 700h286v-76h-103v-624h-8l-24 -110h-82l42 110h-8v624h-103v76z" />
    <glyph glyph-name="uni0163" unicode="&#x163;" horiz-adv-x="217" 
d="M10 490v70h50v96h76v-96h76v-70h-76v-408q0 -16 16 -16h40v-70h-31l-23 -106h-82l45 117q-41 20 -41 79v404h-50z" />
    <glyph glyph-name="Tcaron" unicode="&#x164;" horiz-adv-x="316" 
d="M62 884h54l42 -64l42 64h54l-54 -110h-84zM15 624v76h286v-76h-103v-624h-80v624h-103z" />
    <glyph glyph-name="tcaron" unicode="&#x165;" horiz-adv-x="227" 
d="M176 600v140h76l-30 -140h-46zM10 490v70h50v96h76v-96h76v-70h-76v-408q0 -16 16 -16h40v-70h-42q-44 0 -67 23t-23 67v404h-50z" />
    <glyph glyph-name="Tbar" unicode="&#x166;" horiz-adv-x="316" 
d="M15 624v76h286v-76h-103v-214h76v-60h-76v-350h-80v350h-76v60h76v214h-103z" />
    <glyph glyph-name="tbar" unicode="&#x167;" horiz-adv-x="217" 
d="M150 -4q-44 0 -67 23t-23 67v204h-50v50h50v150h-50v70h50v96h76v-96h76v-70h-76v-150h76v-50h-76v-208q0 -16 16 -16h40v-70h-42z" />
    <glyph glyph-name="Utilde" unicode="&#x168;" horiz-adv-x="384" 
d="M238 765q-22 0 -52 15t-44 15q-12 0 -18 -8t-6 -17h-30q0 10 1.5 20t6 27t18.5 27.5t34 10.5q22 0 52 -15t44 -15q12 0 18 8t6 17h30q0 -10 -1.5 -20t-6 -27t-18.5 -27.5t-34 -10.5zM134 -4q-44 0 -67 23t-23 67v614h80v-608q0 -20 20 -20h96q20 0 20 20v608h80v-614
q0 -44 -23 -67t-67 -23h-116z" />
    <glyph glyph-name="utilde" unicode="&#x169;" horiz-adv-x="349" 
d="M217 625q-22 0 -52 15t-44 15q-12 0 -18 -8t-6 -17h-30q0 10 1.5 20t6 27t18.5 27.5t34 10.5q22 0 52 -15t44 -15q12 0 18 8t6 17h30q0 -10 -1.5 -20t-6 -27t-18.5 -27.5t-34 -10.5zM35 86v474h76v-478q0 -16 16 -16h106v494h76v-560h-76v46l-40 -50h-68q-43 0 -66.5 23
t-23.5 67z" />
    <glyph glyph-name="Umacron" unicode="&#x16a;" horiz-adv-x="384" 
d="M110 774v60h166v-60h-166zM134 -4q-44 0 -67 23t-23 67v614h80v-608q0 -20 20 -20h96q20 0 20 20v608h80v-614q0 -44 -23 -67t-67 -23h-116z" />
    <glyph glyph-name="umacron" unicode="&#x16b;" horiz-adv-x="349" 
d="M89 634v60h166v-60h-166zM35 86v474h76v-478q0 -16 16 -16h106v494h76v-560h-76v46l-40 -50h-68q-43 0 -66.5 23t-23.5 67z" />
    <glyph glyph-name="Ubreve" unicode="&#x16c;" horiz-adv-x="384" 
d="M193 770q-41 0 -70.5 29.5t-29.5 70.5h50q0 -21 14.5 -35.5t35.5 -14.5t35.5 14.5t14.5 35.5h50q0 -41 -29.5 -70.5t-70.5 -29.5zM134 -4q-44 0 -67 23t-23 67v614h80v-608q0 -20 20 -20h96q20 0 20 20v608h80v-614q0 -44 -23 -67t-67 -23h-116z" />
    <glyph glyph-name="ubreve" unicode="&#x16d;" horiz-adv-x="349" 
d="M172 610q-41 0 -70.5 29.5t-29.5 70.5h55q0 -19 13 -32t32 -13t32 13t13 32h55q0 -41 -29.5 -70.5t-70.5 -29.5zM35 86v474h76v-478q0 -16 16 -16h106v494h76v-560h-76v46l-40 -50h-68q-43 0 -66.5 23t-23.5 67z" />
    <glyph glyph-name="Uring" unicode="&#x16e;" horiz-adv-x="384" 
d="M193 770q-33 0 -56.5 23.5t-23.5 56.5t23.5 56.5t56.5 23.5t56.5 -23.5t23.5 -56.5t-23.5 -56.5t-56.5 -23.5zM193 810q17 0 28.5 12t11.5 28t-11.5 28t-28.5 12t-28.5 -12t-11.5 -28t11.5 -28t28.5 -12zM134 -4q-44 0 -67 23t-23 67v614h80v-608q0 -20 20 -20h96
q20 0 20 20v608h80v-614q0 -44 -23 -67t-67 -23h-116z" />
    <glyph glyph-name="uring" unicode="&#x16f;" horiz-adv-x="349" 
d="M172 610q-33 0 -56.5 23.5t-23.5 56.5t23.5 56.5t56.5 23.5t56.5 -23.5t23.5 -56.5t-23.5 -56.5t-56.5 -23.5zM172 650q16 0 28 12t12 28t-12 28t-28 12t-28 -12t-12 -28t12 -28t28 -12zM35 86v474h76v-478q0 -16 16 -16h106v494h76v-560h-76v46l-40 -50h-68
q-43 0 -66.5 23t-23.5 67z" />
    <glyph glyph-name="Uhungarumlaut" unicode="&#x170;" horiz-adv-x="384" 
d="M116 774l44 110h74l-62 -110h-56zM214 774l44 110h74l-62 -110h-56zM134 -4q-44 0 -67 23t-23 67v614h80v-608q0 -20 20 -20h96q20 0 20 20v608h80v-614q0 -44 -23 -67t-67 -23h-116z" />
    <glyph glyph-name="uhungarumlaut" unicode="&#x171;" horiz-adv-x="349" 
d="M95 610l44 110h74l-62 -110h-56zM193 610l44 110h74l-62 -110h-56zM35 86v474h76v-478q0 -16 16 -16h106v494h76v-560h-76v46l-40 -50h-68q-43 0 -66.5 23t-23.5 67z" />
    <glyph glyph-name="Uogonek" unicode="&#x172;" horiz-adv-x="384" 
d="M260 700h80v-614q0 -71 -58 -86l-53 -105h53v-60h-54q-42 0 -55 29t5 60l36 72h-80q-44 0 -67 23t-23 67v614h80v-608q0 -20 20 -20h96q20 0 20 20v608z" />
    <glyph glyph-name="uogonek" unicode="&#x173;" horiz-adv-x="349" 
d="M309 560v-560l-53 -105h53v-60h-54q-42 0 -55 29t5 60l38 76h-10v46l-40 -50h-68q-43 0 -66.5 23t-23.5 67v474h76v-478q0 -16 16 -16h106v494h76z" />
    <glyph glyph-name="Wcircumflex" unicode="&#x174;" horiz-adv-x="570" 
d="M189 774l54 110h84l54 -110h-54l-42 64l-42 -64h-54zM10 700h80l81 -598l56 598h116l56 -598l81 598h80l-105 -700h-114l-56 579l-56 -579h-114z" />
    <glyph glyph-name="wcircumflex" unicode="&#x175;" horiz-adv-x="536" 
d="M172 610l54 110h84l54 -110h-54l-42 64l-42 -64h-54zM7 560h76l65 -499l67 499h106l67 -499l65 499h76l-81 -560h-116l-64 478l-64 -478h-116z" />
    <glyph glyph-name="Ycircumflex" unicode="&#x176;" horiz-adv-x="354" 
d="M81 774l54 110h84l54 -110h-54l-42 64l-42 -64h-54zM7 700h80l90 -321l90 321h80l-130 -450v-250h-80v250z" />
    <glyph glyph-name="ycircumflex" unicode="&#x177;" horiz-adv-x="324" 
d="M66 610l54 110h84l54 -110h-54l-42 64l-42 -64h-54zM7 560h80l75 -506l75 506h80l-93 -560l-27 -160h-80l29 160h-46z" />
    <glyph glyph-name="Ydieresis" unicode="&#x178;" horiz-adv-x="354" 
d="M83 774v80h70v-80h-70zM201 774v80h70v-80h-70zM7 700h80l90 -321l90 321h80l-130 -450v-250h-80v250z" />
    <glyph glyph-name="Zacute" unicode="&#x179;" horiz-adv-x="322" 
d="M129 774l54 110h82l-72 -110h-64zM25 0v76l190 548h-186v76h268v-76l-190 -548h190v-76h-272z" />
    <glyph glyph-name="zacute" unicode="&#x17a;" horiz-adv-x="306" 
d="M121 610l54 110h82l-72 -110h-64zM22 0v70l182 420h-178v70h258v-70l-182 -420h182v-70h-262z" />
    <glyph glyph-name="Zdotaccent" unicode="&#x17b;" horiz-adv-x="322" 
d="M123 774v80h76v-80h-76zM25 0v76l190 548h-186v76h268v-76l-190 -548h190v-76h-272z" />
    <glyph glyph-name="zdotaccent" unicode="&#x17c;" horiz-adv-x="306" 
d="M115 628v80h76v-80h-76zM22 0v70l182 420h-178v70h258v-70l-182 -420h182v-70h-262z" />
    <glyph glyph-name="Zcaron" unicode="&#x17d;" horiz-adv-x="322" 
d="M65 884h54l42 -64l42 64h54l-54 -110h-84zM25 0v76l190 548h-186v76h268v-76l-190 -548h190v-76h-272z" />
    <glyph glyph-name="zcaron" unicode="&#x17e;" horiz-adv-x="306" 
d="M57 720h54l42 -64l42 64h54l-54 -110h-84zM22 0v70l182 420h-178v70h258v-70l-182 -420h182v-70h-262z" />
    <glyph glyph-name="uni018F" unicode="&#x18f;" horiz-adv-x="379" 
d="M40 84v303h216v223q0 20 -20 20h-96q-20 0 -20 -20v-133h-80v139q0 44 23 67t67 23h116q44 0 67 -23t23 -67v-532q0 -44 -23 -67t-67 -23h-116q-44 0 -67 23t-23 67zM120 90q0 -20 20 -20h96q20 0 20 20v221h-136v-221z" />
    <glyph glyph-name="florin" unicode="&#x192;" horiz-adv-x="214" 
d="M-2 -160v70h42q16 0 16 16v564h-46v70h46v70q0 44 23 67t67 23h62v-70h-60q-16 0 -16 -16v-74h76v-70h-76v-560q0 -44 -23 -67t-67 -23h-44z" />
    <glyph glyph-name="uni01CD" unicode="&#x1cd;" horiz-adv-x="374" 
d="M91 884h54l42 -64l42 64h54l-54 -110h-84zM17 0l105 700h130l105 -700h-80l-23 160h-134l-23 -160h-80zM131 236h112l-56 388z" />
    <glyph glyph-name="uni01CE" unicode="&#x1ce;" horiz-adv-x="339" 
d="M69 720h54l42 -64l42 64h54l-54 -110h-84zM115 -4q-90 0 -90 90v114q0 80 74 102l124 38v138q0 16 -16 16h-80q-16 0 -16 -16v-98h-76v94q0 44 23.5 67t66.5 23h84q43 0 66.5 -23t23.5 -67v-474h-76v46l-40 -50h-68zM117 66h106v199l-109 -33q-13 -4 -13 -18v-132
q0 -16 16 -16z" />
    <glyph glyph-name="uni01CF" unicode="&#x1cf;" horiz-adv-x="170" 
d="M-11 884h54l42 -64l42 64h54l-54 -110h-84zM45 0v700h80v-700h-80z" />
    <glyph glyph-name="uni01D0" unicode="&#x1d0;" horiz-adv-x="156" 
d="M-18 720h54l42 -64l42 64h54l-54 -110h-84zM40 0v560h76v-560h-76z" />
    <glyph glyph-name="Gcaron" unicode="&#x1e6;" horiz-adv-x="381" 
d="M94 884h54l42 -64l42 64h54l-54 -110h-84zM133 -4q-43 0 -66.5 23t-23.5 67v528q0 44 23.5 67t66.5 23h116q43 0 66.5 -23t23.5 -67v-174h-80v168q0 20 -20 20h-96q-20 0 -20 -20v-516q0 -20 20 -20h116v212h-70v76h150v-360h-80v46l-40 -50h-86z" />
    <glyph glyph-name="gcaron" unicode="&#x1e7;" horiz-adv-x="352" 
d="M77 720h54l42 -64l42 64h54l-54 -110h-84zM38 100v374q0 44 23 67t67 23h68l40 -50v46h76v-634q0 -44 -23 -67t-67 -23h-88q-44 0 -67 23t-23 67v31h76v-35q0 -16 16 -16h84q16 0 16 16v138l-40 -50h-68q-44 0 -67 23t-23 67zM114 96q0 -16 16 -16h106v414h-106
q-16 0 -16 -16v-382z" />
    <glyph glyph-name="Scommaaccent" unicode="&#x218;" horiz-adv-x="372" 
d="M128 -4q-44 0 -67 23t-23 67v174h80v-168q0 -20 20 -20h96q20 0 20 20v155q0 15 -12 24l-164 119q-37 27 -37 73v151q0 44 23.5 67t66.5 23h110q43 0 66.5 -23t23.5 -67v-164h-80v158q0 20 -20 20h-90q-20 0 -20 -20v-137q0 -15 12 -24l164 -118q37 -27 37 -73v-170
q0 -44 -23 -67t-67 -23h-116zM154 -194v30q31 0 31 37h-31v67h66v-59q0 -34 -16.5 -54.5t-49.5 -20.5z" />
    <glyph glyph-name="scommaaccent" unicode="&#x219;" horiz-adv-x="338" 
d="M122 -4q-44 0 -67 23t-23 67v114h76v-118q0 -16 16 -16h90q16 0 16 16v93q0 11 -9 19l-154 121q-35 28 -35 73v86q0 44 23 67t67 23h91q43 0 66.5 -23t23.5 -67v-112h-76v116q0 16 -16 16h-87q-16 0 -16 -16v-87q0 -11 10 -19l152 -120q36 -29 36 -73v-93q0 -44 -23 -67
t-67 -23h-94zM136 -194v30q31 0 31 37h-31v67h66v-59q0 -34 -16.5 -54.5t-49.5 -20.5z" />
    <glyph glyph-name="uni021A" unicode="&#x21a;" horiz-adv-x="316" 
d="M15 624v76h286v-76h-103v-624h-80v624h-103zM125 -194v30q31 0 31 37h-31v67h66v-59q0 -34 -16.5 -54.5t-49.5 -20.5z" />
    <glyph glyph-name="uni021B" unicode="&#x21b;" horiz-adv-x="227" 
d="M10 490v70h50v96h76v-96h76v-70h-76v-408q0 -16 16 -16h40v-70h-42q-44 0 -67 23t-23 67v404h-50zM75 -194v30q31 0 31 37h-31v67h66v-59q0 -34 -16.5 -54.5t-49.5 -20.5z" />
    <glyph glyph-name="uni0237" unicode="&#x237;" horiz-adv-x="157" 
d="M-17 -160v70h42q16 0 16 16v634h76v-630q0 -44 -23.5 -67t-66.5 -23h-44z" />
    <glyph glyph-name="uni0259" unicode="&#x259;" horiz-adv-x="349" 
d="M311 474v-388q0 -44 -23.5 -67t-66.5 -23h-94q-43 0 -66.5 23t-23.5 67v223h198v169q0 16 -16 16h-90q-16 0 -16 -16v-97h-76v93q0 44 23.5 67t66.5 23h94q43 0 66.5 -23t23.5 -67zM235 239h-122v-157q0 -16 16 -16h90q16 0 16 16v157z" />
    <glyph glyph-name="uni0272" unicode="&#x272;" horiz-adv-x="355" 
d="M-17 -160v70h42q16 0 16 16v634h76v-46l40 50h68q43 0 66.5 -23t23.5 -67v-474h-76v478q0 16 -16 16h-106v-564q0 -44 -23.5 -67t-66.5 -23h-44z" />
    <glyph glyph-name="circumflex" unicode="&#x2c6;" horiz-adv-x="272" 
d="M40 610l54 110h84l54 -110h-54l-42 64l-42 -64h-54z" />
    <glyph glyph-name="caron" unicode="&#x2c7;" horiz-adv-x="272" 
d="M40 720h54l42 -64l42 64h54l-54 -110h-84z" />
    <glyph glyph-name="breve" unicode="&#x2d8;" horiz-adv-x="280" 
d="M140 610q-41 0 -70.5 29.5t-29.5 70.5h55q0 -19 13 -32t32 -13t32 13t13 32h55q0 -41 -29.5 -70.5t-70.5 -29.5z" />
    <glyph glyph-name="dotaccent" unicode="&#x2d9;" horiz-adv-x="156" 
d="M40 628v80h76v-80h-76z" />
    <glyph glyph-name="ring" unicode="&#x2da;" horiz-adv-x="240" 
d="M120 610q-33 0 -56.5 23.5t-23.5 56.5t23.5 56.5t56.5 23.5t56.5 -23.5t23.5 -56.5t-23.5 -56.5t-56.5 -23.5zM120 650q16 0 28 12t12 28t-12 28t-28 12t-28 -12t-12 -28t12 -28t28 -12z" />
    <glyph glyph-name="ogonek" unicode="&#x2db;" horiz-adv-x="193" 
d="M99 -165q-42 0 -55 29t5 60l38 76h66l-53 -105h53v-60h-54z" />
    <glyph glyph-name="tilde" unicode="&#x2dc;" horiz-adv-x="290" 
d="M190 625q-22 0 -52 15t-44 15q-12 0 -18 -8t-6 -17h-30q0 10 1.5 20t6 27t18.5 27.5t34 10.5q22 0 52 -15t44 -15q12 0 18 8t6 17h30q0 -10 -1.5 -20t-6 -27t-18.5 -27.5t-34 -10.5z" />
    <glyph glyph-name="hungarumlaut" unicode="&#x2dd;" horiz-adv-x="294" 
d="M40 610l44 110h74l-62 -110h-56zM138 610l44 110h74l-62 -110h-56z" />
    <glyph glyph-name="gravecomb" unicode="&#x300;" 
d="M-124 610l-72 110h82l54 -110h-64z" />
    <glyph glyph-name="acutecomb" unicode="&#x301;" 
d="M-124 610l54 110h82l-72 -110h-64z" />
    <glyph glyph-name="uni0302" unicode="&#x302;" 
d="M-232 610l54 110h84l54 -110h-54l-42 64l-42 -64h-54z" />
    <glyph glyph-name="tildecomb" unicode="&#x303;" 
d="M-100 625q-22 0 -52 15t-44 15q-12 0 -18 -8t-6 -17h-30q0 10 1.5 20t6 27t18.5 27.5t34 10.5q22 0 52 -15t44 -15q12 0 18 8t6 17h30q0 -10 -1.5 -20t-6 -27t-18.5 -27.5t-34 -10.5z" />
    <glyph glyph-name="uni0304" unicode="&#x304;" 
d="M-206 634v60h166v-60h-166z" />
    <glyph glyph-name="uni0306" unicode="&#x306;" 
d="M-140 610q-41 0 -70.5 29.5t-29.5 70.5h55q0 -19 13 -32t32 -13t32 13t13 32h55q0 -41 -29.5 -70.5t-70.5 -29.5z" />
    <glyph glyph-name="uni0307" unicode="&#x307;" 
d="M-116 628v80h76v-80h-76z" />
    <glyph glyph-name="uni0308" unicode="&#x308;" 
d="M-234 628v80h70v-80h-70zM-116 628v80h70v-80h-70z" />
    <glyph glyph-name="uni030A" unicode="&#x30a;" 
d="M-120 610q-33 0 -56.5 23.5t-23.5 56.5t23.5 56.5t56.5 23.5t56.5 -23.5t23.5 -56.5t-23.5 -56.5t-56.5 -23.5zM-120 650q16 0 28 12t12 28t-12 28t-28 12t-28 -12t-12 -28t12 -28t28 -12z" />
    <glyph glyph-name="uni030B" unicode="&#x30b;" 
d="M-194 610l44 110h74l-62 -110h-56zM-96 610l44 110h74l-62 -110h-56z" />
    <glyph glyph-name="uni030C" unicode="&#x30c;" 
d="M-232 720h54l42 -64l42 64h54l-54 -110h-84z" />
    <glyph glyph-name="uni0312" unicode="&#x312;" 
d="M-106 610v59q0 34 16.5 54.5t49.5 20.5v-30q-31 0 -31 -37h31v-67h-66z" />
    <glyph glyph-name="dotbelowcomb" unicode="&#x323;" 
d="M-116 -139v80h76v-80h-76z" />
    <glyph glyph-name="uni0326" unicode="&#x326;" 
d="M-106 -194v30q31 0 31 37h-31v67h66v-59q0 -34 -16.5 -54.5t-49.5 -20.5z" />
    <glyph glyph-name="uni0327" unicode="&#x327;" 
d="M-146 -110l42 110h64l-24 -110h-82z" />
    <glyph glyph-name="uni0328" unicode="&#x328;" 
d="M-94 -165q-42 0 -55 29t5 60l38 76h66l-53 -105h53v-60h-54z" />
    <glyph glyph-name="uni0394" unicode="&#x394;" horiz-adv-x="421" 
d="M20 0l125 700h131l125 -700h-381zM114 76h193l-96 543z" />
    <glyph glyph-name="uni03A9" unicode="&#x3a9;" horiz-adv-x="402" 
d="M26 0v76h70l-50 69v469q0 44 23 67t67 23h130q44 0 67 -23t23 -67v-469l-50 -69h70v-76h-151v76h21l23 68q7 22 7 43v421q0 20 -20 20h-110q-20 0 -20 -20v-421q0 -21 7 -43l23 -68h21v-76h-151z" />
    <glyph glyph-name="uni03BC" unicode="&#x3bc;" horiz-adv-x="354" 
d="M40 -160v720h76v-478q0 -16 16 -16h106v494h76v-560h-76v46l-40 -50h-82v-156h-76z" />
    <glyph glyph-name="pi" unicode="&#x3c0;" horiz-adv-x="354" 
d="M40 0v560h274v-560h-36l-40 50v440h-122v-490h-76z" />
    <glyph glyph-name="Wgrave" unicode="&#x1e80;" horiz-adv-x="570" 
d="M253 774l-72 110h82l54 -110h-64zM10 700h80l81 -598l56 598h116l56 -598l81 598h80l-105 -700h-114l-56 579l-56 -579h-114z" />
    <glyph glyph-name="wgrave" unicode="&#x1e81;" horiz-adv-x="536" 
d="M236 610l-72 110h82l54 -110h-64zM7 560h76l65 -499l67 499h106l67 -499l65 499h76l-81 -560h-116l-64 478l-64 -478h-116z" />
    <glyph glyph-name="Wacute" unicode="&#x1e82;" horiz-adv-x="570" 
d="M253 774l54 110h82l-72 -110h-64zM10 700h80l81 -598l56 598h116l56 -598l81 598h80l-105 -700h-114l-56 579l-56 -579h-114z" />
    <glyph glyph-name="wacute" unicode="&#x1e83;" horiz-adv-x="536" 
d="M236 610l54 110h82l-72 -110h-64zM7 560h76l65 -499l67 499h106l67 -499l65 499h76l-81 -560h-116l-64 478l-64 -478h-116z" />
    <glyph glyph-name="Wdieresis" unicode="&#x1e84;" horiz-adv-x="570" 
d="M191 774v80h70v-80h-70zM309 774v80h70v-80h-70zM10 700h80l81 -598l56 598h116l56 -598l81 598h80l-105 -700h-114l-56 579l-56 -579h-114z" />
    <glyph glyph-name="wdieresis" unicode="&#x1e85;" horiz-adv-x="536" 
d="M174 628v80h70v-80h-70zM292 628v80h70v-80h-70zM7 560h76l65 -499l67 499h106l67 -499l65 499h76l-81 -560h-116l-64 478l-64 -478h-116z" />
    <glyph glyph-name="uni1E92" unicode="&#x1e92;" horiz-adv-x="322" 
d="M25 0v76l190 548h-186v76h268v-76l-190 -548h190v-76h-272zM123 -139v80h76v-80h-76z" />
    <glyph glyph-name="uni1E93" unicode="&#x1e93;" horiz-adv-x="306" 
d="M22 0v70l182 420h-178v70h258v-70l-182 -420h182v-70h-262zM115 -139v80h76v-80h-76z" />
    <glyph glyph-name="uni1E9E" unicode="&#x1e9e;" horiz-adv-x="744" 
d="M128 -4q-44 0 -67 23t-23 67v174h80v-168q0 -20 20 -20h96q20 0 20 20v155q0 15 -12 24l-164 119q-37 27 -37 73v151q0 44 23.5 67t66.5 23h110q43 0 66.5 -23t23.5 -67v-164h-80v158q0 20 -20 20h-90q-20 0 -20 -20v-137q0 -15 12 -24l164 -118q37 -27 37 -73v-170
q0 -44 -23 -67t-67 -23h-116zM500 -4q-44 0 -67 23t-23 67v174h80v-168q0 -20 20 -20h96q20 0 20 20v155q0 15 -12 24l-164 119q-37 27 -37 73v151q0 44 23.5 67t66.5 23h110q43 0 66.5 -23t23.5 -67v-164h-80v158q0 20 -20 20h-90q-20 0 -20 -20v-137q0 -15 12 -24
l164 -118q37 -27 37 -73v-170q0 -44 -23 -67t-67 -23h-116z" />
    <glyph glyph-name="uni1EA1" unicode="&#x1ea1;" horiz-adv-x="339" 
d="M115 -4q-90 0 -90 90v114q0 80 74 102l124 38v138q0 16 -16 16h-80q-16 0 -16 -16v-98h-76v94q0 44 23.5 67t66.5 23h84q43 0 66.5 -23t23.5 -67v-474h-76v46l-40 -50h-68zM117 66h106v199l-109 -33q-13 -4 -13 -18v-132q0 -16 16 -16zM127 -139v80h76v-80h-76z" />
    <glyph glyph-name="uni1EB8" unicode="&#x1eb8;" horiz-adv-x="314" 
d="M45 0v700h242v-76h-162v-230h156v-76h-156v-242h166v-76h-246zM133 -139v80h76v-80h-76z" />
    <glyph glyph-name="uni1EB9" unicode="&#x1eb9;" horiz-adv-x="349" 
d="M38 86v388q0 44 23 67t67 23h94q44 0 67 -23t23 -67v-223h-198v-169q0 -16 16 -16h90q16 0 16 16v97h76v-93q0 -44 -23 -67t-67 -23h-94q-44 0 -67 23t-23 67zM114 321h122v157q0 16 -16 16h-90q-16 0 -16 -16v-157zM137 -139v80h76v-80h-76z" />
    <glyph glyph-name="uni1EBC" unicode="&#x1ebc;" horiz-adv-x="314" 
d="M209 769q-22 0 -52 15t-44 15q-12 0 -18 -8t-6 -17h-30q0 10 1.5 20t6 27t18.5 27.5t34 10.5q22 0 52 -15t44 -15q12 0 18 8t6 17h30q0 -10 -1.5 -20t-6 -27t-18.5 -27.5t-34 -10.5zM45 0v700h242v-76h-162v-230h156v-76h-156v-242h166v-76h-246z" />
    <glyph glyph-name="uni1EBD" unicode="&#x1ebd;" horiz-adv-x="349" 
d="M220 625q-22 0 -52 15t-44 15q-12 0 -18 -8t-6 -17h-30q0 10 1.5 20t6 27t18.5 27.5t34 10.5q22 0 52 -15t44 -15q12 0 18 8t6 17h30q0 -10 -1.5 -20t-6 -27t-18.5 -27.5t-34 -10.5zM38 86v388q0 44 23 67t67 23h94q44 0 67 -23t23 -67v-223h-198v-169q0 -16 16 -16h90
q16 0 16 16v97h76v-93q0 -44 -23 -67t-67 -23h-94q-44 0 -67 23t-23 67zM114 321h122v157q0 16 -16 16h-90q-16 0 -16 -16v-157z" />
    <glyph glyph-name="uni1ECA" unicode="&#x1eca;" horiz-adv-x="170" 
d="M45 0v700h80v-700h-80zM47 -139v80h76v-80h-76z" />
    <glyph glyph-name="uni1ECB" unicode="&#x1ecb;" horiz-adv-x="156" 
d="M40 640v80h76v-80h-76zM40 0v560h76v-560h-76zM40 -139v80h76v-80h-76z" />
    <glyph glyph-name="uni1EE4" unicode="&#x1ee4;" horiz-adv-x="384" 
d="M134 -4q-44 0 -67 23t-23 67v614h80v-608q0 -20 20 -20h96q20 0 20 20v608h80v-614q0 -44 -23 -67t-67 -23h-116zM155 -139v80h76v-80h-76z" />
    <glyph glyph-name="uni1EE5" unicode="&#x1ee5;" horiz-adv-x="349" 
d="M35 86v474h76v-478q0 -16 16 -16h106v494h76v-560h-76v46l-40 -50h-68q-43 0 -66.5 23t-23.5 67zM134 -139v80h76v-80h-76z" />
    <glyph glyph-name="Ygrave" unicode="&#x1ef2;" horiz-adv-x="354" 
d="M145 774l-72 110h82l54 -110h-64zM7 700h80l90 -321l90 321h80l-130 -450v-250h-80v250z" />
    <glyph glyph-name="ygrave" unicode="&#x1ef3;" horiz-adv-x="324" 
d="M130 610l-72 110h82l54 -110h-64zM7 560h80l75 -506l75 506h80l-93 -560l-27 -160h-80l29 160h-46z" />
    <glyph glyph-name="endash" unicode="&#x2013;" horiz-adv-x="320" 
d="M0 241v70h320v-70h-320z" />
    <glyph glyph-name="emdash" unicode="&#x2014;" horiz-adv-x="640" 
d="M0 241v70h640v-70h-640z" />
    <glyph glyph-name="quoteleft" unicode="&#x2018;" horiz-adv-x="120" 
d="M99 700v-36q-36 0 -36 -44h36v-110h-78v100q0 41 19.5 65.5t58.5 24.5z" />
    <glyph glyph-name="quoteright" unicode="&#x2019;" horiz-adv-x="120" 
d="M21 510v36q36 0 36 44h-36v110h78v-100q0 -41 -19.5 -65.5t-58.5 -24.5z" />
    <glyph glyph-name="quotesinglbase" unicode="&#x201a;" horiz-adv-x="120" 
d="M21 -80v36q36 0 36 44h-36v110h78v-100q0 -41 -19.5 -65.5t-58.5 -24.5z" />
    <glyph glyph-name="quotedblleft" unicode="&#x201c;" horiz-adv-x="238" 
d="M99 700v-36q-36 0 -36 -44h36v-110h-78v100q0 41 19.5 65.5t58.5 24.5zM217 700v-36q-36 0 -36 -44h36v-110h-78v100q0 41 19.5 65.5t58.5 24.5z" />
    <glyph glyph-name="quotedblright" unicode="&#x201d;" horiz-adv-x="238" 
d="M21 510v36q36 0 36 44h-36v110h78v-100q0 -41 -19.5 -65.5t-58.5 -24.5zM139 510v36q36 0 36 44h-36v110h78v-100q0 -41 -19.5 -65.5t-58.5 -24.5z" />
    <glyph glyph-name="quotedblbase" unicode="&#x201e;" horiz-adv-x="238" 
d="M21 -80v36q36 0 36 44h-36v110h78v-100q0 -41 -19.5 -65.5t-58.5 -24.5zM139 -80v36q36 0 36 44h-36v110h78v-100q0 -41 -19.5 -65.5t-58.5 -24.5z" />
    <glyph glyph-name="dagger" unicode="&#x2020;" horiz-adv-x="280" 
d="M20 526v64h85v110h70v-110h85v-64h-85v-256h-70v256h-85z" />
    <glyph glyph-name="daggerdbl" unicode="&#x2021;" horiz-adv-x="280" 
d="M20 205v64h85v257h-85v64h85v110h70v-110h85v-64h-85v-257h85v-64h-85v-110h-70v110h-85z" />
    <glyph glyph-name="bullet" unicode="&#x2022;" horiz-adv-x="330" 
d="M150 260q-60 0 -60 60v60q0 60 60 60h30q60 0 60 -60v-60q0 -60 -60 -60h-30z" />
    <glyph glyph-name="ellipsis" unicode="&#x2026;" horiz-adv-x="450" 
d="M36 0v110h78v-110h-78zM186 0v110h78v-110h-78zM336 0v110h78v-110h-78z" />
    <glyph glyph-name="perthousand" unicode="&#x2030;" horiz-adv-x="704" 
d="M110 394q-80 0 -80 80v150q0 80 80 80h30q80 0 80 -80v-150q0 -80 -80 -80h-30zM60 0l300 700h70l-300 -700h-70zM111 454h28q15 0 15 15v160q0 15 -15 15h-28q-15 0 -15 -15v-160q0 -15 15 -15zM350 -4q-80 0 -80 80v150q0 80 80 80h30q80 0 80 -80v-150q0 -80 -80 -80
h-30zM574 -4q-80 0 -80 80v150q0 80 80 80h30q80 0 80 -80v-150q0 -80 -80 -80h-30zM351 56h28q15 0 15 15v160q0 15 -15 15h-28q-15 0 -15 -15v-160q0 -15 15 -15zM575 56h28q15 0 15 15v160q0 15 -15 15h-28q-15 0 -15 -15v-160q0 -15 15 -15z" />
    <glyph glyph-name="guilsinglleft" unicode="&#x2039;" horiz-adv-x="224" 
d="M10 300l110 180h84l-110 -180l110 -180h-84z" />
    <glyph glyph-name="guilsinglright" unicode="&#x203a;" horiz-adv-x="224" 
d="M20 120l110 180l-110 180h84l110 -180l-110 -180h-84z" />
    <glyph glyph-name="fraction" unicode="&#x2044;" horiz-adv-x="372" 
d="M-5 0l300 700h82l-300 -700h-82z" />
    <glyph glyph-name="Euro" unicode="&#x20ac;" horiz-adv-x="424" 
d="M30 254v60h60v72h-60v60h60v168q0 44 23 67t67 23h116q44 0 67 -23t23 -67v-98h-80v92q0 20 -20 20h-96q-20 0 -20 -20v-162h136v-60h-136v-72h136v-60h-136v-162q0 -20 20 -20h96q20 0 20 20v92h80v-98q0 -44 -23 -67t-67 -23h-116q-44 0 -67 23t-23 67v168h-60z" />
    <glyph glyph-name="uni2116" unicode="&#x2116;" horiz-adv-x="693" 
d="M505 272q-43 0 -66.5 23t-23.5 67v252q0 44 23.5 67t66.5 23h60q43 0 66.5 -23t23.5 -67v-252q0 -90 -90 -90h-60zM45 0v700h80l150 -354v354h80v-700h-80v162l-150 354v-516h-80zM507 342h56q16 0 16 16v260q0 16 -16 16h-56q-16 0 -16 -16v-260q0 -16 16 -16zM440 142
v70h190v-70h-190z" />
    <glyph glyph-name="trademark" unicode="&#x2122;" horiz-adv-x="588" 
d="M40 650v50h192v-50h-70v-330h-52v330h-70zM262 320v380h88l45 -317l45 317h88v-380h-52v304l-48 -304h-66l-48 304v-304h-52z" />
    <glyph glyph-name="uni2126" unicode="&#x2126;" horiz-adv-x="402" 
d="M26 0v76h70l-50 69v469q0 44 23 67t67 23h130q44 0 67 -23t23 -67v-469l-50 -69h70v-76h-151v76h21l23 68q7 22 7 43v421q0 20 -20 20h-110q-20 0 -20 -20v-421q0 -21 7 -43l23 -68h21v-76h-151z" />
    <glyph glyph-name="estimated" unicode="&#x212e;" horiz-adv-x="770" 
d="M385 -6q-139 0 -237 88t-98 213t98 213.5t237 88.5t237 -88.5t98 -213.5v-7h-543q-5 0 -5 -4v-164q0 -9 8 -19q83 -89 206 -89q63 0 119.5 26.5t95.5 72.5h49q-46 -54 -116 -85.5t-149 -31.5zM177 304h416q5 0 5 5v165q0 11 -9 20q-85 85 -203 85q-117 0 -205 -88
q-9 -9 -9 -20v-162q0 -5 5 -5z" />
    <glyph glyph-name="partialdiff" unicode="&#x2202;" horiz-adv-x="379" 
d="M128 -4q-44 0 -67 23t-23 67v288q0 44 23 67t67 23h88l40 -50v90q0 63 -33.5 96.5t-96.5 33.5h-22v76h12q107 0 163.5 -56.5t56.5 -163.5v-404q0 -44 -23 -67t-67 -23h-118zM138 72h98q20 0 20 20v296h-118q-20 0 -20 -20v-276q0 -20 20 -20z" />
    <glyph glyph-name="uni2206" unicode="&#x2206;" horiz-adv-x="421" 
d="M20 0l125 700h131l125 -700h-381zM114 76h193l-96 543z" />
    <glyph glyph-name="product" unicode="&#x220f;" horiz-adv-x="410" 
d="M45 -120v820h320v-820h-80v744h-160v-744h-80z" />
    <glyph glyph-name="summation" unicode="&#x2211;" horiz-adv-x="370" 
d="M30 -120v76l181 334l-181 334v76h310v-76h-226l185 -334l-185 -334h226v-76h-310z" />
    <glyph glyph-name="minus" unicode="&#x2212;" horiz-adv-x="400" 
d="M30 311v76h340v-76h-340z" />
    <glyph glyph-name="uni2215" unicode="&#x2215;" horiz-adv-x="372" 
d="M-5 0l300 700h82l-300 -700h-82z" />
    <glyph glyph-name="uni2219" unicode="&#x2219;" horiz-adv-x="340" 
d="M150 260q-60 0 -60 60v60q0 60 60 60h30q60 0 60 -60v-60q0 -60 -60 -60h-30z" />
    <glyph glyph-name="radical" unicode="&#x221a;" horiz-adv-x="505" 
d="M15 244v76h150l87 -403l173 783h80l-181 -820h-144l-79 364h-86z" />
    <glyph glyph-name="infinity" unicode="&#x221e;" horiz-adv-x="690" 
d="M40 310q0 62 44 106t106 44q53 0 88.5 -24.5t66.5 -67.5q31 43 66.5 67.5t88.5 24.5q62 0 106 -44t44 -106t-44 -106t-106 -44q-53 0 -88.5 24.5t-66.5 67.5q-31 -43 -66.5 -67.5t-88.5 -24.5q-62 0 -106 44t-44 106zM110 310q0 -33 23.5 -56.5t56.5 -23.5
q37 0 63.5 20.5t52.5 59.5q-26 39 -52.5 59.5t-63.5 20.5q-33 0 -56.5 -23.5t-23.5 -56.5zM384 310q26 -39 52.5 -59.5t63.5 -20.5q33 0 56.5 23.5t23.5 56.5t-23.5 56.5t-56.5 23.5q-37 0 -63.5 -20.5t-52.5 -59.5z" />
    <glyph glyph-name="integral" unicode="&#x222b;" horiz-adv-x="199" 
d="M-17 -160v70h42q16 0 16 16v704q0 44 23.5 67t66.5 23h62v-70h-60q-16 0 -16 -16v-704q0 -44 -23.5 -67t-66.5 -23h-44z" />
    <glyph glyph-name="approxequal" unicode="&#x2248;" horiz-adv-x="398" 
d="M276 369q-39 0 -85 26t-63 26t-27.5 -9.5t-12.5 -18t-2 -15.5h-56q0 27 6.5 52t28.5 47t57 22q39 0 85 -26t63 -26t27.5 9.5t12.5 18t2 15.5h56q0 -27 -6.5 -52t-28.5 -47t-57 -22zM276 199q-39 0 -85 26t-63 26t-27.5 -9.5t-12.5 -18t-2 -15.5h-56q0 27 6.5 52t28.5 47
t57 22q39 0 85 -26t63 -26t27.5 9.5t12.5 18t2 15.5h56q0 -27 -6.5 -52t-28.5 -47t-57 -22z" />
    <glyph glyph-name="notequal" unicode="&#x2260;" horiz-adv-x="400" 
d="M30 233v76h122l32 80h-154v76h183l37 94h64l-37 -94h93v-76h-122l-32 -80h154v-76h-183l-37 -94h-64l37 94h-93z" />
    <glyph glyph-name="lessequal" unicode="&#x2264;" horiz-adv-x="340" 
d="M40 370v104l260 110v-78l-199 -84l199 -84v-78zM40 144v72h260v-72h-260z" />
    <glyph glyph-name="greaterequal" unicode="&#x2265;" horiz-adv-x="340" 
d="M40 260v78l199 84l-199 84v78l260 -110v-104zM40 144v72h260v-72h-260z" />
    <glyph glyph-name="lozenge" unicode="&#x25ca;" horiz-adv-x="535" 
d="M60 270l141 430h133l141 -430l-141 -430h-133zM140 270l128 -389l127 389l-127 389z" />
    <glyph glyph-name="uni00A40301" horiz-adv-x="260" 
d="M104 774l54 110h82l-72 -110h-64zM20 -4v76h96q20 0 20 20v532h-116v76h196v-614q0 -44 -23 -67t-67 -23h-106z" />
    <glyph glyph-name="R.ss01" horiz-adv-x="383" 
d="M45 0v700h206q43 0 66.5 -23t23.5 -67v-202q0 -56 -55 -76q55 -20 55 -76v-256h-80v274q0 20 -20 20h-116v-294h-80zM125 370h116q20 0 20 20v214q0 20 -20 20h-116v-254z" />
    <glyph glyph-name="Racute.ss01" horiz-adv-x="383" 
d="M139 774l54 110h82l-72 -110h-64zM45 0v700h206q43 0 66.5 -23t23.5 -67v-202q0 -56 -55 -76q55 -20 55 -76v-256h-80v274q0 20 -20 20h-116v-294h-80zM125 370h116q20 0 20 20v214q0 20 -20 20h-116v-254z" />
    <glyph glyph-name="Rcaron.ss01" horiz-adv-x="383" 
d="M75 884h54l42 -64l42 64h54l-54 -110h-84zM45 0v700h206q43 0 66.5 -23t23.5 -67v-202q0 -56 -55 -76q55 -20 55 -76v-256h-80v274q0 20 -20 20h-116v-294h-80zM125 370h116q20 0 20 20v214q0 20 -20 20h-116v-254z" />
    <glyph glyph-name="Rcommaaccent.ss01" horiz-adv-x="383" 
d="M45 0v700h206q43 0 66.5 -23t23.5 -67v-202q0 -56 -55 -76q55 -20 55 -76v-256h-80v274q0 20 -20 20h-116v-294h-80zM125 370h116q20 0 20 20v214q0 20 -20 20h-116v-254zM158 -194v30q31 0 31 37h-31v67h66v-59q0 -34 -16.5 -54.5t-49.5 -20.5z" />
    <glyph glyph-name="i.loclTRK" horiz-adv-x="156" 
d="M40 640v80h76v-80h-76zM40 0v560h76v-560h-76z" />
    <glyph glyph-name="uni006A0301" horiz-adv-x="157" 
d="M47 610l54 110h82l-72 -110h-64zM-17 -160v70h42q16 0 16 16v634h76v-630q0 -44 -23.5 -67t-66.5 -23h-44z" />
    <glyph glyph-name="a.ss01" horiz-adv-x="352" 
d="M38 86v388q0 44 20.5 67t58.5 23h79l40 -50v46h76v-560h-76v46l-40 -50h-79q-38 0 -58.5 23t-20.5 67zM114 82q0 -16 16 -16h106v428h-106q-16 0 -16 -16v-396z" />
    <glyph glyph-name="aacute.ss01" horiz-adv-x="352" 
d="M146 610l54 110h82l-72 -110h-64zM38 86v388q0 44 20.5 67t58.5 23h79l40 -50v46h76v-560h-76v46l-40 -50h-79q-38 0 -58.5 23t-20.5 67zM114 82q0 -16 16 -16h106v428h-106q-16 0 -16 -16v-396z" />
    <glyph glyph-name="abreve.ss01" horiz-adv-x="352" 
d="M178 610q-41 0 -70.5 29.5t-29.5 70.5h55q0 -19 13 -32t32 -13t32 13t13 32h55q0 -41 -29.5 -70.5t-70.5 -29.5zM38 86v388q0 44 20.5 67t58.5 23h79l40 -50v46h76v-560h-76v46l-40 -50h-79q-38 0 -58.5 23t-20.5 67zM114 82q0 -16 16 -16h106v428h-106q-16 0 -16 -16
v-396z" />
    <glyph glyph-name="uni01CE.ss01" horiz-adv-x="352" 
d="M82 720h54l42 -64l42 64h54l-54 -110h-84zM38 86v388q0 44 20.5 67t58.5 23h79l40 -50v46h76v-560h-76v46l-40 -50h-79q-38 0 -58.5 23t-20.5 67zM114 82q0 -16 16 -16h106v428h-106q-16 0 -16 -16v-396z" />
    <glyph glyph-name="acircumflex.ss01" horiz-adv-x="352" 
d="M82 610l54 110h84l54 -110h-54l-42 64l-42 -64h-54zM38 86v388q0 44 20.5 67t58.5 23h79l40 -50v46h76v-560h-76v46l-40 -50h-79q-38 0 -58.5 23t-20.5 67zM114 82q0 -16 16 -16h106v428h-106q-16 0 -16 -16v-396z" />
    <glyph glyph-name="adieresis.ss01" horiz-adv-x="352" 
d="M84 628v80h70v-80h-70zM202 628v80h70v-80h-70zM38 86v388q0 44 20.5 67t58.5 23h79l40 -50v46h76v-560h-76v46l-40 -50h-79q-38 0 -58.5 23t-20.5 67zM114 82q0 -16 16 -16h106v428h-106q-16 0 -16 -16v-396z" />
    <glyph glyph-name="uni1EA1.ss01" horiz-adv-x="352" 
d="M38 86v388q0 44 20.5 67t58.5 23h79l40 -50v46h76v-560h-76v46l-40 -50h-79q-38 0 -58.5 23t-20.5 67zM114 82q0 -16 16 -16h106v428h-106q-16 0 -16 -16v-396zM140 -139v80h76v-80h-76z" />
    <glyph glyph-name="agrave.ss01" horiz-adv-x="352" 
d="M146 610l-72 110h82l54 -110h-64zM38 86v388q0 44 20.5 67t58.5 23h79l40 -50v46h76v-560h-76v46l-40 -50h-79q-38 0 -58.5 23t-20.5 67zM114 82q0 -16 16 -16h106v428h-106q-16 0 -16 -16v-396z" />
    <glyph glyph-name="amacron.ss01" horiz-adv-x="352" 
d="M95 634v60h166v-60h-166zM38 86v388q0 44 20.5 67t58.5 23h79l40 -50v46h76v-560h-76v46l-40 -50h-79q-38 0 -58.5 23t-20.5 67zM114 82q0 -16 16 -16h106v428h-106q-16 0 -16 -16v-396z" />
    <glyph glyph-name="aogonek.ss01" horiz-adv-x="352" 
d="M312 560v-560l-53 -105h53v-60h-54q-42 0 -55 29t5 60l38 76h-10v46l-40 -50h-79q-38 0 -58.5 23t-20.5 67v388q0 44 20.5 67t58.5 23h79l40 -50v46h76zM236 66v428h-106q-16 0 -16 -16v-396q0 -16 16 -16h106z" />
    <glyph glyph-name="aring.ss01" horiz-adv-x="352" 
d="M178 610q-33 0 -56.5 23.5t-23.5 56.5t23.5 56.5t56.5 23.5t56.5 -23.5t23.5 -56.5t-23.5 -56.5t-56.5 -23.5zM178 650q16 0 28 12t12 28t-12 28t-28 12t-28 -12t-12 -28t12 -28t28 -12zM38 86v388q0 44 20.5 67t58.5 23h79l40 -50v46h76v-560h-76v46l-40 -50h-79
q-38 0 -58.5 23t-20.5 67zM114 82q0 -16 16 -16h106v428h-106q-16 0 -16 -16v-396z" />
    <glyph glyph-name="atilde.ss01" horiz-adv-x="352" 
d="M223 625q-22 0 -52 15t-44 15q-12 0 -18 -8t-6 -17h-30q0 10 1.5 20t6 27t18.5 27.5t34 10.5q22 0 52 -15t44 -15q12 0 18 8t6 17h30q0 -10 -1.5 -20t-6 -27t-18.5 -27.5t-34 -10.5zM38 86v388q0 44 20.5 67t58.5 23h79l40 -50v46h76v-560h-76v46l-40 -50h-79
q-38 0 -58.5 23t-20.5 67zM114 82q0 -16 16 -16h106v428h-106q-16 0 -16 -16v-396z" />
    <glyph glyph-name="f_f_ij" horiz-adv-x="703" 
d="M10 490v70h36v70q0 44 23 67t67 23h52v-70h-50q-16 0 -16 -16v-74h117v70q0 44 23.5 67t66.5 23h52v-70h-50q-16 0 -16 -16v-74h66v-70h-66v-490h-76v490h-117v-490h-76v490h-36zM427 640v80h76v-80h-76zM587 640v80h76v-80h-76zM427 0v560h76v-560h-76zM529 -160v70h42
q16 0 16 16v634h76v-630q0 -44 -23.5 -67t-66.5 -23h-44z" />
    <glyph glyph-name="f_i" horiz-adv-x="350" 
d="M10 490v70h36v70q0 44 23 67t67 23h52v-70h-50q-16 0 -16 -16v-74h66v-70h-66v-490h-76v490h-36zM234 640v80h76v-80h-76zM234 0v560h76v-560h-76z" />
    <glyph glyph-name="f_ij" horiz-adv-x="507" 
d="M10 490v70h36v70q0 44 23 67t67 23h52v-70h-50q-16 0 -16 -16v-74h66v-70h-66v-490h-76v490h-36zM234 640v80h76v-80h-76zM391 640v80h76v-80h-76zM234 0v560h76v-560h-76zM333 -160v70h42q16 0 16 16v634h76v-630q0 -44 -23.5 -67t-66.5 -23h-44z" />
    <glyph glyph-name="f_l" horiz-adv-x="350" 
d="M10 490v70h36v70q0 44 23 67t67 23h52v-70h-50q-16 0 -16 -16v-74h66v-70h-66v-490h-76v490h-36zM234 0v720h76v-720h-76z" />
    <glyph glyph-name="zero.tf" horiz-adv-x="402" 
d="M140 -4q-44 0 -67 23t-23 67v528q0 44 23 67t67 23h122q44 0 67 -23t23 -67v-528q0 -44 -23 -67t-67 -23h-122zM150 72h102q20 0 20 20v516q0 20 -20 20h-102q-20 0 -20 -20v-516q0 -20 20 -20z" />
    <glyph glyph-name="one.tf" horiz-adv-x="402" 
d="M61 0v76h100v528h-81v56l111 40h50v-624h100v-76h-280z" />
    <glyph glyph-name="two.tf" horiz-adv-x="402" 
d="M55 0v126q0 38 21 71l180 271q11 16 11 35v105q0 20 -20 20h-88q-20 0 -20 -20v-138h-80v144q0 44 23.5 67t66.5 23h108q43 0 66.5 -23t23.5 -67v-107q0 -38 -21 -71l-180 -271q-11 -16 -11 -35v-54h212v-76h-292z" />
    <glyph glyph-name="three.tf" horiz-adv-x="402" 
d="M54 86v146h80v-140q0 -20 20 -20h98q20 0 20 20v206q0 20 -20 20h-102v76h102q20 0 20 20v194q0 20 -20 20h-98q-20 0 -20 -20v-141h-80v147q0 44 23 67t67 23h118q44 0 67 -23t23 -67v-181q0 -58 -55 -77q55 -19 55 -77v-193q0 -44 -23 -67t-67 -23h-118q-44 0 -67 23
t-23 67z" />
    <glyph glyph-name="four.tf" horiz-adv-x="402" 
d="M20 120v96l163 484h130v-504h69v-76h-69v-120h-80v120h-213zM94 196h139v415z" />
    <glyph glyph-name="five.tf" horiz-adv-x="402" 
d="M142 -4q-44 0 -67 23t-23 67v144h80v-138q0 -20 20 -20h98q20 0 20 20v256q0 20 -20 20h-118v-35h-80v367h282v-76h-202v-230l40 50h88q44 0 67 -23t23 -67v-268q0 -44 -23 -67t-67 -23h-118z" />
    <glyph glyph-name="six.tf" horiz-adv-x="402" 
d="M52 86v528q0 44 23 67t67 23h112q44 0 67 -23t23 -67v-126h-80v120q0 20 -20 20h-92q-20 0 -20 -20v-244l40 50h88q44 0 67 -23t23 -67v-238q0 -44 -23 -67t-67 -23h-118q-44 0 -67 23t-23 67zM132 92q0 -20 20 -20h98q20 0 20 20v226q0 20 -20 20h-118v-246z" />
    <glyph glyph-name="seven.tf" horiz-adv-x="402" 
d="M51 624v76h300v-76l-170 -624h-80l170 624h-220z" />
    <glyph glyph-name="eight.tf" horiz-adv-x="402" 
d="M139 -4q-43 0 -66.5 23t-23.5 67v196q0 58 59 77q-55 19 -55 77v178q0 44 23.5 67t66.5 23h114q43 0 66.5 -23t23.5 -67v-178q0 -58 -55 -77q59 -19 59 -77v-196q0 -44 -23.5 -67t-66.5 -23h-122zM153 397h94q20 0 20 20v191q0 20 -20 20h-94q-20 0 -20 -20v-191
q0 -20 20 -20zM149 72h102q20 0 20 20v209q0 20 -20 20h-102q-20 0 -20 -20v-209q0 -20 20 -20z" />
    <glyph glyph-name="nine.tf" horiz-adv-x="402" 
d="M148 -4q-44 0 -67 23t-23 67v126h80v-120q0 -20 20 -20h92q20 0 20 20v244l-40 -50h-88q-44 0 -67 23t-23 67v238q0 44 23 67t67 23h118q44 0 67 -23t23 -67v-528q0 -44 -23 -67t-67 -23h-112zM152 362h118v246q0 20 -20 20h-98q-20 0 -20 -20v-226q0 -20 20 -20z" />
    <glyph glyph-name="uni0308.case" 
d="M-234 774v80h70v-80h-70zM-116 774v80h70v-80h-70z" />
    <glyph glyph-name="uni0307.case" 
d="M-116 774v80h76v-80h-76z" />
    <glyph glyph-name="gravecomb.case" 
d="M-114 774l-72 110h82l54 -110h-64z" />
    <glyph glyph-name="acutecomb.case" 
d="M-114 774l54 110h82l-72 -110h-64z" />
    <glyph glyph-name="uni030B.case" 
d="M-193 774l44 110h74l-62 -110h-56zM-95 774l44 110h74l-62 -110h-56z" />
    <glyph glyph-name="uni0302.case" 
d="M-232 774l54 110h84l54 -110h-54l-42 64l-42 -64h-54z" />
    <glyph glyph-name="uni030C.case" 
d="M-232 884h54l42 -64l42 64h54l-54 -110h-84z" />
    <glyph glyph-name="uni0306.case" 
d="M-140 770q-41 0 -70.5 29.5t-29.5 70.5h50q0 -21 14.5 -35.5t35.5 -14.5t35.5 14.5t14.5 35.5h50q0 -41 -29.5 -70.5t-70.5 -29.5z" />
    <glyph glyph-name="uni030A.case" 
d="M-120 770q-33 0 -56.5 23.5t-23.5 56.5t23.5 56.5t56.5 23.5t56.5 -23.5t23.5 -56.5t-23.5 -56.5t-56.5 -23.5zM-120 810q16 0 28 12t12 28t-12 28t-28 12t-28 -12t-12 -28t12 -28t28 -12z" />
    <glyph glyph-name="tildecomb.case" 
d="M-100 769q-22 0 -52 15t-44 15q-12 0 -18 -8t-6 -17h-30q0 10 1.5 20t6 27t18.5 27.5t34 10.5q22 0 52 -15t44 -15q12 0 18 8t6 17h30q0 -10 -1.5 -20t-6 -27t-18.5 -27.5t-34 -10.5z" />
    <glyph glyph-name="uni0304.case" 
d="M-206 774v60h166v-60h-166z" />
    <glyph glyph-name="IJacute" horiz-adv-x="430" 
d="M53 774l54 110h82l-72 -110h-64zM274 774l54 110h82l-72 -110h-64zM45 0v700h80v-700h-80zM190 -4v76h96q20 0 20 20v532h-116v76h196v-614q0 -44 -23 -67t-67 -23h-106z" />
    <glyph glyph-name="ijacute" horiz-adv-x="313" 
d="M46 610l54 110h82l-72 -110h-64zM203 610l54 110h82l-72 -110h-64zM40 0v560h76v-560h-76zM139 -160v70h42q16 0 16 16v634h76v-630q0 -44 -23.5 -67t-66.5 -23h-44z" />
    </font>
</defs>
</svg>
