<?xml version="1.0" standalone="no"?>
<!DOCTYPE svg PUBLIC "-//W3C//DTD SVG 1.1//EN" "http://www.w3.org/Graphics/SVG/1.1/DTD/svg11.dtd" >
<svg xmlns="http://www.w3.org/2000/svg" xmlns:xlink="http://www.w3.org/1999/xlink" version="1.1">
<metadata>
Created by FontForge 20161003 at Mon May  6 19:15:01 2019
 By www-data
All Rights Reserved, c Charles Daoud
</metadata>
<defs>
<font id="NTFGrandItalic" horiz-adv-x="0" >
  <font-face 
    font-family="NTFGrandItalic"
    font-weight="400"
    font-style="italic"
    font-stretch="normal"
    units-per-em="1000"
    panose-1="0 0 5 0 0 0 0 0 0 0"
    ascent="800"
    descent="-200"
    x-height="560"
    cap-height="700"
    bbox="-224.277 -200 763.286 930"
    underline-thickness="50"
    underline-position="-150"
    slope="-10"
    unicode-range="U+0020-FB02"
  />
<missing-glyph horiz-adv-x="442" 
d="M50 -200v1000h342v-1000h-342zM126 -130h190v860h-190v-860z" />
    <glyph glyph-name="fi" unicode="fi" horiz-adv-x="350" 
d="M-3 0l86 490h-36l12 70h36l13 73q15 87 103 87h55l-13 -70h-47q-19 0 -22 -19l-12 -71h65l-12 -70h-66l-86 -490h-76zM297 640l15 80h76l-15 -80h-76zM185 0l98 560h76l-98 -560h-76z" />
    <glyph glyph-name="fl" unicode="fl" horiz-adv-x="350" 
d="M-3 0l86 490h-36l12 70h36l13 73q15 87 103 87h55l-13 -70h-47q-19 0 -22 -19l-12 -71h65l-12 -70h-66l-86 -490h-76zM185 0l127 720h76l-127 -720h-76z" />
    <glyph glyph-name="f_f" unicode="ff" horiz-adv-x="387" 
d="M47 490l12 70h36l13 73q15 87 103 87h55l-13 -70h-47q-18 0 -22 -19l-13 -71h117l13 73q15 87 103 87h55l-13 -70h-47q-18 0 -22 -19l-13 -71h66l-12 -70h-66l-86 -490h-76l86 490h-117l-86 -490h-76l86 490h-36z" />
    <glyph glyph-name="f_f_i" unicode="ffi" horiz-adv-x="543" 
d="M47 490l12 70h36l13 73q15 87 103 87h55l-13 -70h-47q-18 0 -22 -19l-13 -71h117l13 73q15 87 103 87h55l-13 -70h-47q-18 0 -22 -19l-13 -71h66l-12 -70h-66l-86 -490h-76l86 490h-117l-86 -490h-76l86 490h-36zM490 640l15 80h76l-15 -80h-76zM378 0l98 560h76
l-98 -560h-76z" />
    <glyph glyph-name="f_f_l" unicode="ffl" horiz-adv-x="543" 
d="M47 490l12 70h36l13 73q15 87 103 87h55l-13 -70h-47q-18 0 -22 -19l-13 -71h117l13 73q15 87 103 87h55l-13 -70h-47q-18 0 -22 -19l-13 -71h66l-12 -70h-66l-86 -490h-76l86 490h-117l-86 -490h-76l86 490h-36zM378 0l127 720h76l-127 -720h-76z" />
    <glyph glyph-name=".notdef" horiz-adv-x="442" 
d="M50 -200v1000h342v-1000h-342zM126 -130h190v860h-190v-860z" />
    <glyph glyph-name=".null" 
 />
    <glyph glyph-name="nonmarkingreturn" horiz-adv-x="333" 
 />
    <glyph glyph-name="space" unicode=" " horiz-adv-x="128" 
 />
    <glyph glyph-name="exclam" unicode="!" horiz-adv-x="178" 
d="M29 160l49 280l46 260h78l-46 -260l-49 -280h-78zM1 0l19 110h78l-19 -110h-78z" />
    <glyph glyph-name="quotedbl" unicode="&#x22;" horiz-adv-x="360" 
d="M132 520l26 200h80l-46 -200h-60zM252 520l26 200h80l-46 -200h-60z" />
    <glyph glyph-name="numbersign" unicode="#" horiz-adv-x="511" 
d="M39 0l57 190h-82l13 72h91l53 176h-82l13 72h91l57 190h76l-57 -190h94l57 190h76l-57 -190h83l-13 -72h-92l-52 -176h82l-13 -72h-91l-57 -190h-77l57 190h-93l-57 -190h-77zM195 262h93l53 176h-94z" />
    <glyph glyph-name="dollar" unicode="$" horiz-adv-x="372" 
d="M4 89l30 171h80l-30 -171q-3 -17 14 -17h96q23 0 27 23l28 155q2 15 -6 23l-143 119q-35 29 -26 74l26 151q16 87 103 87h22l16 92h72l-16 -92h16q44 0 64 -25t12 -68l-28 -161h-80l28 161q3 17 -14 17h-90q-23 0 -27 -23l-24 -137q-3 -15 5 -23l144 -118q35 -29 26 -74
l-30 -170q-15 -87 -102 -87h-25l-16 -92h-72l16 92h-19q-44 0 -64 25t-13 68z" />
    <glyph glyph-name="percent" unicode="%" horiz-adv-x="490" 
d="M133 394q-39 0 -57 22t-11 61l26 150q13 77 91 77h30q39 0 57 -22t11 -61l-26 -150q-13 -77 -91 -77h-30zM10 0l423 700h72l-423 -700h-72zM139 454h28q18 0 21 18l28 160q2 12 -10 12h-28q-18 0 -21 -18l-28 -160q-2 -12 10 -12zM303 -4q-39 0 -57 22t-11 61l26 150
q13 77 91 77h30q39 0 57 -22t11 -61l-26 -150q-13 -77 -91 -77h-30zM309 56h28q18 0 21 18l28 160q2 12 -10 12h-28q-18 0 -21 -18l-28 -160q-2 -12 10 -12z" />
    <glyph glyph-name="ampersand" unicode="&#x26;" horiz-adv-x="401" 
d="M86 -4q-44 0 -64 25t-13 68l37 206q5 29 20 47t48 29q-52 19 -41 78l29 168q16 87 103 87h116q44 0 64 -25t12 -68l-21 -123h-80l21 123q3 17 -14 17h-96q-23 0 -27 -23l-32 -181q-3 -17 14 -17h241l-13 -76h-42l-58 -331h-80l9 46l-49 -50h-84zM103 72h119l46 259h-113
q-23 0 -27 -23l-39 -219q-3 -17 14 -17z" />
    <glyph glyph-name="quotesingle" unicode="'" horiz-adv-x="160" 
d="M92 520l26 200h80l-46 -200h-60z" />
    <glyph glyph-name="parenleft" unicode="(" horiz-adv-x="203" 
d="M94 -140l-60 104q-31 52 -20 112l85 480q10 62 55 110l96 100l47 -40l-78 -94q-36 -42 -44 -88l-83 -468q-9 -48 9 -86l50 -90z" />
    <glyph glyph-name="parenright" unicode=")" horiz-adv-x="203" 
d="M-35 -140l-47 40l78 94q36 42 44 88l83 468q8 47 -10 86l-49 90l57 40l60 -104q30 -50 20 -112l-85 -480q-11 -62 -55 -110z" />
    <glyph glyph-name="asterisk" unicode="*" horiz-adv-x="350" 
d="M178 440l16 86l-82 -43l-18 44l82 43l-68 43l32 44l68 -43l16 86h50l-16 -86l82 43l18 -44l-81 -43l67 -43l-32 -44l-68 43l-16 -86h-50z" />
    <glyph glyph-name="plus" unicode="+" horiz-adv-x="400" 
d="M35 311l14 76h132l23 132h76l-23 -132h132l-14 -76h-132l-23 -132h-76l23 132h-132z" />
    <glyph glyph-name="comma" unicode="," horiz-adv-x="150" 
d="M-27 -80l6 36q36 0 44 44h-36l19 110h78l-18 -103q-15 -87 -93 -87z" />
    <glyph glyph-name="hyphen" unicode="-" horiz-adv-x="220" 
d="M3 241l12 70h200l-12 -70h-200z" />
    <glyph glyph-name="period" unicode="." horiz-adv-x="150" 
d="M-13 0l19 110h78l-19 -110h-78z" />
    <glyph glyph-name="slash" unicode="/" horiz-adv-x="258" 
d="M-54 -140l301 914h78l-301 -914h-78z" />
    <glyph glyph-name="zero" unicode="0" horiz-adv-x="388" 
d="M86 -4q-44 0 -64 25t-13 68l93 528q16 87 103 87h122q44 0 64 -25t12 -68l-93 -528q-15 -87 -102 -87h-122zM103 72h102q23 0 27 23l91 516q3 17 -14 17h-102q-23 0 -27 -23l-91 -516q-3 -17 14 -17z" />
    <glyph glyph-name="one" unicode="1" horiz-adv-x="220" 
d="M77 604l10 56l97 40h50l-123 -700h-80l106 604h-60z" />
    <glyph glyph-name="two" unicode="2" horiz-adv-x="352" 
d="M-20 0l13 76l9 53q8 42 31 70l230 271q16 18 19 36l18 105q3 17 -14 17h-88q-23 0 -27 -23l-23 -135h-80l25 147q16 87 103 87h108q44 0 64 -25t12 -68l-18 -107q-8 -42 -32 -70l-229 -271q-16 -19 -19 -36l-9 -51h213l-13 -76h-293z" />
    <glyph glyph-name="three" unicode="3" horiz-adv-x="380" 
d="M5 89l26 143h80l-26 -143q-3 -17 14 -17h98q23 0 27 23l37 206q3 17 -14 17h-105l13 76h99q23 0 27 23l34 194q3 17 -14 17h-98q-23 0 -27 -23l-24 -138h-80l26 150q17 87 103 87h118q44 0 64 -25t12 -68l-32 -181q-5 -29 -20 -47t-48 -29q52 -19 41 -78l-34 -193
q-15 -87 -102 -87h-118q-44 0 -64 25t-13 68z" />
    <glyph glyph-name="four" unicode="4" horiz-adv-x="402" 
d="M-8 120l14 76l3 20l247 484h131l-89 -504h69l-13 -76h-69l-21 -120h-80l21 120h-213zM81 196h137l73 411z" />
    <glyph glyph-name="five" unicode="5" horiz-adv-x="373" 
d="M83 -4q-44 0 -64 25t-13 68l25 141h80l-25 -141q-3 -17 14 -17h98q23 0 27 23l45 256q3 17 -14 17h-120l-7 -35h-80l65 367h282l-13 -76h-202l-42 -230l49 50h86q44 0 64 -25t13 -68l-48 -268q-15 -87 -102 -87h-118z" />
    <glyph glyph-name="six" unicode="6" horiz-adv-x="381" 
d="M9 89l93 528q16 87 103 87h112q44 0 64 -25t12 -68l-21 -123h-80l21 123q3 17 -14 17h-92q-23 0 -27 -23l-43 -241l49 50h86q43 0 63.5 -24.5t12.5 -68.5l-42 -238q-15 -87 -102 -87h-118q-44 0 -64 25t-13 68zM89 89q-3 -17 14 -17h98q23 0 27 23l40 226q3 17 -14 17
h-121z" />
    <glyph glyph-name="seven" unicode="7" horiz-adv-x="340" 
d="M20 0l279 624h-218l13 76h300l-13 -76l-279 -624h-82z" />
    <glyph glyph-name="eight" unicode="8" horiz-adv-x="380" 
d="M82 -4q-44 0 -64 25t-13 68l35 196q5 29 21 47t51 29q-52 19 -41 78l31 178q16 87 103 87h114q44 0 64 -25t12 -68l-31 -178q-6 -29 -21 -47t-47 -29q55 -18 45 -78l-35 -196q-15 -87 -102 -87h-122zM161 397h94q23 0 27 23l33 191q3 17 -14 17h-94q-23 0 -27 -23
l-33 -191q-3 -17 14 -17zM99 72h102q23 0 27 23l37 209q3 17 -14 17h-102q-23 0 -27 -23l-37 -209q-3 -17 14 -17z" />
    <glyph glyph-name="nine" unicode="9" horiz-adv-x="381" 
d="M89 -4q-44 0 -64 25t-13 68l22 123h80l-22 -123q-3 -17 14 -17h92q23 0 27 23l44 241l-49 -50h-86q-44 0 -64 25t-13 68l42 238q17 87 103 87h118q44 0 64 -25t12 -68l-93 -528q-15 -87 -102 -87h-112zM151 362h121l44 249q3 17 -14 17h-98q-23 0 -27 -23l-40 -226
q-3 -17 14 -17z" />
    <glyph glyph-name="colon" unicode=":" horiz-adv-x="150" 
d="M47 340l19 110h78l-19 -110h-78zM-13 0l19 110h78l-19 -110h-78z" />
    <glyph glyph-name="semicolon" unicode=";" horiz-adv-x="150" 
d="M47 340l19 110h78l-19 -110h-78zM-27 -80l6 36q36 0 44 44h-36l19 110h78l-18 -103q-15 -87 -93 -87z" />
    <glyph glyph-name="less" unicode="&#x3c;" horiz-adv-x="300" 
d="M32 290l20 120l253 130l-14 -86l-203 -104l165 -104l-14 -86z" />
    <glyph glyph-name="equal" unicode="=" horiz-adv-x="400" 
d="M49 389l14 76h340l-14 -76h-340zM22 233l13 76h340l-13 -76h-340z" />
    <glyph glyph-name="greater" unicode="&#x3e;" horiz-adv-x="300" 
d="M19 160l14 86l203 104l-165 104l14 86l207 -130l-20 -120z" />
    <glyph glyph-name="question" unicode="?" horiz-adv-x="348" 
d="M98 160l23 129q10 59 58 97l68 51q22 17 25 38l24 136q3 17 -14 17h-88q-23 0 -27 -23l-22 -125h-80l24 137q17 87 103 87h108q44 0 64 -25t12 -68l-24 -136q-10 -59 -59 -97l-73 -55q-22 -17 -26 -38l-22 -125h-74zM68 0l19 110h78l-19 -110h-78z" />
    <glyph glyph-name="at" unicode="@" horiz-adv-x="560" 
d="M18 128l70 394q32 182 214 182h96q90 0 130.5 -49t24.5 -139l-68 -384q-7 -39 -28 -60.5t-67 -21.5q-73 0 -77 57l-47 -51h-83q-38 0 -55.5 24.5t-9.5 68.5l62 352q15 87 92 87h80l31 -50l10 46h76l-80 -452q-7 -40 21 -40q20 0 31.5 14.5t14.5 31.5l69 389
q26 147 -122 147h-106q-73 0 -119.5 -40t-59.5 -113l-72 -404q-26 -147 122 -147h225l-5 -30h-215q-90 0 -130.5 49t-24.5 139zM192 139q-2 -13 11 -13h110q0 3 2 15l66 377h-103q-19 0 -22 -19z" />
    <glyph glyph-name="A" unicode="A" horiz-adv-x="374" 
d="M-33 0l229 700h130l-19 -700h-80l5 160h-134l-51 -160h-80zM123 236h112l12 388z" />
    <glyph glyph-name="B" unicode="B" horiz-adv-x="381" 
d="M-4 0l123 700h201q44 0 64 -25t13 -68l-31 -176q-6 -28 -20 -45t-46 -29q51 -19 41 -78l-34 -192q-15 -87 -103 -87h-208zM146 396h113q23 0 27 23l33 188q3 17 -15 17h-119zM90 76h112q23 0 27 23l36 204q3 17 -14 17h-120z" />
    <glyph glyph-name="C" unicode="C" horiz-adv-x="377" 
d="M86 -4q-44 0 -64 25t-13 68l93 528q16 87 103 87h116q44 0 64 -25t12 -68l-30 -171h-80l30 171q3 17 -14 17h-96q-23 0 -27 -23l-91 -516q-3 -17 14 -17h96q23 0 27 23l29 165h80l-31 -177q-15 -87 -102 -87h-116z" />
    <glyph glyph-name="D" unicode="D" horiz-adv-x="384" 
d="M-4 0l123 700h203q44 0 64 -25t13 -68l-92 -520q-15 -87 -103 -87h-208zM89 76h113q23 0 27 23l90 508q3 17 -14 17h-119z" />
    <glyph glyph-name="E" unicode="E" horiz-adv-x="314" 
d="M-4 0l123 700h242l-13 -76h-162l-41 -230h156l-13 -76h-156l-43 -242h166l-13 -76h-246z" />
    <glyph glyph-name="F" unicode="F" horiz-adv-x="307" 
d="M-4 0l123 700h242l-13 -76h-162l-41 -230h156l-13 -76h-156l-56 -318h-80z" />
    <glyph glyph-name="G" unicode="G" horiz-adv-x="381" 
d="M86 -4q-44 0 -64 25t-13 68l93 528q16 87 103 87h116q44 0 64 -25t12 -68l-30 -171h-80l30 171q3 17 -14 17h-96q-23 0 -27 -23l-91 -516q-3 -17 14 -17h119l38 212h-70l13 76h150l-63 -360h-80l9 46l-49 -50h-84z" />
    <glyph glyph-name="H" unicode="H" horiz-adv-x="386" 
d="M-4 0l123 700h80l-56 -314h137l55 314h80l-123 -700h-80l55 310h-136l-55 -310h-80z" />
    <glyph glyph-name="I" unicode="I" horiz-adv-x="170" 
d="M-4 0l123 700h80l-123 -700h-80z" />
    <glyph glyph-name="J" unicode="J" horiz-adv-x="260" 
d="M-30 -4l13 76h93q23 0 27 23l94 529h-116l13 76h196l-109 -617q-15 -87 -102 -87h-109z" />
    <glyph glyph-name="K" unicode="K" horiz-adv-x="360" 
d="M-4 0l123 700h80l-59 -335l201 335h86l-211 -354l86 -346h-78l-87 343l-61 -343h-80z" />
    <glyph glyph-name="L" unicode="L" horiz-adv-x="302" 
d="M-4 0l123 700h80l-110 -624h162l-13 -76h-242z" />
    <glyph glyph-name="M" unicode="M" horiz-adv-x="532" 
d="M-4 0l123 700h132l-17 -599l194 599h133l-123 -700h-80l101 573l-191 -573h-102l11 573l-101 -573h-80z" />
    <glyph glyph-name="N" unicode="N" horiz-adv-x="400" 
d="M-4 0l123 700h80l87 -354l63 354h80l-123 -700h-80l29 162l-88 354l-91 -516h-80z" />
    <glyph glyph-name="O" unicode="O" horiz-adv-x="384" 
d="M86 -4q-44 0 -64 25t-13 68l93 528q16 87 103 87h118q44 0 64 -25t12 -68l-93 -528q-15 -87 -102 -87h-118zM103 72h98q23 0 27 23l91 516q3 17 -14 17h-98q-23 0 -27 -23l-91 -516q-3 -17 14 -17z" />
    <glyph glyph-name="P" unicode="P" horiz-adv-x="370" 
d="M-4 0l123 700h199q44 0 64 -25t13 -68l-44 -246q-15 -87 -102 -87h-125l-48 -274h-80zM137 350h109q23 0 27 23l42 234q3 17 -14 17h-115z" />
    <glyph glyph-name="Q" unicode="Q" horiz-adv-x="382" 
d="M236 -97l-78 93h-72q-44 0 -64 25t-13 68l93 528q16 87 103 87h116q44 0 64 -25t12 -68l-93 -528q-9 -52 -44 -73l42 -50zM103 72h96q23 0 27 23l91 516q3 17 -14 17h-96q-23 0 -27 -23l-91 -516q-3 -17 14 -17z" />
    <glyph glyph-name="R" unicode="R" horiz-adv-x="375" 
d="M-4 0l123 700h199q44 0 64 -25t13 -68l-41 -230q-14 -76 -81 -85l25 -292h-80l-24 290h-67l-51 -290h-80zM140 366h109q23 0 27 23l39 218q3 17 -14 17h-115z" />
    <glyph glyph-name="S" unicode="S" horiz-adv-x="372" 
d="M81 -4q-44 0 -64 25t-13 68l30 171h80l-30 -171q-3 -17 14 -17h96q23 0 27 23l28 155q2 15 -6 23l-143 119q-35 29 -26 74l26 151q16 87 103 87h110q44 0 64 -25t12 -68l-28 -161h-80l28 161q3 17 -14 17h-90q-23 0 -27 -23l-24 -137q-3 -15 5 -23l144 -118
q35 -29 26 -74l-30 -170q-15 -87 -102 -87h-116z" />
    <glyph glyph-name="T" unicode="T" horiz-adv-x="316" 
d="M69 0l110 624h-103l13 76h286l-13 -76h-103l-110 -624h-80z" />
    <glyph glyph-name="U" unicode="U" horiz-adv-x="384" 
d="M87 -4q-44 0 -64 25t-13 68l108 611h80l-108 -611q-3 -17 14 -17h96q23 0 27 23l107 605h80l-109 -617q-15 -87 -102 -87h-116z" />
    <glyph glyph-name="V" unicode="V" horiz-adv-x="360" 
d="M66 0l18 700h80l-21 -624l201 624h80l-228 -700h-130z" />
    <glyph glyph-name="W" unicode="W" horiz-adv-x="600" 
d="M84 700h80l-34 -628l174 628h140l-48 -628l188 628h80l-213 -700h-130l38 613l-178 -613h-130z" />
    <glyph glyph-name="X" unicode="X" horiz-adv-x="386" 
d="M-35 0l183 350l-58 350h82l44 -282l144 282h86l-184 -350l59 -350h-82l-44 284l-144 -284h-86z" />
    <glyph glyph-name="Y" unicode="Y" horiz-adv-x="354" 
d="M82 700h78l33 -321l147 321h82l-210 -450l-44 -250h-80l44 250z" />
    <glyph glyph-name="Z" unicode="Z" horiz-adv-x="322" 
d="M-24 0l13 76l285 548h-184l13 76h268l-13 -76l-285 -548h188l-13 -76h-272z" />
    <glyph glyph-name="bracketleft" unicode="[" horiz-adv-x="208" 
d="M-24 -140l161 914h168l-13 -73h-90l-135 -768h90l-13 -73h-168z" />
    <glyph glyph-name="backslash" unicode="\" horiz-adv-x="258" 
d="M86 -140l21 914h78l-21 -914h-78z" />
    <glyph glyph-name="bracketright" unicode="]" horiz-adv-x="208" 
d="M-84 -140l13 73h90l135 768h-90l13 73h168l-161 -914h-168z" />
    <glyph glyph-name="asciicircum" unicode="^" horiz-adv-x="404" 
d="M62 410l161 290h104l59 -290h-76l-45 221l-123 -221h-80z" />
    <glyph glyph-name="underscore" unicode="_" horiz-adv-x="360" 
d="M-48 -104l12 64h320l-12 -64h-320z" />
    <glyph glyph-name="grave" unicode="`" horiz-adv-x="216" 
d="M119 610l-52 110h80l34 -110h-62z" />
    <glyph glyph-name="a" unicode="a" horiz-adv-x="339" 
d="M68 -4q-44 0 -64.5 24.5t-12.5 68.5l20 114q15 79 89 100l133 37l25 141q2 13 -11 13h-80q-19 0 -22 -19l-16 -95h-76l17 97q15 87 102 87h84q44 0 64 -25t13 -68l-83 -471h-76l9 46l-49 -50h-66zM77 66h108l36 199l-113 -34q-6 -2 -9 -3.5t-6 -5.5t-4 -11l-23 -132
q-2 -13 11 -13z" />
    <glyph glyph-name="b" unicode="b" horiz-adv-x="352" 
d="M107 -4l-31 50l-9 -46h-76l127 720h76l-38 -206l49 50h66q44 0 64 -25t13 -68l-69 -388q-15 -87 -102 -87h-70zM78 66h104q19 0 22 19l69 396q2 13 -11 13h-108z" />
    <glyph glyph-name="c" unicode="c" horiz-adv-x="347" 
d="M81 -4q-44 0 -64 25t-13 68l69 388q15 87 102 87h94q44 0 64 -25t13 -68l-22 -125h-76l23 135q3 13 -11 13h-90q-18 0 -22 -19l-69 -396q-3 -13 11 -13h90q18 0 22 19l22 129h76l-23 -131q-15 -87 -102 -87h-94z" />
    <glyph glyph-name="d" unicode="d" horiz-adv-x="352" 
d="M81 -4q-44 0 -64 25t-13 68l69 388q15 87 102 87h70l31 -50l38 206h76l-127 -720h-76l9 46l-49 -50h-66zM90 66h108l76 428h-104q-19 0 -22 -19l-69 -396q-2 -13 11 -13z" />
    <glyph glyph-name="e" unicode="e" horiz-adv-x="349" 
d="M81 -4q-44 0 -64 25t-13 68l69 388q15 87 102 87h94q44 0 64 -25t13 -68l-39 -220h-198l-30 -172q-2 -13 11 -13h90q19 0 22 19l16 94h76l-17 -96q-15 -87 -102 -87h-94zM121 321h122l28 160q2 13 -11 13h-90q-19 0 -22 -19z" />
    <glyph glyph-name="f" unicode="f" horiz-adv-x="194" 
d="M-3 0l86 490h-36l12 70h36l13 73q15 87 103 87h55l-13 -70h-47q-19 0 -22 -19l-12 -71h65l-12 -70h-66l-86 -490h-76z" />
    <glyph glyph-name="g" unicode="g" horiz-adv-x="352" 
d="M7 103l66 374q15 87 102 87h70l31 -50l9 46h76l-112 -637q-15 -87 -103 -87h-88q-43 0 -63.5 24.5t-12.5 68.5l5 28h76l-7 -38q-2 -13 11 -13h84q19 0 22 19l25 135l-49 -50h-66q-43 0 -63.5 24.5t-12.5 68.5zM81 93q-2 -13 11 -13h109l73 414h-104q-19 0 -22 -19z" />
    <glyph glyph-name="h" unicode="h" horiz-adv-x="354" 
d="M-9 0l127 720h76l-36 -204l47 48h66q44 0 64 -25t13 -68l-83 -471h-76l84 481q2 13 -11 13h-108l-87 -494h-76z" />
    <glyph glyph-name="i" unicode="i" horiz-adv-x="156" 
d="M103 640l15 80h76l-15 -80h-76zM-9 0l98 560h76l-98 -560h-76z" />
    <glyph glyph-name="j" unicode="j" horiz-adv-x="157" 
d="M104 640l15 80h76l-15 -80h-76zM-95 -160l13 70h39q19 0 22 19l111 631h76l-111 -633q-15 -87 -103 -87h-47z" />
    <glyph glyph-name="k" unicode="k" horiz-adv-x="354" 
d="M118 720h76l-76 -430l-51 -290h-76zM392 560l-192 -270l92 -290h-80l-94 290l190 270h84z" />
    <glyph glyph-name="l" unicode="l" horiz-adv-x="156" 
d="M-9 0l127 720h76l-127 -720h-76z" />
    <glyph glyph-name="m" unicode="m" horiz-adv-x="532" 
d="M-9 0l98 560h76l-8 -45l48 49h56q63 0 76 -50l49 50h63q44 0 64 -25t13 -68l-83 -471h-76l84 481q2 13 -11 13h-100q0 -7 -2 -23l-83 -471h-76l84 481q2 13 -11 13h-99l-86 -494h-76z" />
    <glyph glyph-name="n" unicode="n" horiz-adv-x="354" 
d="M-9 0l98 560h76l-8 -45l48 49h66q44 0 64 -25t13 -68l-83 -471h-76l84 481q2 13 -11 13h-109l-86 -494h-76z" />
    <glyph glyph-name="o" unicode="o" horiz-adv-x="350" 
d="M81 -4q-44 0 -64 25t-13 68l69 388q15 87 102 87h94q44 0 64 -25t13 -68l-69 -388q-15 -87 -102 -87h-94zM90 66h90q19 0 22 19l69 396q2 13 -11 13h-90q-19 0 -22 -19l-69 -396q-2 -13 11 -13z" />
    <glyph glyph-name="p" unicode="p" horiz-adv-x="352" 
d="M-38 -160l127 720h76l-9 -46l49 50h66q44 0 64 -25t13 -68l-69 -388q-15 -87 -102 -87h-70l-31 50l-38 -206h-76zM78 66h104q19 0 22 19l69 396q2 13 -11 13h-108z" />
    <glyph glyph-name="q" unicode="q" horiz-adv-x="352" 
d="M158 -160l38 206l-49 -50h-66q-44 0 -64 25t-13 68l69 388q15 87 102 87h70l31 -50l9 46h76l-127 -720h-76zM90 66h108l76 428h-104q-19 0 -22 -19l-69 -396q-2 -13 11 -13z" />
    <glyph glyph-name="r" unicode="r" horiz-adv-x="239" 
d="M-9 0l98 560h76l-9 -50l48 50h74l-12 -70h-113l-86 -490h-76z" />
    <glyph glyph-name="s" unicode="s" horiz-adv-x="338" 
d="M75 -4q-44 0 -64 25t-13 68l20 111h76l-21 -121q-2 -13 11 -13h90q19 0 22 19l16 94q2 12 -4 18l-132 120q-33 30 -24 74l15 86q15 87 102 87h91q43 0 63.5 -24.5t12.5 -68.5l-19 -109h-76l21 119q2 13 -11 13h-87q-19 0 -22 -19l-15 -87q-2 -12 4 -18l132 -120
q32 -30 25 -74l-17 -93q-15 -87 -102 -87h-94z" />
    <glyph glyph-name="t" unicode="t" horiz-adv-x="217" 
d="M26 89l71 401h-50l12 70h50l17 96h76l-17 -96h76l-12 -70h-76l-72 -411q-3 -13 11 -13h42l-12 -70h-39q-44 0 -64 25t-13 68z" />
    <glyph glyph-name="u" unicode="u" horiz-adv-x="349" 
d="M78 -4q-44 0 -64 25t-13 68l83 471h76l-84 -481q-2 -13 11 -13h109l86 494h76l-98 -560h-76l8 45l-48 -49h-66z" />
    <glyph glyph-name="v" unicode="v" horiz-adv-x="324" 
d="M57 560h80l-16 -506l166 506h80l-192 -560h-124z" />
    <glyph glyph-name="w" unicode="w" horiz-adv-x="536" 
d="M57 560h76l-24 -499l155 499h106l-21 -499l152 499h78l-180 -560h-116l21 478l-149 -478h-116z" />
    <glyph glyph-name="x" unicode="x" horiz-adv-x="328" 
d="M-40 0l157 280l-53 280h79l32 -211l108 211h81l-153 -280l57 -280h-79l-35 214l-113 -214h-81z" />
    <glyph glyph-name="y" unicode="y" horiz-adv-x="324" 
d="M40 -160l57 160h-46l6 560h80l-14 -499l162 499h82l-247 -720h-80z" />
    <glyph glyph-name="z" unicode="z" horiz-adv-x="306" 
d="M-27 0l11 70l256 420h-177l12 70h258l-11 -70l-256 -420h181l-12 -70h-262z" />
    <glyph glyph-name="braceleft" unicode="{" horiz-adv-x="241" 
d="M127 -140l-60 104q-31 52 -20 112l32 183q4 17 -14 17h-51l13 74h46q22 0 26 23l33 183q10 62 55 110l96 100l47 -40l-78 -94q-36 -42 -44 -88l-26 -147q-7 -37 -19.5 -56t-45.5 -30q26 -9 33 -30.5t1 -57.5l-26 -147q-9 -48 9 -86l50 -90z" />
    <glyph glyph-name="bar" unicode="|" horiz-adv-x="278" 
d="M26 -140l161 914h78l-161 -914h-78z" />
    <glyph glyph-name="braceright" unicode="}" horiz-adv-x="241" 
d="M-30 -140l-47 40l78 94q36 42 44 88l26 147q7 37 19.5 56t45.5 30q-26 9 -33 30.5t-1 57.5l26 147q8 47 -10 86l-49 90l57 40l60 -104q30 -50 20 -112l-33 -183q-3 -17 15 -17h50l-13 -74h-45q-22 0 -27 -23l-32 -183q-11 -62 -55 -110z" />
    <glyph glyph-name="asciitilde" unicode="~" horiz-adv-x="398" 
d="M272 225q-41 0 -82.5 26t-56.5 26q-19 0 -32.5 -10.5t-17.5 -19.5t-6 -16l-55 6q8 45 34 81.5t74 36.5q41 0 82.5 -26t56.5 -26q26 0 40 16.5t15 29.5l55 -6q-8 -45 -33.5 -81.5t-73.5 -36.5z" />
    <glyph glyph-name="uni00A0" unicode="&#xa0;" horiz-adv-x="128" 
 />
    <glyph glyph-name="exclamdown" unicode="&#xa1;" horiz-adv-x="178" 
d="M177 540l-19 -110h-78l19 110h78zM149 380l-49 -280l-46 -260h-78l46 260l49 280h78z" />
    <glyph glyph-name="cent" unicode="&#xa2;" horiz-adv-x="347" 
d="M21 183l60 340q15 87 103 87h15l16 90h68l-16 -90h11q43 0 63.5 -24.5t12.5 -68.5l-16 -92h-76l18 102q2 13 -11 13h-90q-19 0 -22 -19l-62 -348q-2 -13 11 -13h90q19 0 22 19l17 96h76l-17 -98q-15 -87 -103 -87h-16l-15 -90h-68l15 90h-10q-43 0 -63.5 24.5t-12.5 68.5
z" />
    <glyph glyph-name="sterling" unicode="&#xa3;" horiz-adv-x="409" 
d="M-14 0l13 76h42l32 184h-42l14 76h42l49 281q16 87 103 87h116q44 0 64 -25t12 -68l-22 -127h-80l22 127q3 17 -14 17h-96q-23 0 -27 -23l-47 -269h132l-14 -76h-132l-24 -144l-57 -40h271l-13 -76h-344z" />
    <glyph glyph-name="currency" unicode="&#xa4;" horiz-adv-x="486" 
d="M78 152l-46 54l79 68q-2 16 1 31l31 172q4 20 8 28l-55 65l62 54l53 -64q15 4 34 4h90q18 0 35 -5l76 65l46 -54l-79 -68q2 -16 -1 -31l-31 -172q-4 -20 -8 -28l55 -65l-62 -54l-53 64q-15 -4 -34 -4h-90q-18 0 -35 5zM198 282h86q18 0 22 19l31 180q3 13 -11 13h-86
q-18 0 -22 -19l-31 -180q-3 -13 11 -13z" />
    <glyph glyph-name="yen" unicode="&#xa5;" horiz-adv-x="360" 
d="M85 700h77l34 -322l147 322h82l-182 -390h72l-10 -60h-90l-13 -72h90l-11 -60h-90l-20 -118h-80l20 118h-90l11 60h90l13 72h-90l10 60h74z" />
    <glyph glyph-name="brokenbar" unicode="&#xa6;" horiz-adv-x="238" 
d="M99 390l68 384h78l-68 -384h-78zM6 -140l68 384h78l-68 -384h-78z" />
    <glyph glyph-name="section" unicode="&#xa7;" horiz-adv-x="353" 
d="M294 162l-65 60l16 97q2 12 -4 18l-133 120q-32 27 -24 74l15 86q17 87 103 87h91q44 0 64 -25t12 -68l-19 -109h-76l21 119q2 13 -11 13h-87q-19 0 -22 -19l-15 -87q-2 -12 4 -18l131 -120q33 -30 25 -74zM64 -122q-43 0 -63.5 24.5t-12.5 68.5l19 109h76l-21 -119
q-2 -13 11 -13h87q19 0 22 19l15 87q2 12 -4 18l-131 120q-32 29 -25 74l26 154l65 -60l-16 -97q-2 -12 4 -18l133 -120q32 -27 24 -74l-15 -86q-15 -87 -103 -87h-91z" />
    <glyph glyph-name="dieresis" unicode="&#xa8;" horiz-adv-x="280" 
d="M107 628l14 80h70l-14 -80h-70zM225 628l14 80h70l-14 -80h-70z" />
    <glyph glyph-name="copyright" unicode="&#xa9;" horiz-adv-x="465" 
d="M230 -4q-90 0 -137.5 47.5t-47.5 137.5v338q0 90 47.5 137.5t137.5 47.5h30q90 0 137.5 -47.5t47.5 -137.5v-338q0 -90 -47.5 -137.5t-137.5 -47.5h-30zM225 26h40q73 0 111.5 38.5t38.5 111.5v348q0 73 -38.5 111.5t-111.5 38.5h-40q-73 0 -111.5 -38.5t-38.5 -111.5
v-348q0 -73 38.5 -111.5t111.5 -38.5zM204 102q-63 0 -63 63v370q0 63 63 63h82q63 0 63 -63v-123h-56v120q0 14 -14 14h-68q-14 0 -14 -14v-364q0 -14 14 -14h68q14 0 14 14v120h56v-123q0 -63 -63 -63h-82z" />
    <glyph glyph-name="ordfeminine" unicode="&#xaa;" horiz-adv-x="235" 
d="M86 355q-22 0 -32.5 13t-6.5 35l13 76q9 48 54 62l81 24l15 86q1 7 -6 7h-44q-13 0 -15 -13l-10 -57h-50l13 74q7 42 50 42h74q22 0 32.5 -13t6.5 -35l-53 -301h-50l7 31l-31 -31h-48zM104 401h62l21 116l-64 -22q-10 -3 -12 -13l-13 -74q-1 -7 6 -7z" />
    <glyph glyph-name="guillemotleft" unicode="&#xab;" horiz-adv-x="354" 
d="M14 300l140 180h86l-142 -180l77 -180h-82zM144 300l140 180h86l-142 -180l77 -180h-82z" />
    <glyph glyph-name="logicalnot" unicode="&#xac;" horiz-adv-x="410" 
d="M278 211l19 106h-260l13 76h340l-32 -182h-80z" />
    <glyph glyph-name="uni00AD" unicode="&#xad;" horiz-adv-x="220" 
d="M3 241l12 70h200l-12 -70h-200z" />
    <glyph glyph-name="registered" unicode="&#xae;" horiz-adv-x="465" 
d="M45 181v338q0 90 47.5 137.5t137.5 47.5h30q90 0 137.5 -47.5t47.5 -137.5v-338q0 -90 -47.5 -137.5t-137.5 -47.5h-30q-90 0 -137.5 47.5t-47.5 137.5zM75 176q0 -73 38.5 -111.5t111.5 -38.5h40q73 0 111.5 38.5t38.5 111.5v348q0 73 -38.5 111.5t-111.5 38.5h-40
q-73 0 -111.5 -38.5t-38.5 -111.5v-348zM143 105v490h141q63 0 63 -63v-160q0 -53 -46 -61l46 -206h-56l-45 204h-47v-204h-56zM199 361h78q14 0 14 14v154q0 14 -14 14h-78v-182z" />
    <glyph glyph-name="macron" unicode="&#xaf;" horiz-adv-x="246" 
d="M102 634l11 60h166l-11 -60h-166z" />
    <glyph glyph-name="degree" unicode="&#xb0;" horiz-adv-x="266" 
d="M136 414q-34 0 -49.5 19.5t-10.5 53.5l28 156q12 67 79 67h46q34 0 50 -19.5t10 -53.5l-28 -156q-10 -67 -79 -67h-46zM143 468h40q18 0 21 18l28 158q2 12 -10 12h-40q-18 0 -21 -18l-28 -158q-2 -12 10 -12z" />
    <glyph glyph-name="plusminus" unicode="&#xb1;" horiz-adv-x="400" 
d="M7 149l12 70h133l19 112h-132l13 76h133l23 132h76l-23 -132h131l-13 -76h-132l-19 -112h131l-12 -70h-340z" />
    <glyph glyph-name="uni00B2" unicode="&#xb2;" horiz-adv-x="205" 
d="M43 357l12 67q4 22 12 32l107 136q8 10 10 21l7 38q1 7 -6 7h-25q-12 0 -15 -13l-9 -53h-50l12 70q7 42 50 42h55q22 0 32.5 -13t6.5 -35l-9 -49q-3 -19 -13 -32l-107 -137q-7 -9 -9 -18l-3 -17h96l-8 -46h-146z" />
    <glyph glyph-name="uni00B3" unicode="&#xb3;" horiz-adv-x="242" 
d="M100 355q-22 0 -32.5 13t-6.5 35l11 63h50l-10 -58q-1 -7 6 -7h40q12 0 15 13l16 94q1 7 -6 7h-43l9 46h37q12 0 15 13l13 77q1 7 -6 7h-40q-12 0 -15 -13l-8 -48h-50l11 65q7 42 50 42h70q22 0 32.5 -13t6.5 -35l-14 -83q-4 -27 -35 -37q26 -9 21 -40l-17 -99
q-7 -42 -50 -42h-70z" />
    <glyph glyph-name="acute" unicode="&#xb4;" horiz-adv-x="216" 
d="M117 610l74 110h84l-92 -110h-66z" />
    <glyph glyph-name="uni00B5" unicode="&#xb5;" horiz-adv-x="354" 
d="M-38 -160l127 720h76l-84 -481q-3 -13 11 -13h108l87 494h76l-98 -560h-76l9 46l-49 -50h-83l-28 -156h-76z" />
    <glyph glyph-name="paragraph" unicode="&#xb6;" horiz-adv-x="404" 
d="M140 0l63 360h-57q-44 0 -64 25t-13 68l29 160q15 87 102 87h123l-123 -700h-60zM250 0l123 700h60l-123 -700h-60z" />
    <glyph glyph-name="periodcentered" unicode="&#xb7;" horiz-adv-x="138" 
d="M29 220l20 110h78l-20 -110h-78z" />
    <glyph glyph-name="cedilla" unicode="&#xb8;" horiz-adv-x="166" 
d="M-2 -110l42 110h64l-24 -110h-82z" />
    <glyph glyph-name="uni00B9" unicode="&#xb9;" horiz-adv-x="161" 
d="M85 644l5 32l50 24h35l-61 -345h-50l51 289h-30z" />
    <glyph glyph-name="ordmasculine" unicode="&#xba;" horiz-adv-x="246" 
d="M99 355q-22 0 -32.5 13t-6.5 35l45 259q7 42 50 42h80q22 0 32.5 -13t6.5 -35l-45 -259q-7 -42 -50 -42h-80zM117 401h50q13 0 15 13l41 237q1 7 -6 7h-50q-13 0 -15 -13l-41 -237q-1 -7 6 -7z" />
    <glyph glyph-name="guillemotright" unicode="&#xbb;" horiz-adv-x="354" 
d="M-9 120l143 180l-78 180h82l80 -180l-141 -180h-86zM121 120l143 180l-78 180h82l80 -180l-141 -180h-86z" />
    <glyph glyph-name="questiondown" unicode="&#xbf;" horiz-adv-x="348" 
d="M280 544l-19 -110h-78l19 110h78zM250 384l-23 -129q-10 -59 -58 -97l-68 -51q-22 -17 -25 -38l-24 -136q-3 -17 14 -17h88q23 0 27 23l22 125h80l-24 -137q-17 -87 -103 -87h-108q-44 0 -64 25t-12 68l24 136q10 59 59 97l73 55q22 17 26 38l22 125h74z" />
    <glyph glyph-name="Agrave" unicode="&#xc0;" horiz-adv-x="374" 
d="M243 774l-52 110h80l34 -110h-62zM-33 0l229 700h130l-19 -700h-80l5 160h-134l-51 -160h-80zM123 236h112l12 388z" />
    <glyph glyph-name="Aacute" unicode="&#xc1;" horiz-adv-x="374" 
d="M241 774l74 110h84l-92 -110h-66zM-33 0l229 700h130l-19 -700h-80l5 160h-134l-51 -160h-80zM123 236h112l12 388z" />
    <glyph glyph-name="Acircumflex" unicode="&#xc2;" horiz-adv-x="374" 
d="M177 774l74 110h84l34 -110h-52l-30 64l-54 -64h-56zM-33 0l229 700h130l-19 -700h-80l5 160h-134l-51 -160h-80zM123 236h112l12 388z" />
    <glyph glyph-name="Atilde" unicode="&#xc3;" horiz-adv-x="374" 
d="M323 765q-24 0 -51.5 15t-39.5 15q-14 0 -23.5 -9.5t-10.5 -18.5l-29 6q12 82 69 82q23 0 50.5 -15t39.5 -15q14 0 23.5 9.5t11.5 18.5l29 -6q-18 -82 -69 -82zM-33 0l229 700h130l-19 -700h-80l5 160h-134l-51 -160h-80zM123 236h112l12 388z" />
    <glyph glyph-name="Adieresis" unicode="&#xc4;" horiz-adv-x="374" 
d="M180 774l14 80h70l-14 -80h-70zM298 774l14 80h70l-14 -80h-70zM-33 0l229 700h130l-19 -700h-80l5 160h-134l-51 -160h-80zM123 236h112l12 388z" />
    <glyph glyph-name="Aring" unicode="&#xc5;" horiz-adv-x="374" 
d="M278 770q-33 0 -51.5 19t-18.5 49q0 39 25.5 65.5t64.5 26.5q34 0 52 -18.5t18 -49.5q0 -40 -25.5 -66t-64.5 -26zM281 810q21 0 34 14t13 34q0 13 -9.5 22.5t-23.5 9.5q-21 0 -34 -14t-13 -34q0 -13 9.5 -22.5t23.5 -9.5zM-33 0l229 700h130l-19 -700h-80l5 160h-134
l-51 -160h-80zM123 236h112l12 388z" />
    <glyph glyph-name="AE" unicode="&#xc6;" horiz-adv-x="505" 
d="M-33 0l239 700h346l-13 -76h-162l-41 -230h156l-13 -76h-156l-43 -242h166l-13 -76h-246l28 160h-114l-54 -160h-80zM126 236h102l69 388h-40z" />
    <glyph glyph-name="Ccedilla" unicode="&#xc7;" horiz-adv-x="377" 
d="M321 704q44 0 64 -25t12 -68l-30 -171h-80l30 171q3 17 -14 17h-96q-23 0 -27 -23l-91 -516q-3 -17 14 -17h96q23 0 27 23l29 165h80l-31 -177q-15 -87 -102 -87h-35l-23 -106h-82l40 106h-16q-44 0 -64 25t-13 68l93 528q16 87 103 87h116z" />
    <glyph glyph-name="Egrave" unicode="&#xc8;" horiz-adv-x="314" 
d="M221 774l-52 110h80l34 -110h-62zM-4 0l123 700h242l-13 -76h-162l-41 -230h156l-13 -76h-156l-43 -242h166l-13 -76h-246z" />
    <glyph glyph-name="Eacute" unicode="&#xc9;" horiz-adv-x="314" 
d="M214 774l74 110h84l-92 -110h-66zM-4 0l123 700h242l-13 -76h-162l-41 -230h156l-13 -76h-156l-43 -242h166l-13 -76h-246z" />
    <glyph glyph-name="Ecircumflex" unicode="&#xca;" horiz-adv-x="314" 
d="M156 774l74 110h84l34 -110h-52l-30 64l-54 -64h-56zM-4 0l123 700h242l-13 -76h-162l-41 -230h156l-13 -76h-156l-43 -242h166l-13 -76h-246z" />
    <glyph glyph-name="Edieresis" unicode="&#xcb;" horiz-adv-x="314" 
d="M159 774l14 80h70l-14 -80h-70zM277 774l14 80h70l-14 -80h-70zM-4 0l123 700h242l-13 -76h-162l-41 -230h156l-13 -76h-156l-43 -242h166l-13 -76h-246z" />
    <glyph glyph-name="Igrave" unicode="&#xcc;" horiz-adv-x="170" 
d="M141 774l-52 110h80l34 -110h-62zM-4 0l123 700h80l-123 -700h-80z" />
    <glyph glyph-name="Iacute" unicode="&#xcd;" horiz-adv-x="170" 
d="M139 774l74 110h84l-92 -110h-66zM-4 0l123 700h80l-123 -700h-80z" />
    <glyph glyph-name="Icircumflex" unicode="&#xce;" horiz-adv-x="170" 
d="M75 774l74 110h84l34 -110h-52l-30 64l-54 -64h-56zM-4 0l123 700h80l-123 -700h-80z" />
    <glyph glyph-name="Idieresis" unicode="&#xcf;" horiz-adv-x="170" 
d="M78 774l14 80h70l-14 -80h-70zM196 774l14 80h70l-14 -80h-70zM-4 0l123 700h80l-123 -700h-80z" />
    <glyph glyph-name="Eth" unicode="&#xd0;" horiz-adv-x="399" 
d="M11 0l55 312h-50l13 76h50l55 312h203q44 0 64 -25t13 -68l-92 -520q-15 -87 -103 -87h-208zM105 76h112q23 0 27 23l90 508q3 17 -15 17h-119l-41 -236h70l-13 -76h-70z" />
    <glyph glyph-name="Ntilde" unicode="&#xd1;" horiz-adv-x="400" 
d="M336 765q-24 0 -51.5 15t-39.5 15q-14 0 -23.5 -9.5t-10.5 -18.5l-29 6q12 82 69 82q23 0 50.5 -15t39.5 -15q14 0 23.5 9.5t11.5 18.5l29 -6q-18 -82 -69 -82zM-4 0l123 700h80l87 -354l63 354h80l-123 -700h-80l29 162l-88 354l-91 -516h-80z" />
    <glyph glyph-name="Ograve" unicode="&#xd2;" horiz-adv-x="384" 
d="M248 774l-52 110h80l34 -110h-62zM86 -4q-44 0 -64 25t-13 68l93 528q16 87 103 87h118q44 0 64 -25t12 -68l-93 -528q-15 -87 -102 -87h-118zM103 72h98q23 0 27 23l91 516q3 17 -14 17h-98q-23 0 -27 -23l-91 -516q-3 -17 14 -17z" />
    <glyph glyph-name="Oacute" unicode="&#xd3;" horiz-adv-x="384" 
d="M246 774l74 110h84l-92 -110h-66zM86 -4q-44 0 -64 25t-13 68l93 528q16 87 103 87h118q44 0 64 -25t12 -68l-93 -528q-15 -87 -102 -87h-118zM103 72h98q23 0 27 23l91 516q3 17 -14 17h-98q-23 0 -27 -23l-91 -516q-3 -17 14 -17z" />
    <glyph glyph-name="Ocircumflex" unicode="&#xd4;" horiz-adv-x="384" 
d="M182 774l74 110h84l34 -110h-52l-30 64l-54 -64h-56zM86 -4q-44 0 -64 25t-13 68l93 528q16 87 103 87h118q44 0 64 -25t12 -68l-93 -528q-15 -87 -102 -87h-118zM103 72h98q23 0 27 23l91 516q3 17 -14 17h-98q-23 0 -27 -23l-91 -516q-3 -17 14 -17z" />
    <glyph glyph-name="Otilde" unicode="&#xd5;" horiz-adv-x="384" 
d="M328 765q-24 0 -51.5 15t-39.5 15q-14 0 -23.5 -9.5t-10.5 -18.5l-29 6q12 82 69 82q23 0 50.5 -15t39.5 -15q14 0 23.5 9.5t11.5 18.5l29 -6q-18 -82 -69 -82zM86 -4q-44 0 -64 25t-13 68l93 528q16 87 103 87h118q44 0 64 -25t12 -68l-93 -528q-15 -87 -102 -87h-118z
M103 72h98q23 0 27 23l91 516q3 17 -14 17h-98q-23 0 -27 -23l-91 -516q-3 -17 14 -17z" />
    <glyph glyph-name="Odieresis" unicode="&#xd6;" horiz-adv-x="384" 
d="M185 774l14 80h70l-14 -80h-70zM303 774l14 80h70l-14 -80h-70zM86 -4q-44 0 -64 25t-13 68l93 528q16 87 103 87h118q44 0 64 -25t12 -68l-93 -528q-15 -87 -102 -87h-118zM103 72h98q23 0 27 23l91 516q3 17 -14 17h-98q-23 0 -27 -23l-91 -516q-3 -17 14 -17z" />
    <glyph glyph-name="multiply" unicode="&#xd7;" horiz-adv-x="402" 
d="M33 242l126 107l-88 107l65 54l89 -107l125 107l43 -54l-126 -107l88 -107l-65 -54l-88 107l-126 -107z" />
    <glyph glyph-name="Oslash" unicode="&#xd8;" horiz-adv-x="382" 
d="M9 89l93 528q16 87 103 87h116q44 0 64 -25t12 -68l-93 -528q-15 -87 -102 -87h-116q-44 0 -64 25t-13 68zM116 243l201 368q4 17 -14 17h-96q-22 0 -27 -23zM89 89q-3 -17 15 -17h96q22 0 26 23l64 362z" />
    <glyph glyph-name="Ugrave" unicode="&#xd9;" horiz-adv-x="384" 
d="M249 774l-52 110h80l34 -110h-62zM87 -4q-44 0 -64 25t-13 68l108 611h80l-108 -611q-3 -17 14 -17h96q23 0 27 23l107 605h80l-109 -617q-15 -87 -102 -87h-116z" />
    <glyph glyph-name="Uacute" unicode="&#xda;" horiz-adv-x="384" 
d="M247 774l74 110h84l-92 -110h-66zM87 -4q-44 0 -64 25t-13 68l108 611h80l-108 -611q-3 -17 14 -17h96q23 0 27 23l107 605h80l-109 -617q-15 -87 -102 -87h-116z" />
    <glyph glyph-name="Ucircumflex" unicode="&#xdb;" horiz-adv-x="384" 
d="M183 774l74 110h84l34 -110h-52l-30 64l-54 -64h-56zM87 -4q-44 0 -64 25t-13 68l108 611h80l-108 -611q-3 -17 14 -17h96q23 0 27 23l107 605h80l-109 -617q-15 -87 -102 -87h-116z" />
    <glyph glyph-name="Udieresis" unicode="&#xdc;" horiz-adv-x="384" 
d="M186 774l14 80h70l-14 -80h-70zM304 774l14 80h70l-14 -80h-70zM87 -4q-44 0 -64 25t-13 68l108 611h80l-108 -611q-3 -17 14 -17h96q23 0 27 23l107 605h80l-109 -617q-15 -87 -102 -87h-116z" />
    <glyph glyph-name="Yacute" unicode="&#xdd;" horiz-adv-x="354" 
d="M231 774l74 110h84l-92 -110h-66zM82 700h78l33 -321l147 321h82l-210 -450l-44 -250h-80l44 250z" />
    <glyph glyph-name="Thorn" unicode="&#xde;" horiz-adv-x="370" 
d="M-4 0l123 700h80l-25 -144h119q44 0 64 -25t12 -68l-41 -232q-15 -87 -102 -87h-125l-25 -144h-80zM115 220h109q22 0 26 23l39 220q4 17 -14 17h-115z" />
    <glyph glyph-name="germandbls" unicode="&#xdf;" horiz-adv-x="379" 
d="M-4 0l108 617q16 87 102 87h116q43 0 63 -25t12 -68l-31 -177q-10 -59 -64 -79q47 -20 36 -81l-34 -191q-15 -87 -102 -87h-83l12 70h76q18 0 22 19l39 224q3 13 -11 13h-81l13 70h75q18 0 22 19l37 210q3 13 -11 13h-110q-18 0 -22 -19l-108 -615h-76z" />
    <glyph glyph-name="agrave" unicode="&#xe0;" horiz-adv-x="339" 
d="M192 610l-52 110h80l34 -110h-62zM68 -4q-44 0 -64.5 24.5t-12.5 68.5l20 114q15 79 89 100l133 37l25 141q2 13 -11 13h-80q-19 0 -22 -19l-16 -95h-76l17 97q15 87 102 87h84q44 0 64 -25t13 -68l-83 -471h-76l9 46l-49 -50h-66zM77 66h108l36 199l-113 -34
q-6 -2 -9 -3.5t-6 -5.5t-4 -11l-23 -132q-2 -13 11 -13z" />
    <glyph glyph-name="aacute" unicode="&#xe1;" horiz-adv-x="339" 
d="M190 610l74 110h84l-92 -110h-66zM68 -4q-44 0 -64.5 24.5t-12.5 68.5l20 114q15 79 89 100l133 37l25 141q2 13 -11 13h-80q-19 0 -22 -19l-16 -95h-76l17 97q15 87 102 87h84q44 0 64 -25t13 -68l-83 -471h-76l9 46l-49 -50h-66zM77 66h108l36 199l-113 -34
q-6 -2 -9 -3.5t-6 -5.5t-4 -11l-23 -132q-2 -13 11 -13z" />
    <glyph glyph-name="acircumflex" unicode="&#xe2;" horiz-adv-x="339" 
d="M126 610l74 110h84l34 -110h-52l-30 64l-54 -64h-56zM68 -4q-44 0 -64.5 24.5t-12.5 68.5l20 114q15 79 89 100l133 37l25 141q2 13 -11 13h-80q-19 0 -22 -19l-16 -95h-76l17 97q15 87 102 87h84q44 0 64 -25t13 -68l-83 -471h-76l9 46l-49 -50h-66zM77 66h108l36 199
l-113 -34q-6 -2 -9 -3.5t-6 -5.5t-4 -11l-23 -132q-2 -13 11 -13z" />
    <glyph glyph-name="atilde" unicode="&#xe3;" horiz-adv-x="339" 
d="M276 625q-24 0 -51 15t-40 15t-22.5 -9.5t-11.5 -18.5l-29 6q18 82 69 82q24 0 51.5 -15t39.5 -15q14 0 23.5 9.5t10.5 18.5l29 -6q-12 -82 -69 -82zM68 -4q-44 0 -64.5 24.5t-12.5 68.5l20 114q15 79 89 100l133 37l25 141q2 13 -11 13h-80q-19 0 -22 -19l-16 -95h-76
l17 97q15 87 102 87h84q44 0 64 -25t13 -68l-83 -471h-76l9 46l-49 -50h-66zM77 66h108l36 199l-113 -34q-6 -2 -9 -3.5t-6 -5.5t-4 -11l-23 -132q-2 -13 11 -13z" />
    <glyph glyph-name="adieresis" unicode="&#xe4;" horiz-adv-x="339" 
d="M132 628l14 80h70l-14 -80h-70zM250 628l14 80h70l-14 -80h-70zM68 -4q-44 0 -64.5 24.5t-12.5 68.5l20 114q15 79 89 100l133 37l25 141q2 13 -11 13h-80q-19 0 -22 -19l-16 -95h-76l17 97q15 87 102 87h84q44 0 64 -25t13 -68l-83 -471h-76l9 46l-49 -50h-66zM77 66
h108l36 199l-113 -34q-6 -2 -9 -3.5t-6 -5.5t-4 -11l-23 -132q-2 -13 11 -13z" />
    <glyph glyph-name="aring" unicode="&#xe5;" horiz-adv-x="339" 
d="M228 610q-33 0 -51.5 19t-18.5 49q0 39 25.5 65.5t64.5 26.5q34 0 52 -18.5t18 -49.5q0 -40 -25.5 -66t-64.5 -26zM231 650q21 0 34 14t13 34q0 13 -9.5 22.5t-23.5 9.5q-21 0 -34 -14t-13 -34q0 -13 9.5 -22.5t23.5 -9.5zM68 -4q-44 0 -64.5 24.5t-12.5 68.5l20 114
q15 79 89 100l133 37l25 141q2 13 -11 13h-80q-19 0 -22 -19l-16 -95h-76l17 97q15 87 102 87h84q44 0 64 -25t13 -68l-83 -471h-76l9 46l-49 -50h-66zM77 66h108l36 199l-113 -34q-6 -2 -9 -3.5t-6 -5.5t-4 -11l-23 -132q-2 -13 11 -13z" />
    <glyph glyph-name="ae" unicode="&#xe6;" horiz-adv-x="530" 
d="M56 -6q-38 0 -55.5 24.5t-9.5 68.5l20 116q15 76 89 100l134 40l25 140q3 13 -11 13h-80q-18 0 -22 -19l-18 -103h-76l18 105q15 87 103 87h97l31 -50l49 50h101q43 0 63.5 -24.5t12.5 -68.5l-39 -222h-194l-31 -174q-3 -13 11 -13h86q18 0 22 19l18 102h76l-18 -104
q-15 -87 -103 -87h-103l-31 50l-49 -50h-116zM306 321h118l29 162q3 13 -11 13h-86q-18 0 -22 -19zM76 64h90q18 0 22 18l33 183l-113 -34q-17 -5 -19 -20l-24 -134q-3 -13 11 -13z" />
    <glyph glyph-name="ccedilla" unicode="&#xe7;" horiz-adv-x="347" 
d="M269 564q44 0 64 -25t13 -68l-22 -125h-76l23 135q3 13 -11 13h-90q-18 0 -22 -19l-69 -396q-3 -13 11 -13h90q18 0 22 19l22 129h76l-23 -131q-15 -87 -102 -87h-19l-23 -106h-82l40 106h-10q-44 0 -64 25t-13 68l69 388q15 87 102 87h94z" />
    <glyph glyph-name="egrave" unicode="&#xe8;" horiz-adv-x="349" 
d="M202 610l-52 110h80l34 -110h-62zM81 -4q-44 0 -64 25t-13 68l69 388q15 87 102 87h94q44 0 64 -25t13 -68l-39 -220h-198l-30 -172q-2 -13 11 -13h90q19 0 22 19l16 94h76l-17 -96q-15 -87 -102 -87h-94zM121 321h122l28 160q2 13 -11 13h-90q-19 0 -22 -19z" />
    <glyph glyph-name="eacute" unicode="&#xe9;" horiz-adv-x="349" 
d="M200 610l74 110h84l-92 -110h-66zM81 -4q-44 0 -64 25t-13 68l69 388q15 87 102 87h94q44 0 64 -25t13 -68l-39 -220h-198l-30 -172q-2 -13 11 -13h90q19 0 22 19l16 94h76l-17 -96q-15 -87 -102 -87h-94zM121 321h122l28 160q2 13 -11 13h-90q-19 0 -22 -19z" />
    <glyph glyph-name="ecircumflex" unicode="&#xea;" horiz-adv-x="349" 
d="M136 610l74 110h84l34 -110h-52l-30 64l-54 -64h-56zM81 -4q-44 0 -64 25t-13 68l69 388q15 87 102 87h94q44 0 64 -25t13 -68l-39 -220h-198l-30 -172q-2 -13 11 -13h90q19 0 22 19l16 94h76l-17 -96q-15 -87 -102 -87h-94zM121 321h122l28 160q2 13 -11 13h-90
q-19 0 -22 -19z" />
    <glyph glyph-name="edieresis" unicode="&#xeb;" horiz-adv-x="349" 
d="M142 628l14 80h70l-14 -80h-70zM260 628l14 80h70l-14 -80h-70zM81 -4q-44 0 -64 25t-13 68l69 388q15 87 102 87h94q44 0 64 -25t13 -68l-39 -220h-198l-30 -172q-2 -13 11 -13h90q19 0 22 19l16 94h76l-17 -96q-15 -87 -102 -87h-94zM121 321h122l28 160q2 13 -11 13
h-90q-19 0 -22 -19z" />
    <glyph glyph-name="igrave" unicode="&#xec;" horiz-adv-x="156" 
d="M105 610l-52 110h80l34 -110h-62zM-9 0l98 560h76l-98 -560h-76z" />
    <glyph glyph-name="iacute" unicode="&#xed;" horiz-adv-x="156" 
d="M103 610l74 110h84l-92 -110h-66zM-9 0l98 560h76l-98 -560h-76z" />
    <glyph glyph-name="icircumflex" unicode="&#xee;" horiz-adv-x="156" 
d="M39 610l74 110h84l34 -110h-52l-30 64l-54 -64h-56zM-9 0l98 560h76l-98 -560h-76z" />
    <glyph glyph-name="idieresis" unicode="&#xef;" horiz-adv-x="156" 
d="M45 628l14 80h70l-14 -80h-70zM163 628l14 80h70l-14 -80h-70zM-9 0l98 560h76l-98 -560h-76z" />
    <glyph glyph-name="eth" unicode="&#xf0;" horiz-adv-x="354" 
d="M82 -4q-44 0 -64 25t-13 68l64 364q17 87 103 87h70l31 -50l2 3l-19 107h-85l9 50h67l-12 70h75l12 -70h97l-49 -50h-40l19 -110l-71 -407q-15 -87 -102 -87h-94zM91 66h90q18 0 22 19l68 385h-104q-18 0 -22 -19l-65 -372q-3 -13 11 -13z" />
    <glyph glyph-name="ntilde" unicode="&#xf1;" horiz-adv-x="354" 
d="M288 625q-24 0 -51 15t-40 15t-22.5 -9.5t-11.5 -18.5l-29 6q18 82 69 82q24 0 51.5 -15t39.5 -15q14 0 23.5 9.5t10.5 18.5l29 -6q-12 -82 -69 -82zM-9 0l98 560h76l-8 -45l48 49h66q44 0 64 -25t13 -68l-83 -471h-76l84 481q2 13 -11 13h-109l-86 -494h-76z" />
    <glyph glyph-name="ograve" unicode="&#xf2;" horiz-adv-x="350" 
d="M200 610l-52 110h80l34 -110h-62zM81 -4q-44 0 -64 25t-13 68l69 388q15 87 102 87h94q44 0 64 -25t13 -68l-69 -388q-15 -87 -102 -87h-94zM90 66h90q19 0 22 19l69 396q2 13 -11 13h-90q-19 0 -22 -19l-69 -396q-2 -13 11 -13z" />
    <glyph glyph-name="oacute" unicode="&#xf3;" horiz-adv-x="350" 
d="M198 610l74 110h84l-92 -110h-66zM81 -4q-44 0 -64 25t-13 68l69 388q15 87 102 87h94q44 0 64 -25t13 -68l-69 -388q-15 -87 -102 -87h-94zM90 66h90q19 0 22 19l69 396q2 13 -11 13h-90q-19 0 -22 -19l-69 -396q-2 -13 11 -13z" />
    <glyph glyph-name="ocircumflex" unicode="&#xf4;" horiz-adv-x="350" 
d="M134 610l74 110h84l34 -110h-52l-30 64l-54 -64h-56zM81 -4q-44 0 -64 25t-13 68l69 388q15 87 102 87h94q44 0 64 -25t13 -68l-69 -388q-15 -87 -102 -87h-94zM90 66h90q19 0 22 19l69 396q2 13 -11 13h-90q-19 0 -22 -19l-69 -396q-2 -13 11 -13z" />
    <glyph glyph-name="otilde" unicode="&#xf5;" horiz-adv-x="350" 
d="M284 625q-24 0 -51 15t-40 15t-22.5 -9.5t-11.5 -18.5l-29 6q18 82 69 82q24 0 51.5 -15t39.5 -15q14 0 23.5 9.5t10.5 18.5l29 -6q-12 -82 -69 -82zM81 -4q-44 0 -64 25t-13 68l69 388q15 87 102 87h94q44 0 64 -25t13 -68l-69 -388q-15 -87 -102 -87h-94zM90 66h90
q19 0 22 19l69 396q2 13 -11 13h-90q-19 0 -22 -19l-69 -396q-2 -13 11 -13z" />
    <glyph glyph-name="odieresis" unicode="&#xf6;" horiz-adv-x="350" 
d="M140 628l14 80h70l-14 -80h-70zM258 628l14 80h70l-14 -80h-70zM81 -4q-44 0 -64 25t-13 68l69 388q15 87 102 87h94q44 0 64 -25t13 -68l-69 -388q-15 -87 -102 -87h-94zM90 66h90q19 0 22 19l69 396q2 13 -11 13h-90q-19 0 -22 -19l-69 -396q-2 -13 11 -13z" />
    <glyph glyph-name="divide" unicode="&#xf7;" horiz-adv-x="400" 
d="M190 437l13 76h76l-13 -76h-76zM35 311l14 76h340l-14 -76h-340zM145 185l14 76h76l-14 -76h-76z" />
    <glyph glyph-name="oslash" unicode="&#xf8;" horiz-adv-x="350" 
d="M81 -4q-44 0 -64 25t-13 68l69 388q15 87 102 87h94q44 0 64 -25t13 -68l-69 -388q-15 -87 -102 -87h-94zM99 194l172 287q3 13 -11 13h-90q-18 0 -22 -19zM90 66h90q18 0 22 19l49 281l-172 -287q-3 -13 11 -13z" />
    <glyph glyph-name="ugrave" unicode="&#xf9;" horiz-adv-x="349" 
d="M199 610l-52 110h80l34 -110h-62zM78 -4q-44 0 -64 25t-13 68l83 471h76l-84 -481q-2 -13 11 -13h109l86 494h76l-98 -560h-76l8 45l-48 -49h-66z" />
    <glyph glyph-name="uacute" unicode="&#xfa;" horiz-adv-x="349" 
d="M197 610l74 110h84l-92 -110h-66zM78 -4q-44 0 -64 25t-13 68l83 471h76l-84 -481q-2 -13 11 -13h109l86 494h76l-98 -560h-76l8 45l-48 -49h-66z" />
    <glyph glyph-name="ucircumflex" unicode="&#xfb;" horiz-adv-x="349" 
d="M133 610l74 110h84l34 -110h-52l-30 64l-54 -64h-56zM78 -4q-44 0 -64 25t-13 68l83 471h76l-84 -481q-2 -13 11 -13h109l86 494h76l-98 -560h-76l8 45l-48 -49h-66z" />
    <glyph glyph-name="udieresis" unicode="&#xfc;" horiz-adv-x="349" 
d="M139 628l14 80h70l-14 -80h-70zM257 628l14 80h70l-14 -80h-70zM78 -4q-44 0 -64 25t-13 68l83 471h76l-84 -481q-2 -13 11 -13h109l86 494h76l-98 -560h-76l8 45l-48 -49h-66z" />
    <glyph glyph-name="yacute" unicode="&#xfd;" horiz-adv-x="324" 
d="M187 610l74 110h84l-92 -110h-66zM40 -160l57 160h-46l6 560h80l-14 -499l162 499h82l-247 -720h-80z" />
    <glyph glyph-name="thorn" unicode="&#xfe;" horiz-adv-x="352" 
d="M-38 -160l152 860h76l-34 -186l49 50h66q44 0 64 -25t13 -68l-69 -388q-15 -87 -102 -87h-70l-31 50l-38 -206h-76zM78 66h104q18 0 22 19l69 396q3 13 -11 13h-108z" />
    <glyph glyph-name="ydieresis" unicode="&#xff;" horiz-adv-x="324" 
d="M129 628l14 80h70l-14 -80h-70zM247 628l14 80h70l-14 -80h-70zM40 -160l57 160h-46l6 560h80l-14 -499l162 499h82l-247 -720h-80z" />
    <glyph glyph-name="Amacron" unicode="&#x100;" horiz-adv-x="374" 
d="M191 774l11 60h166l-11 -60h-166zM-33 0l229 700h130l-19 -700h-80l5 160h-134l-51 -160h-80zM123 236h112l12 388z" />
    <glyph glyph-name="amacron" unicode="&#x101;" horiz-adv-x="339" 
d="M145 634l11 60h166l-11 -60h-166zM68 -4q-44 0 -64.5 24.5t-12.5 68.5l20 114q15 79 89 100l133 37l25 141q2 13 -11 13h-80q-19 0 -22 -19l-16 -95h-76l17 97q15 87 102 87h84q44 0 64 -25t13 -68l-83 -471h-76l9 46l-49 -50h-66zM77 66h108l36 199l-113 -34
q-6 -2 -9 -3.5t-6 -5.5t-4 -11l-23 -132q-2 -13 11 -13z" />
    <glyph glyph-name="Abreve" unicode="&#x102;" horiz-adv-x="374" 
d="M270 770q-43 0 -68.5 29.5t-18.5 70.5h54q-3 -21 8.5 -35.5t28.5 -14.5q22 0 36 14t17 36h54q-7 -46 -36.5 -73t-74.5 -27zM-33 0l229 700h130l-19 -700h-80l5 160h-134l-51 -160h-80zM123 236h112l12 388z" />
    <glyph glyph-name="abreve" unicode="&#x103;" horiz-adv-x="339" 
d="M228 610q-43 0 -68.5 29.5t-18.5 70.5h54q-3 -21 8.5 -35.5t28.5 -14.5q23 0 37 14t17 36h54q-7 -46 -37 -73t-75 -27zM68 -4q-44 0 -64.5 24.5t-12.5 68.5l20 114q15 79 89 100l133 37l25 141q2 13 -11 13h-80q-19 0 -22 -19l-16 -95h-76l17 97q15 87 102 87h84
q44 0 64 -25t13 -68l-83 -471h-76l9 46l-49 -50h-66zM77 66h108l36 199l-113 -34q-6 -2 -9 -3.5t-6 -5.5t-4 -11l-23 -132q-2 -13 11 -13z" />
    <glyph glyph-name="Aogonek" unicode="&#x104;" horiz-adv-x="374" 
d="M326 700l-19 -700l-72 -105h52l-10 -60h-52q-42 0 -51.5 30.5t13.5 61.5l52 73h-12l5 160h-134l-51 -160h-80l229 700h130zM235 236l12 388l-124 -388h112z" />
    <glyph glyph-name="aogonek" unicode="&#x105;" horiz-adv-x="339" 
d="M256 564q44 0 64 -25t13 -68l-83 -471l-72 -105h52l-10 -60h-52q-42 0 -51.5 30.5t13.5 61.5l52 73h-8l9 46l-49 -50h-66q-44 0 -64.5 24.5t-12.5 68.5l20 114q15 79 89 100l133 37l25 141q2 13 -11 13h-80q-19 0 -22 -19l-16 -95h-76l17 97q15 87 102 87h84zM77 66h108
l36 199l-113 -34q-6 -2 -9 -3.5t-6 -5.5t-4 -11l-23 -132q-2 -13 11 -13z" />
    <glyph glyph-name="Cacute" unicode="&#x106;" horiz-adv-x="377" 
d="M247 774l74 110h84l-92 -110h-66zM86 -4q-44 0 -64 25t-13 68l93 528q16 87 103 87h116q44 0 64 -25t12 -68l-30 -171h-80l30 171q3 17 -14 17h-96q-23 0 -27 -23l-91 -516q-3 -17 14 -17h96q23 0 27 23l29 165h80l-31 -177q-15 -87 -102 -87h-116z" />
    <glyph glyph-name="cacute" unicode="&#x107;" horiz-adv-x="347" 
d="M199 610l74 110h84l-92 -110h-66zM81 -4q-44 0 -64 25t-13 68l69 388q15 87 102 87h94q44 0 64 -25t13 -68l-22 -125h-76l23 135q3 13 -11 13h-90q-18 0 -22 -19l-69 -396q-3 -13 11 -13h90q18 0 22 19l22 129h76l-23 -131q-15 -87 -102 -87h-94z" />
    <glyph glyph-name="Ccircumflex" unicode="&#x108;" horiz-adv-x="377" 
d="M175 774l74 110h84l34 -110h-52l-30 64l-54 -64h-56zM86 -4q-44 0 -64 25t-13 68l93 528q16 87 103 87h116q44 0 64 -25t12 -68l-30 -171h-80l30 171q3 17 -14 17h-96q-23 0 -27 -23l-91 -516q-3 -17 14 -17h96q23 0 27 23l29 165h80l-31 -177q-15 -87 -102 -87h-116z
" />
    <glyph glyph-name="ccircumflex" unicode="&#x109;" horiz-adv-x="347" 
d="M135 610l74 110h84l34 -110h-52l-30 64l-54 -64h-56zM81 -4q-44 0 -64 25t-13 68l69 388q15 87 102 87h94q44 0 64 -25t13 -68l-22 -125h-76l23 135q3 13 -11 13h-90q-18 0 -22 -19l-69 -396q-3 -13 11 -13h90q18 0 22 19l22 129h76l-23 -131q-15 -87 -102 -87h-94z" />
    <glyph glyph-name="Cdotaccent" unicode="&#x10a;" horiz-adv-x="377" 
d="M234 774l14 80h76l-14 -80h-76zM86 -4q-44 0 -64 25t-13 68l93 528q16 87 103 87h116q44 0 64 -25t12 -68l-30 -171h-80l30 171q3 17 -14 17h-96q-23 0 -27 -23l-91 -516q-3 -17 14 -17h96q23 0 27 23l29 165h80l-31 -177q-15 -87 -102 -87h-116z" />
    <glyph glyph-name="cdotaccent" unicode="&#x10b;" horiz-adv-x="347" 
d="M197 628l14 80h76l-14 -80h-76zM81 -4q-44 0 -64 25t-13 68l69 388q15 87 102 87h94q44 0 64 -25t13 -68l-22 -125h-76l23 135q3 13 -11 13h-90q-18 0 -22 -19l-69 -396q-3 -13 11 -13h90q18 0 22 19l22 129h76l-23 -131q-15 -87 -102 -87h-94z" />
    <glyph glyph-name="Ccaron" unicode="&#x10c;" horiz-adv-x="377" 
d="M196 884h52l31 -64l53 64h56l-73 -110h-84zM86 -4q-44 0 -64 25t-13 68l93 528q16 87 103 87h116q44 0 64 -25t12 -68l-30 -171h-80l30 171q3 17 -14 17h-96q-23 0 -27 -23l-91 -516q-3 -17 14 -17h96q23 0 27 23l29 165h80l-31 -177q-15 -87 -102 -87h-116z" />
    <glyph glyph-name="ccaron" unicode="&#x10d;" horiz-adv-x="347" 
d="M157 720h52l30 -64l54 64h56l-74 -110h-84zM81 -4q-44 0 -64 25t-13 68l69 388q15 87 102 87h94q44 0 64 -25t13 -68l-22 -125h-76l23 135q3 13 -11 13h-90q-18 0 -22 -19l-69 -396q-3 -13 11 -13h90q18 0 22 19l22 129h76l-23 -131q-15 -87 -102 -87h-94z" />
    <glyph glyph-name="Dcaron" unicode="&#x10e;" horiz-adv-x="384" 
d="M179 884h52l31 -64l53 64h56l-73 -110h-84zM-4 0l123 700h203q44 0 64 -25t13 -68l-92 -520q-15 -87 -103 -87h-208zM89 76h113q23 0 27 23l90 508q3 17 -14 17h-119z" />
    <glyph glyph-name="dcaron" unicode="&#x10f;" horiz-adv-x="435" 
d="M81 -4q-44 0 -64 25t-13 68l69 388q15 87 102 87h70l31 -50l38 206h76l-127 -720h-76l9 46l-49 -50h-66zM402 580l25 140h76l-55 -140h-46zM90 66h108l76 428h-104q-18 0 -22 -19l-69 -396q-3 -13 11 -13z" />
    <glyph glyph-name="Dcroat" unicode="&#x110;" horiz-adv-x="399" 
d="M11 0l55 312h-50l13 76h50l55 312h203q44 0 64 -25t13 -68l-92 -520q-15 -87 -103 -87h-208zM105 76h112q23 0 27 23l90 508q3 17 -15 17h-119l-41 -236h70l-13 -76h-70z" />
    <glyph glyph-name="dcroat" unicode="&#x111;" horiz-adv-x="349" 
d="M409 660l-9 -50h-29l-108 -610h-76l9 46l-49 -50h-66q-44 0 -64 25t-13 68l69 388q15 87 102 87h70l31 -50l18 96h-80l9 50h80l11 60h76l-11 -60h30zM198 66l76 428h-104q-18 0 -22 -19l-69 -396q-3 -13 11 -13h108z" />
    <glyph glyph-name="Emacron" unicode="&#x112;" horiz-adv-x="314" 
d="M166 774l11 60h166l-11 -60h-166zM-4 0l123 700h242l-13 -76h-162l-41 -230h156l-13 -76h-156l-43 -242h166l-13 -76h-246z" />
    <glyph glyph-name="emacron" unicode="&#x113;" horiz-adv-x="349" 
d="M154 634l11 60h166l-11 -60h-166zM81 -4q-44 0 -64 25t-13 68l69 388q15 87 102 87h94q44 0 64 -25t13 -68l-39 -220h-198l-30 -172q-2 -13 11 -13h90q19 0 22 19l16 94h76l-17 -96q-15 -87 -102 -87h-94zM121 321h122l28 160q2 13 -11 13h-90q-19 0 -22 -19z" />
    <glyph glyph-name="Edotaccent" unicode="&#x116;" horiz-adv-x="314" 
d="M211 774l14 80h76l-14 -80h-76zM-4 0l123 700h242l-13 -76h-162l-41 -230h156l-13 -76h-156l-43 -242h166l-13 -76h-246z" />
    <glyph glyph-name="edotaccent" unicode="&#x117;" horiz-adv-x="349" 
d="M198 628l14 80h76l-14 -80h-76zM81 -4q-44 0 -64 25t-13 68l69 388q15 87 102 87h94q44 0 64 -25t13 -68l-39 -220h-198l-30 -172q-2 -13 11 -13h90q19 0 22 19l16 94h76l-17 -96q-15 -87 -102 -87h-94zM121 321h122l28 160q2 13 -11 13h-90q-19 0 -22 -19z" />
    <glyph glyph-name="Eogonek" unicode="&#x118;" horiz-adv-x="314" 
d="M348 624h-162l-41 -230h156l-13 -76h-156l-43 -242h166l-13 -76l-72 -105h52l-10 -60h-52q-42 0 -51.5 30.5t13.5 61.5l52 73h-178l123 700h242z" />
    <glyph glyph-name="eogonek" unicode="&#x119;" horiz-adv-x="349" 
d="M141 -175q-40 0 -47.5 28t21.5 74l48 69h-82q-44 0 -64 25t-13 68l69 388q15 87 102 87h94q44 0 64 -25t13 -68l-39 -220h-198l-30 -172q-3 -13 11 -13h90q18 0 22 19l16 94h76l-17 -96q-6 -38 -27 -59l-87 -129h52l-12 -70h-62zM121 321h122l28 160q3 13 -11 13h-90
q-18 0 -22 -19z" />
    <glyph glyph-name="Ecaron" unicode="&#x11a;" horiz-adv-x="314" 
d="M176 884h52l31 -64l53 64h56l-73 -110h-84zM-4 0l123 700h242l-13 -76h-162l-41 -230h156l-13 -76h-156l-43 -242h166l-13 -76h-246z" />
    <glyph glyph-name="ecaron" unicode="&#x11b;" horiz-adv-x="349" 
d="M151 720h52l30 -64l54 64h56l-74 -110h-84zM81 -4q-44 0 -64 25t-13 68l69 388q15 87 102 87h94q44 0 64 -25t13 -68l-39 -220h-198l-30 -172q-2 -13 11 -13h90q19 0 22 19l16 94h76l-17 -96q-15 -87 -102 -87h-94zM121 321h122l28 160q2 13 -11 13h-90q-19 0 -22 -19z
" />
    <glyph glyph-name="Gcircumflex" unicode="&#x11c;" horiz-adv-x="381" 
d="M180 774l74 110h84l34 -110h-52l-30 64l-54 -64h-56zM86 -4q-44 0 -64 25t-13 68l93 528q16 87 103 87h116q44 0 64 -25t12 -68l-30 -171h-80l30 171q3 17 -14 17h-96q-23 0 -27 -23l-91 -516q-3 -17 14 -17h119l38 212h-70l13 76h150l-63 -360h-80l9 46l-49 -50h-84z
" />
    <glyph glyph-name="gcircumflex" unicode="&#x11d;" horiz-adv-x="352" 
d="M134 610l74 110h84l34 -110h-52l-30 64l-54 -64h-56zM7 103l66 374q15 87 102 87h70l31 -50l9 46h76l-112 -637q-15 -87 -103 -87h-88q-43 0 -63.5 24.5t-12.5 68.5l5 28h76l-7 -38q-2 -13 11 -13h84q19 0 22 19l25 135l-49 -50h-66q-43 0 -63.5 24.5t-12.5 68.5zM81 93
q-2 -13 11 -13h109l73 414h-104q-19 0 -22 -19z" />
    <glyph glyph-name="Gbreve" unicode="&#x11e;" horiz-adv-x="381" 
d="M273 770q-43 0 -68.5 29.5t-18.5 70.5h54q-3 -21 8.5 -35.5t28.5 -14.5q22 0 36 14t17 36h54q-7 -46 -36.5 -73t-74.5 -27zM86 -4q-44 0 -64 25t-13 68l93 528q16 87 103 87h116q44 0 64 -25t12 -68l-30 -171h-80l30 171q3 17 -14 17h-96q-23 0 -27 -23l-91 -516
q-3 -17 14 -17h119l38 212h-70l13 76h150l-63 -360h-80l9 46l-49 -50h-84z" />
    <glyph glyph-name="gbreve" unicode="&#x11f;" horiz-adv-x="352" 
d="M236 610q-43 0 -68.5 29.5t-18.5 70.5h54q-3 -21 8.5 -35.5t28.5 -14.5q23 0 37 14t17 36h54q-7 -46 -37 -73t-75 -27zM7 103l66 374q15 87 102 87h70l31 -50l9 46h76l-112 -637q-15 -87 -103 -87h-88q-43 0 -63.5 24.5t-12.5 68.5l5 28h76l-7 -38q-2 -13 11 -13h84
q19 0 22 19l25 135l-49 -50h-66q-43 0 -63.5 24.5t-12.5 68.5zM81 93q-2 -13 11 -13h109l73 414h-104q-19 0 -22 -19z" />
    <glyph glyph-name="Gdotaccent" unicode="&#x120;" horiz-adv-x="381" 
d="M239 774l14 80h76l-14 -80h-76zM86 -4q-44 0 -64 25t-13 68l93 528q16 87 103 87h116q44 0 64 -25t12 -68l-30 -171h-80l30 171q3 17 -14 17h-96q-23 0 -27 -23l-91 -516q-3 -17 14 -17h119l38 212h-70l13 76h150l-63 -360h-80l9 46l-49 -50h-84z" />
    <glyph glyph-name="gdotaccent" unicode="&#x121;" horiz-adv-x="352" 
d="M196 628l14 80h76l-14 -80h-76zM7 103l66 374q15 87 102 87h70l31 -50l9 46h76l-112 -637q-15 -87 -103 -87h-88q-43 0 -63.5 24.5t-12.5 68.5l5 28h76l-7 -38q-2 -13 11 -13h84q19 0 22 19l25 135l-49 -50h-66q-43 0 -63.5 24.5t-12.5 68.5zM81 93q-2 -13 11 -13h109
l73 414h-104q-19 0 -22 -19z" />
    <glyph glyph-name="Gcommaaccent" unicode="&#x122;" horiz-adv-x="381" 
d="M86 -4q-44 0 -64 25t-13 68l93 528q16 87 103 87h116q44 0 64 -25t12 -68l-30 -171h-80l30 171q3 17 -14 17h-96q-23 0 -27 -23l-91 -516q-3 -17 14 -17h119l38 212h-70l13 76h150l-63 -360h-80l9 46l-49 -50h-84zM73 -194l5 30q14 0 24.5 10t13.5 27h-31l12 67h66
l-11 -62q-13 -72 -79 -72z" />
    <glyph glyph-name="gcommaaccent" unicode="&#x123;" horiz-adv-x="352" 
d="M185 610l11 62q13 72 79 72l-5 -30q-14 0 -24.5 -10t-13.5 -27h31l-12 -67h-66zM7 103l66 374q15 87 102 87h70l31 -50l9 46h76l-112 -637q-15 -87 -103 -87h-88q-43 0 -63.5 24.5t-12.5 68.5l5 28h76l-7 -38q-2 -13 11 -13h84q19 0 22 19l25 135l-49 -50h-66
q-43 0 -63.5 24.5t-12.5 68.5zM81 93q-2 -13 11 -13h109l73 414h-104q-19 0 -22 -19z" />
    <glyph glyph-name="Hcircumflex" unicode="&#x124;" horiz-adv-x="386" 
d="M183 774l74 110h84l34 -110h-52l-30 64l-54 -64h-56zM-4 0l123 700h80l-56 -314h137l55 314h80l-123 -700h-80l55 310h-136l-55 -310h-80z" />
    <glyph glyph-name="hcircumflex" unicode="&#x125;" horiz-adv-x="354" 
d="M64 750l73 110h84l35 -110h-52l-31 64l-53 -64h-56zM-9 0l127 720h76l-36 -204l47 48h77q38 0 55.5 -25t10.5 -68l-83 -471h-76l84 481q3 13 -11 13h-108l-87 -494h-76z" />
    <glyph glyph-name="Hbar" unicode="&#x126;" horiz-adv-x="396" 
d="M1 0l90 512h-42l10 60h43l22 128h80l-22 -128h136l22 128h80l-22 -128h41l-10 -60h-42l-90 -512h-80l54 310h-136l-54 -310h-80zM149 386h136l22 126h-136z" />
    <glyph glyph-name="hbar" unicode="&#x127;" horiz-adv-x="354" 
d="M-9 0l108 610h-31l9 50h30l11 60h76l-11 -60h80l-9 -50h-79l-17 -94l47 48h66q44 0 64 -25t13 -68l-83 -471h-76l84 481q3 13 -11 13h-108l-87 -494h-76z" />
    <glyph glyph-name="Itilde" unicode="&#x128;" horiz-adv-x="170" 
d="M221 765q-24 0 -51.5 15t-39.5 15q-14 0 -23.5 -9.5t-10.5 -18.5l-29 6q12 82 69 82q23 0 50.5 -15t39.5 -15q14 0 23.5 9.5t11.5 18.5l29 -6q-18 -82 -69 -82zM-4 0l123 700h80l-123 -700h-80z" />
    <glyph glyph-name="itilde" unicode="&#x129;" horiz-adv-x="156" 
d="M189 625q-24 0 -51 15t-40 15t-22.5 -9.5t-11.5 -18.5l-29 6q18 82 69 82q24 0 51.5 -15t39.5 -15q14 0 23.5 9.5t10.5 18.5l29 -6q-12 -82 -69 -82zM-9 0l98 560h76l-98 -560h-76z" />
    <glyph glyph-name="Imacron" unicode="&#x12a;" horiz-adv-x="170" 
d="M89 774l11 60h166l-11 -60h-166zM-4 0l123 700h80l-123 -700h-80z" />
    <glyph glyph-name="imacron" unicode="&#x12b;" horiz-adv-x="156" 
d="M57 634l11 60h166l-11 -60h-166zM-9 0l98 560h76l-98 -560h-76z" />
    <glyph glyph-name="Iogonek" unicode="&#x12e;" horiz-adv-x="170" 
d="M199 700l-123 -700l-72 -105h52l-10 -60h-52q-42 0 -51.5 30.5t13.5 61.5l52 73h-12l123 700h80z" />
    <glyph glyph-name="iogonek" unicode="&#x12f;" horiz-adv-x="156" 
d="M118 720h76l-15 -80h-76zM-9 0l98 560h76l-98 -560l-72 -105h52l-10 -60h-52q-42 0 -51.5 30.5t13.5 61.5l52 73h-8z" />
    <glyph glyph-name="Idotaccent" unicode="&#x130;" horiz-adv-x="170" 
d="M134 774l14 80h76l-14 -80h-76zM-4 0l123 700h80l-123 -700h-80z" />
    <glyph glyph-name="dotlessi" unicode="&#x131;" horiz-adv-x="156" 
d="M-9 0l98 560h76l-98 -560h-76z" />
    <glyph glyph-name="IJ" unicode="&#x132;" horiz-adv-x="430" 
d="M-4 0l123 700h80l-123 -700h-80zM140 -4l13 76h93q23 0 27 23l94 529h-116l13 76h196l-109 -617q-15 -87 -102 -87h-109z" />
    <glyph glyph-name="ij" unicode="&#x133;" horiz-adv-x="313" 
d="M103 640l15 80h76l-15 -80h-76zM260 640l15 80h76l-15 -80h-76zM-9 0l98 560h76l-98 -560h-76zM61 -160l13 70h39q19 0 22 19l111 631h76l-111 -633q-15 -87 -103 -87h-47z" />
    <glyph glyph-name="Jcircumflex" unicode="&#x134;" horiz-adv-x="260" 
d="M126 774l74 110h84l34 -110h-52l-30 64l-54 -64h-56zM-30 -4l13 76h93q23 0 27 23l94 529h-116l13 76h196l-109 -617q-15 -87 -102 -87h-109z" />
    <glyph glyph-name="jcircumflex" unicode="&#x135;" horiz-adv-x="156" 
d="M39 610l74 110h84l34 -110h-52l-30 64l-54 -64h-56zM-95 -160l13 70h39q18 0 22 19l111 631h76l-111 -633q-15 -87 -103 -87h-47z" />
    <glyph glyph-name="Kcommaaccent" unicode="&#x136;" horiz-adv-x="360" 
d="M-4 0l123 700h80l-59 -335l201 335h86l-211 -354l86 -346h-78l-87 343l-61 -343h-80zM63 -194l5 30q14 0 24.5 10t13.5 27h-31l12 67h66l-11 -62q-13 -72 -79 -72z" />
    <glyph glyph-name="kcommaaccent" unicode="&#x137;" horiz-adv-x="354" 
d="M118 720h76l-76 -430l-51 -290h-76zM392 560l-192 -270l92 -290h-80l-94 290l190 270h84zM70 -127l12 67h66l-11 -62q-13 -72 -79 -72l5 30q14 0 24.5 10t13.5 27h-31z" />
    <glyph glyph-name="Lacute" unicode="&#x139;" horiz-adv-x="302" 
d="M147 774l74 110h84l-92 -110h-66zM-4 0l123 700h80l-110 -624h162l-13 -76h-242z" />
    <glyph glyph-name="lacute" unicode="&#x13a;" horiz-adv-x="156" 
d="M138 774l74 110h84l-92 -110h-66zM-9 0l127 720h76l-127 -720h-76z" />
    <glyph glyph-name="Lcommaaccent" unicode="&#x13b;" horiz-adv-x="302" 
d="M-4 0l123 700h80l-110 -624h162l-13 -76h-242zM40 -194l5 30q14 0 24.5 10t13.5 27h-31l12 67h66l-11 -62q-13 -72 -79 -72z" />
    <glyph glyph-name="lcommaaccent" unicode="&#x13c;" horiz-adv-x="156" 
d="M-9 0l127 720h76l-127 -720h-76zM-39 -194l5 30q14 0 24.5 10t13.5 27h-31l12 67h66l-11 -62q-13 -72 -79 -72z" />
    <glyph glyph-name="Lcaron" unicode="&#x13d;" horiz-adv-x="316" 
d="M-4 0l123 700h80l-110 -624h162l-13 -76h-242zM214 560l25 140h81l-55 -140h-51z" />
    <glyph glyph-name="lcaron" unicode="&#x13e;" horiz-adv-x="252" 
d="M-9 0l127 720h76l-127 -720h-76zM219 580l25 140h76l-55 -140h-46z" />
    <glyph glyph-name="Ldot" unicode="&#x13f;" horiz-adv-x="302" 
d="M-4 0l123 700h80l-110 -624h162l-13 -76h-242zM209 300l19 110h78l-19 -110h-78z" />
    <glyph glyph-name="ldot" unicode="&#x140;" horiz-adv-x="272" 
d="M-9 0l127 720h76l-127 -720h-76zM178 300l19 110h78l-19 -110h-78z" />
    <glyph glyph-name="Lslash" unicode="&#x141;" horiz-adv-x="327" 
d="M21 0l51 289l-65 -29l12 76l66 29l59 335h80l-52 -297l97 43l-13 -76l-98 -43l-44 -251h162l-13 -76h-242z" />
    <glyph glyph-name="lslash" unicode="&#x142;" horiz-adv-x="206" 
d="M6 0l57 325l-48 -19l8 50l49 20l61 344h76l-55 -312l69 28l-8 -50l-70 -28l-63 -358h-76z" />
    <glyph glyph-name="Nacute" unicode="&#x143;" horiz-adv-x="400" 
d="M254 774l74 110h84l-92 -110h-66zM-4 0l123 700h80l87 -354l63 354h80l-123 -700h-80l29 162l-88 354l-91 -516h-80z" />
    <glyph glyph-name="nacute" unicode="&#x144;" horiz-adv-x="354" 
d="M202 610l74 110h84l-92 -110h-66zM-9 0l98 560h76l-8 -45l48 49h66q44 0 64 -25t13 -68l-83 -471h-76l84 481q2 13 -11 13h-109l-86 -494h-76z" />
    <glyph glyph-name="Ncommaaccent" unicode="&#x145;" horiz-adv-x="400" 
d="M-4 0l123 700h80l87 -354l63 354h80l-123 -700h-80l29 162l-88 354l-91 -516h-80zM83 -194l5 30q14 0 24.5 10t13.5 27h-31l12 67h66l-11 -62q-13 -72 -79 -72z" />
    <glyph glyph-name="ncommaaccent" unicode="&#x146;" horiz-adv-x="354" 
d="M-9 0l98 560h76l-8 -45l48 49h66q44 0 64 -25t13 -68l-83 -471h-76l84 481q2 13 -11 13h-109l-86 -494h-76zM60 -194l5 30q14 0 24.5 10t13.5 27h-31l12 67h66l-11 -62q-13 -72 -79 -72z" />
    <glyph glyph-name="Ncaron" unicode="&#x147;" horiz-adv-x="400" 
d="M211 884h52l31 -64l53 64h56l-73 -110h-84zM-4 0l123 700h80l87 -354l63 354h80l-123 -700h-80l29 162l-88 354l-91 -516h-80z" />
    <glyph glyph-name="ncaron" unicode="&#x148;" horiz-adv-x="354" 
d="M160 720h52l30 -64l54 64h56l-74 -110h-84zM-9 0l98 560h76l-8 -45l48 49h66q44 0 64 -25t13 -68l-83 -471h-76l84 481q2 13 -11 13h-109l-86 -494h-76z" />
    <glyph glyph-name="Eng" unicode="&#x14a;" horiz-adv-x="399" 
d="M-4 0l123 700h80l87 -354l63 354h80l-132 -749q-21 -117 -138 -117h-79l14 76h73q20 0 33.5 12t16.5 31l38 209l-88 354l-91 -516h-80z" />
    <glyph glyph-name="eng" unicode="&#x14b;" horiz-adv-x="354" 
d="M-9 0l98 560h76l-9 -46l49 50h66q44 0 64 -25t13 -68l-96 -544q-15 -87 -103 -87h-47l13 70h39q18 0 22 19l97 552q3 13 -11 13h-108l-87 -494h-76z" />
    <glyph glyph-name="Omacron" unicode="&#x14c;" horiz-adv-x="384" 
d="M196 774l11 60h166l-11 -60h-166zM86 -4q-44 0 -64 25t-13 68l93 528q16 87 103 87h118q44 0 64 -25t12 -68l-93 -528q-15 -87 -102 -87h-118zM103 72h98q23 0 27 23l91 516q3 17 -14 17h-98q-23 0 -27 -23l-91 -516q-3 -17 14 -17z" />
    <glyph glyph-name="omacron" unicode="&#x14d;" horiz-adv-x="350" 
d="M152 634l11 60h166l-11 -60h-166zM81 -4q-44 0 -64 25t-13 68l69 388q15 87 102 87h94q44 0 64 -25t13 -68l-69 -388q-15 -87 -102 -87h-94zM90 66h90q19 0 22 19l69 396q2 13 -11 13h-90q-19 0 -22 -19l-69 -396q-2 -13 11 -13z" />
    <glyph glyph-name="Ohungarumlaut" unicode="&#x150;" horiz-adv-x="384" 
d="M201 774l64 110h75l-81 -110h-58zM299 774l64 110h75l-81 -110h-58zM86 -4q-44 0 -64 25t-13 68l93 528q16 87 103 87h118q44 0 64 -25t12 -68l-93 -528q-15 -87 -102 -87h-118zM103 72h98q23 0 27 23l91 516q3 17 -14 17h-98q-23 0 -27 -23l-91 -516q-3 -17 14 -17z" />
    <glyph glyph-name="ohungarumlaut" unicode="&#x151;" horiz-adv-x="354" 
d="M156 610l64 110h76l-82 -110h-58zM254 610l64 110h76l-82 -110h-58zM81 -4q-44 0 -64 25t-13 68l69 388q15 87 102 87h94q44 0 64 -25t13 -68l-69 -388q-15 -87 -102 -87h-94zM90 66h90q19 0 22 19l69 396q2 13 -11 13h-90q-19 0 -22 -19l-69 -396q-2 -13 11 -13z" />
    <glyph glyph-name="OE" unicode="&#x152;" horiz-adv-x="528" 
d="M10 93l92 520q15 87 102 87h371l-13 -76h-162l-41 -230h156l-13 -76h-156l-43 -242h166l-13 -76h-370q-43 0 -63.5 24.5t-12.5 68.5zM90 93q-3 -17 14 -17h119l97 548h-114q-22 0 -26 -23z" />
    <glyph glyph-name="oe" unicode="&#x153;" horiz-adv-x="543" 
d="M81 -4q-44 0 -64 25t-13 68l69 388q15 87 102 87h104l31 -48l49 48h104q44 0 64 -25t13 -68l-39 -220h-198l-30 -172q-3 -13 11 -13h90q18 0 22 19l16 94h76l-17 -96q-15 -87 -102 -87h-108l-31 48l-49 -48h-100zM90 66h86q18 0 22 19l69 396q3 13 -11 13h-86
q-18 0 -22 -19l-69 -396q-3 -13 11 -13zM315 321h122l28 160q3 13 -11 13h-90q-18 0 -22 -19z" />
    <glyph glyph-name="Racute" unicode="&#x154;" horiz-adv-x="375" 
d="M220 774l74 110h84l-92 -110h-66zM-4 0l123 700h199q44 0 64 -25t13 -68l-41 -230q-14 -76 -81 -85l25 -292h-80l-24 290h-67l-51 -290h-80zM140 366h109q23 0 27 23l39 218q3 17 -14 17h-115z" />
    <glyph glyph-name="racute" unicode="&#x155;" horiz-adv-x="239" 
d="M145 610l74 110h84l-92 -110h-66zM-9 0l98 560h76l-9 -50l48 50h74l-12 -70h-113l-86 -490h-76z" />
    <glyph glyph-name="Rcommaaccent" unicode="&#x156;" horiz-adv-x="375" 
d="M-4 0l123 700h199q44 0 64 -25t13 -68l-41 -230q-14 -76 -81 -85l25 -292h-80l-24 290h-67l-51 -290h-80zM140 366h109q23 0 27 23l39 218q3 17 -14 17h-115zM69 -194l5 30q14 0 24.5 10t13.5 27h-31l12 67h66l-11 -62q-13 -72 -79 -72z" />
    <glyph glyph-name="rcommaaccent" unicode="&#x157;" horiz-adv-x="239" 
d="M-9 0l98 560h76l-9 -50l48 50h74l-12 -70h-113l-86 -490h-76zM-39 -194l5 30q14 0 24.5 10t13.5 27h-31l12 67h66l-11 -62q-13 -72 -79 -72z" />
    <glyph glyph-name="Rcaron" unicode="&#x158;" horiz-adv-x="375" 
d="M177 884h52l31 -64l53 64h56l-73 -110h-84zM-4 0l123 700h199q44 0 64 -25t13 -68l-41 -230q-14 -76 -81 -85l25 -292h-80l-24 290h-67l-51 -290h-80zM140 366h109q23 0 27 23l39 218q3 17 -14 17h-115z" />
    <glyph glyph-name="rcaron" unicode="&#x159;" horiz-adv-x="239" 
d="M103 720h52l30 -64l54 64h56l-74 -110h-84zM-9 0l98 560h76l-9 -50l48 50h74l-12 -70h-113l-86 -490h-76z" />
    <glyph glyph-name="Sacute" unicode="&#x15a;" horiz-adv-x="372" 
d="M241 774l74 110h84l-92 -110h-66zM81 -4q-44 0 -64 25t-13 68l30 171h80l-30 -171q-3 -17 14 -17h96q23 0 27 23l28 155q2 15 -6 23l-143 119q-35 29 -26 74l26 151q16 87 103 87h110q44 0 64 -25t12 -68l-28 -161h-80l28 161q3 17 -14 17h-90q-23 0 -27 -23l-24 -137
q-3 -15 5 -23l144 -118q35 -29 26 -74l-30 -170q-15 -87 -102 -87h-116z" />
    <glyph glyph-name="sacute" unicode="&#x15b;" horiz-adv-x="338" 
d="M192 610l74 110h84l-92 -110h-66zM75 -4q-44 0 -64 25t-13 68l20 111h76l-21 -121q-2 -13 11 -13h90q19 0 22 19l16 94q2 12 -4 18l-132 120q-33 30 -24 74l15 86q15 87 102 87h91q43 0 63.5 -24.5t12.5 -68.5l-19 -109h-76l21 119q2 13 -11 13h-87q-19 0 -22 -19
l-15 -87q-2 -12 4 -18l132 -120q32 -30 25 -74l-17 -93q-15 -87 -102 -87h-94z" />
    <glyph glyph-name="Scircumflex" unicode="&#x15c;" horiz-adv-x="372" 
d="M177 774l74 110h84l34 -110h-52l-30 64l-54 -64h-56zM81 -4q-44 0 -64 25t-13 68l30 171h80l-30 -171q-3 -17 14 -17h96q23 0 27 23l28 155q2 15 -6 23l-143 119q-35 29 -26 74l26 151q16 87 103 87h110q44 0 64 -25t12 -68l-28 -161h-80l28 161q3 17 -14 17h-90
q-23 0 -27 -23l-24 -137q-3 -15 5 -23l144 -118q35 -29 26 -74l-30 -170q-15 -87 -102 -87h-116z" />
    <glyph glyph-name="scircumflex" unicode="&#x15d;" horiz-adv-x="338" 
d="M128 610l74 110h84l34 -110h-52l-30 64l-54 -64h-56zM75 -4q-44 0 -64 25t-13 68l20 111h76l-21 -121q-2 -13 11 -13h90q19 0 22 19l16 94q2 12 -4 18l-132 120q-33 30 -24 74l15 86q15 87 102 87h91q43 0 63.5 -24.5t12.5 -68.5l-19 -109h-76l21 119q2 13 -11 13h-87
q-19 0 -22 -19l-15 -87q-2 -12 4 -18l132 -120q32 -30 25 -74l-17 -93q-15 -87 -102 -87h-94z" />
    <glyph glyph-name="Scedilla" unicode="&#x15e;" horiz-adv-x="372" 
d="M313 704q44 0 64 -25t12 -68l-28 -161h-80l28 161q3 17 -14 17h-90q-23 0 -27 -23l-24 -137q-3 -15 5 -23l144 -118q35 -29 26 -74l-30 -170q-15 -87 -102 -87h-28l-23 -106h-82l40 106h-23q-44 0 -64 25t-13 68l30 171h80l-30 -171q-3 -17 14 -17h96q23 0 27 23l28 155
q2 15 -6 23l-143 119q-35 29 -26 74l26 151q16 87 103 87h110z" />
    <glyph glyph-name="scedilla" unicode="&#x15f;" horiz-adv-x="338" 
d="M260 564q43 0 63.5 -24.5t12.5 -68.5l-19 -109h-76l21 119q2 13 -11 13h-87q-19 0 -22 -19l-15 -87q-2 -12 4 -18l132 -120q32 -30 25 -74l-17 -93q-15 -87 -102 -87h-18l-23 -106h-82l40 106h-11q-44 0 -64 25t-13 68l20 111h76l-21 -121q-2 -13 11 -13h90q19 0 22 19
l16 94q2 12 -4 18l-132 120q-33 30 -24 74l15 86q15 87 102 87h91z" />
    <glyph glyph-name="Scaron" unicode="&#x160;" horiz-adv-x="372" 
d="M198 884h52l31 -64l53 64h56l-73 -110h-84zM81 -4q-44 0 -64 25t-13 68l30 171h80l-30 -171q-3 -17 14 -17h96q23 0 27 23l28 155q2 15 -6 23l-143 119q-35 29 -26 74l26 151q16 87 103 87h110q44 0 64 -25t12 -68l-28 -161h-80l28 161q3 17 -14 17h-90q-23 0 -27 -23
l-24 -137q-3 -15 5 -23l144 -118q35 -29 26 -74l-30 -170q-15 -87 -102 -87h-116z" />
    <glyph glyph-name="scaron" unicode="&#x161;" horiz-adv-x="338" 
d="M150 720h52l30 -64l54 64h56l-74 -110h-84zM75 -4q-44 0 -64 25t-13 68l20 111h76l-21 -121q-2 -13 11 -13h90q19 0 22 19l16 94q2 12 -4 18l-132 120q-33 30 -24 74l15 86q15 87 102 87h91q43 0 63.5 -24.5t12.5 -68.5l-19 -109h-76l21 119q2 13 -11 13h-87
q-19 0 -22 -19l-15 -87q-2 -12 4 -18l132 -120q32 -30 25 -74l-17 -93q-15 -87 -102 -87h-94z" />
    <glyph glyph-name="uni0162" unicode="&#x162;" horiz-adv-x="316" 
d="M89 700h286l-13 -76h-103l-110 -624h-8l-24 -110h-82l42 110h-8l110 624h-103z" />
    <glyph glyph-name="uni0163" unicode="&#x163;" horiz-adv-x="217" 
d="M-14 -110l67 119q-36 23 -27 80l71 401h-50l12 70h50l17 96h76l-17 -96h76l-12 -70h-76l-72 -411q-3 -13 11 -13h42l-12 -70h-31l-41 -106h-84z" />
    <glyph glyph-name="Tcaron" unicode="&#x164;" horiz-adv-x="316" 
d="M169 884h52l31 -64l53 64h56l-73 -110h-84zM69 0l110 624h-103l13 76h286l-13 -76h-103l-110 -624h-80z" />
    <glyph glyph-name="tcaron" unicode="&#x165;" horiz-adv-x="227" 
d="M232 600l25 140h77l-55 -140h-47zM26 89l71 401h-50l12 70h50l17 96h76l-17 -96h76l-12 -70h-76l-72 -411q-3 -13 11 -13h42l-12 -70h-39q-44 0 -64 25t-13 68z" />
    <glyph glyph-name="Tbar" unicode="&#x166;" horiz-adv-x="316" 
d="M69 0l62 350h-77l11 60h76l38 214h-103l13 76h286l-13 -76h-103l-38 -214h76l-11 -60h-75l-62 -350h-80z" />
    <glyph glyph-name="tbar" unicode="&#x167;" horiz-adv-x="217" 
d="M103 -4q-44 0 -64 25t-13 68l35 201h-49l9 50h49l27 150h-50l12 70h50l17 96h76l-17 -96h76l-12 -70h-76l-26 -150h76l-9 -50h-76l-37 -211q-3 -13 11 -13h42l-12 -70h-39z" />
    <glyph glyph-name="Utilde" unicode="&#x168;" horiz-adv-x="384" 
d="M329 765q-24 0 -51.5 15t-39.5 15q-14 0 -23.5 -9.5t-10.5 -18.5l-29 6q12 82 69 82q23 0 50.5 -15t39.5 -15q14 0 23.5 9.5t11.5 18.5l29 -6q-18 -82 -69 -82zM87 -4q-44 0 -64 25t-13 68l108 611h80l-108 -611q-3 -17 14 -17h96q23 0 27 23l107 605h80l-109 -617
q-15 -87 -102 -87h-116z" />
    <glyph glyph-name="utilde" unicode="&#x169;" horiz-adv-x="349" 
d="M283 625q-24 0 -51 15t-40 15t-22.5 -9.5t-11.5 -18.5l-29 6q18 82 69 82q24 0 51.5 -15t39.5 -15q14 0 23.5 9.5t10.5 18.5l29 -6q-12 -82 -69 -82zM78 -4q-44 0 -64 25t-13 68l83 471h76l-84 -481q-2 -13 11 -13h109l86 494h76l-98 -560h-76l8 45l-48 -49h-66z" />
    <glyph glyph-name="Umacron" unicode="&#x16a;" horiz-adv-x="384" 
d="M197 774l11 60h166l-11 -60h-166zM87 -4q-44 0 -64 25t-13 68l108 611h80l-108 -611q-3 -17 14 -17h96q23 0 27 23l107 605h80l-109 -617q-15 -87 -102 -87h-116z" />
    <glyph glyph-name="umacron" unicode="&#x16b;" horiz-adv-x="349" 
d="M151 634l11 60h166l-11 -60h-166zM78 -4q-44 0 -64 25t-13 68l83 471h76l-84 -481q-2 -13 11 -13h109l86 494h76l-98 -560h-76l8 45l-48 -49h-66z" />
    <glyph glyph-name="Ubreve" unicode="&#x16c;" horiz-adv-x="384" 
d="M276 770q-43 0 -68.5 29.5t-18.5 70.5h54q-3 -21 8.5 -35.5t28.5 -14.5q22 0 36 14t17 36h54q-7 -46 -36.5 -73t-74.5 -27zM87 -4q-44 0 -64 25t-13 68l108 611h80l-108 -611q-3 -17 14 -17h96q23 0 27 23l107 605h80l-109 -617q-15 -87 -102 -87h-116z" />
    <glyph glyph-name="ubreve" unicode="&#x16d;" horiz-adv-x="349" 
d="M235 610q-43 0 -68.5 29.5t-18.5 70.5h54q-3 -21 8.5 -35.5t28.5 -14.5q23 0 37 14t17 36h54q-7 -46 -37 -73t-75 -27zM78 -4q-44 0 -64 25t-13 68l83 471h76l-84 -481q-2 -13 11 -13h109l86 494h76l-98 -560h-76l8 45l-48 -49h-66z" />
    <glyph glyph-name="Uring" unicode="&#x16e;" horiz-adv-x="384" 
d="M284 770q-33 0 -51.5 19t-18.5 49q0 39 25.5 65.5t64.5 26.5q34 0 52 -18.5t18 -49.5q0 -40 -25.5 -66t-64.5 -26zM287 810q21 0 34 14t13 34q0 13 -9.5 22.5t-23.5 9.5q-21 0 -34 -14t-13 -34q0 -13 9.5 -22.5t23.5 -9.5zM87 -4q-44 0 -64 25t-13 68l108 611h80
l-108 -611q-3 -17 14 -17h96q23 0 27 23l107 605h80l-109 -617q-15 -87 -102 -87h-116z" />
    <glyph glyph-name="uring" unicode="&#x16f;" horiz-adv-x="349" 
d="M235 610q-33 0 -51.5 19t-18.5 49q0 39 25.5 65.5t64.5 26.5q34 0 52 -18.5t18 -49.5q0 -40 -25.5 -66t-64.5 -26zM238 650q21 0 34 14t13 34q0 13 -9.5 22.5t-23.5 9.5q-21 0 -34 -14t-13 -34q0 -13 9.5 -22.5t23.5 -9.5zM78 -4q-44 0 -64 25t-13 68l83 471h76l-84 -481
q-2 -13 11 -13h109l86 494h76l-98 -560h-76l8 45l-48 -49h-66z" />
    <glyph glyph-name="Uhungarumlaut" unicode="&#x170;" horiz-adv-x="384" 
d="M202 774l64 110h75l-81 -110h-58zM300 774l64 110h75l-81 -110h-58zM87 -4q-44 0 -64 25t-13 68l108 611h80l-108 -611q-3 -17 14 -17h96q23 0 27 23l107 605h80l-109 -617q-15 -87 -102 -87h-116z" />
    <glyph glyph-name="uhungarumlaut" unicode="&#x171;" horiz-adv-x="349" 
d="M152 610l64 110h76l-82 -110h-58zM250 610l64 110h76l-82 -110h-58zM78 -4q-44 0 -64 25t-13 68l83 471h76l-84 -481q-2 -13 11 -13h109l86 494h76l-98 -560h-76l8 45l-48 -49h-66z" />
    <glyph glyph-name="Uogonek" unicode="&#x172;" horiz-adv-x="384" 
d="M334 700h80l-109 -617q-12 -71 -72 -84l-71 -104h52l-10 -60h-52q-42 0 -51.5 30.5t13.5 61.5l49 69h-76q-44 0 -64 25t-13 68l108 611h80l-108 -611q-3 -17 14 -17h96q23 0 27 23z" />
    <glyph glyph-name="uogonek" unicode="&#x173;" horiz-adv-x="349" 
d="M358 560l-98 -560l-72 -105h52l-10 -60h-52q-42 0 -51.5 30.5t13.5 61.5l52 73h-8l8 45l-48 -49h-66q-44 0 -64 25t-13 68l83 471h76l-84 -481q-2 -13 11 -13h109l86 494h76z" />
    <glyph glyph-name="Wcircumflex" unicode="&#x174;" horiz-adv-x="600" 
d="M290 774l74 110h84l34 -110h-52l-30 64l-54 -64h-56zM84 700h80l-34 -628l174 628h140l-48 -628l188 628h80l-213 -700h-130l38 613l-178 -613h-130z" />
    <glyph glyph-name="wcircumflex" unicode="&#x175;" horiz-adv-x="536" 
d="M229 610l74 110h84l34 -110h-52l-30 64l-54 -64h-56zM57 560h76l-24 -499l155 499h106l-21 -499l152 499h78l-180 -560h-116l21 478l-149 -478h-116z" />
    <glyph glyph-name="Ycircumflex" unicode="&#x176;" horiz-adv-x="354" 
d="M167 774l74 110h84l34 -110h-52l-30 64l-54 -64h-56zM82 700h78l33 -321l147 321h82l-210 -450l-44 -250h-80l44 250z" />
    <glyph glyph-name="ycircumflex" unicode="&#x177;" horiz-adv-x="324" 
d="M123 610l74 110h84l34 -110h-52l-30 64l-54 -64h-56zM40 -160l57 160h-46l6 560h80l-14 -499l162 499h82l-247 -720h-80z" />
    <glyph glyph-name="Ydieresis" unicode="&#x178;" horiz-adv-x="354" 
d="M170 774l14 80h70l-14 -80h-70zM288 774l14 80h70l-14 -80h-70zM82 700h78l33 -321l147 321h82l-210 -450l-44 -250h-80l44 250z" />
    <glyph glyph-name="Zacute" unicode="&#x179;" horiz-adv-x="322" 
d="M215 774l74 110h84l-92 -110h-66zM-24 0l13 76l285 548h-184l13 76h268l-13 -76l-285 -548h188l-13 -76h-272z" />
    <glyph glyph-name="zacute" unicode="&#x17a;" horiz-adv-x="306" 
d="M178 610l74 110h84l-92 -110h-66zM-27 0l11 70l256 420h-177l12 70h258l-11 -70l-256 -420h181l-12 -70h-262z" />
    <glyph glyph-name="Zdotaccent" unicode="&#x17b;" horiz-adv-x="322" 
d="M210 774l14 80h76l-14 -80h-76zM-24 0l13 76l285 548h-184l13 76h268l-13 -76l-285 -548h188l-13 -76h-272z" />
    <glyph glyph-name="zdotaccent" unicode="&#x17c;" horiz-adv-x="306" 
d="M176 628l14 80h76l-14 -80h-76zM-27 0l11 70l256 420h-177l12 70h258l-11 -70l-256 -420h181l-12 -70h-262z" />
    <glyph glyph-name="Zcaron" unicode="&#x17d;" horiz-adv-x="322" 
d="M172 884h52l31 -64l53 64h56l-73 -110h-84zM-24 0l13 76l285 548h-184l13 76h268l-13 -76l-285 -548h188l-13 -76h-272z" />
    <glyph glyph-name="zcaron" unicode="&#x17e;" horiz-adv-x="306" 
d="M136 720h52l30 -64l54 64h56l-74 -110h-84zM-27 0l11 70l256 420h-177l12 70h258l-11 -70l-256 -420h181l-12 -70h-262z" />
    <glyph glyph-name="uni018F" unicode="&#x18f;" horiz-adv-x="379" 
d="M6 87l53 300h216l40 226q3 17 -15 17h-96q-22 0 -26 -23l-23 -130h-80l25 142q15 87 102 87h116q44 0 64 -25t13 -68l-94 -532q-15 -87 -103 -87h-116q-43 0 -63.5 24.5t-12.5 68.5zM86 87q-3 -17 14 -17h96q23 0 27 23l38 218h-136z" />
    <glyph glyph-name="florin" unicode="&#x192;" horiz-adv-x="214" 
d="M-80 -160l13 70h39q18 0 22 19l99 561h-46l12 70h46l13 73q15 87 103 87h65l-13 -70h-57q-18 0 -22 -19l-13 -71h76l-12 -70h-76l-99 -563q-15 -87 -103 -87h-47z" />
    <glyph glyph-name="uni01CD" unicode="&#x1cd;" horiz-adv-x="374" 
d="M198 884h52l31 -64l53 64h56l-73 -110h-84zM-33 0l229 700h130l-19 -700h-80l5 160h-134l-51 -160h-80zM123 236h112l12 388z" />
    <glyph glyph-name="uni01CE" unicode="&#x1ce;" horiz-adv-x="339" 
d="M148 720h52l30 -64l54 64h56l-74 -110h-84zM68 -4q-44 0 -64.5 24.5t-12.5 68.5l20 114q15 79 89 100l133 37l25 141q2 13 -11 13h-80q-19 0 -22 -19l-16 -95h-76l17 97q15 87 102 87h84q44 0 64 -25t13 -68l-83 -471h-76l9 46l-49 -50h-66zM77 66h108l36 199l-113 -34
q-6 -2 -9 -3.5t-6 -5.5t-4 -11l-23 -132q-2 -13 11 -13z" />
    <glyph glyph-name="uni01CF" unicode="&#x1cf;" horiz-adv-x="170" 
d="M96 884h52l31 -64l53 64h56l-73 -110h-84zM-4 0l123 700h80l-123 -700h-80z" />
    <glyph glyph-name="uni01D0" unicode="&#x1d0;" horiz-adv-x="156" 
d="M61 720h52l30 -64l54 64h56l-74 -110h-84zM-9 0l98 560h76l-98 -560h-76z" />
    <glyph glyph-name="Gcaron" unicode="&#x1e6;" horiz-adv-x="381" 
d="M201 884h52l31 -64l53 64h56l-73 -110h-84zM86 -4q-44 0 -64 25t-13 68l93 528q16 87 103 87h116q44 0 64 -25t12 -68l-30 -171h-80l30 171q3 17 -14 17h-96q-23 0 -27 -23l-91 -516q-3 -17 14 -17h119l38 212h-70l13 76h150l-63 -360h-80l9 46l-49 -50h-84z" />
    <glyph glyph-name="gcaron" unicode="&#x1e7;" horiz-adv-x="352" 
d="M156 720h52l30 -64l54 64h56l-74 -110h-84zM7 103l66 374q15 87 102 87h70l31 -50l9 46h76l-112 -637q-15 -87 -103 -87h-88q-43 0 -63.5 24.5t-12.5 68.5l5 28h76l-7 -38q-2 -13 11 -13h84q19 0 22 19l25 135l-49 -50h-66q-43 0 -63.5 24.5t-12.5 68.5zM81 93
q-2 -13 11 -13h109l73 414h-104q-19 0 -22 -19z" />
    <glyph glyph-name="Scommaaccent" unicode="&#x218;" horiz-adv-x="372" 
d="M81 -4q-44 0 -64 25t-13 68l30 171h80l-30 -171q-3 -17 14 -17h96q23 0 27 23l28 155q2 15 -6 23l-143 119q-35 29 -26 74l26 151q16 87 103 87h110q44 0 64 -25t12 -68l-28 -161h-80l28 161q3 17 -14 17h-90q-23 0 -27 -23l-24 -137q-3 -15 5 -23l144 -118
q35 -29 26 -74l-30 -170q-15 -87 -102 -87h-116zM70 -194l5 30q14 0 24.5 10t13.5 27h-31l12 67h66l-11 -62q-13 -72 -79 -72z" />
    <glyph glyph-name="scommaaccent" unicode="&#x219;" horiz-adv-x="338" 
d="M75 -4q-44 0 -64 25t-13 68l20 111h76l-21 -121q-2 -13 11 -13h90q19 0 22 19l16 94q2 12 -4 18l-132 120q-33 30 -24 74l15 86q15 87 102 87h91q43 0 63.5 -24.5t12.5 -68.5l-19 -109h-76l21 119q2 13 -11 13h-87q-19 0 -22 -19l-15 -87q-2 -12 4 -18l132 -120
q32 -30 25 -74l-17 -93q-15 -87 -102 -87h-94zM52 -194l5 30q14 0 24.5 10t13.5 27h-31l12 67h66l-11 -62q-13 -72 -79 -72z" />
    <glyph glyph-name="uni021A" unicode="&#x21a;" horiz-adv-x="316" 
d="M69 0l110 624h-103l13 76h286l-13 -76h-103l-110 -624h-80zM41 -194l5 30q14 0 24.5 10t13.5 27h-31l12 67h66l-11 -62q-13 -72 -79 -72z" />
    <glyph glyph-name="uni021B" unicode="&#x21b;" horiz-adv-x="227" 
d="M26 89l71 401h-50l12 70h50l17 96h76l-17 -96h76l-12 -70h-76l-72 -411q-3 -13 11 -13h42l-12 -70h-39q-44 0 -64 25t-13 68zM-9 -194l5 30q14 0 24.5 10t13.5 27h-31l12 67h66l-11 -62q-13 -72 -79 -72z" />
    <glyph glyph-name="uni0237" unicode="&#x237;" horiz-adv-x="157" 
d="M-95 -160l13 70h39q18 0 22 19l111 631h76l-111 -633q-15 -87 -103 -87h-47z" />
    <glyph glyph-name="uni0259" unicode="&#x259;" horiz-adv-x="349" 
d="M268 564q44 0 64 -25t13 -68l-69 -388q-15 -87 -102 -87h-94q-44 0 -64 25t-13 68l39 220h198l30 172q2 13 -11 13h-90q-19 0 -22 -19l-16 -94h-76l17 96q15 87 102 87h94zM228 239h-122l-28 -160q-2 -13 11 -13h90q19 0 22 19z" />
    <glyph glyph-name="uni0272" unicode="&#x272;" horiz-adv-x="355" 
d="M-95 -160l13 70h39q18 0 22 19l111 631h76l-9 -46l49 50h66q44 0 64 -25t13 -68l-83 -471h-76l84 481q3 13 -11 13h-108l-100 -567q-15 -87 -103 -87h-47z" />
    <glyph glyph-name="circumflex" unicode="&#x2c6;" horiz-adv-x="272" 
d="M97 610l74 110h84l34 -110h-52l-30 64l-54 -64h-56z" />
    <glyph glyph-name="caron" unicode="&#x2c7;" horiz-adv-x="272" 
d="M119 720h52l30 -64l54 64h56l-74 -110h-84z" />
    <glyph glyph-name="breve" unicode="&#x2d8;" horiz-adv-x="280" 
d="M203 610q-43 0 -68.5 29.5t-18.5 70.5h54q-3 -21 8.5 -35.5t28.5 -14.5q23 0 37 14t17 36h54q-7 -46 -37 -73t-75 -27z" />
    <glyph glyph-name="dotaccent" unicode="&#x2d9;" horiz-adv-x="156" 
d="M101 628l14 80h76l-14 -80h-76z" />
    <glyph glyph-name="ring" unicode="&#x2da;" horiz-adv-x="240" 
d="M183 610q-33 0 -51.5 19t-18.5 49q0 39 25.5 65.5t64.5 26.5q34 0 52 -18.5t18 -49.5q0 -40 -25.5 -66t-64.5 -26zM186 650q21 0 34 14t13 34q0 13 -9.5 22.5t-23.5 9.5q-21 0 -34 -14t-13 -34q0 -13 9.5 -22.5t23.5 -9.5z" />
    <glyph glyph-name="ogonek" unicode="&#x2db;" horiz-adv-x="193" 
d="M23 -165q-42 0 -51.5 30.5t13.5 61.5l52 73h68l-72 -105h52l-10 -60h-52z" />
    <glyph glyph-name="tilde" unicode="&#x2dc;" horiz-adv-x="290" 
d="M256 625q-24 0 -51 15t-40 15t-22.5 -9.5t-11.5 -18.5l-29 6q18 82 69 82q24 0 51.5 -15t39.5 -15q14 0 23.5 9.5t10.5 18.5l29 -6q-12 -82 -69 -82z" />
    <glyph glyph-name="hungarumlaut" unicode="&#x2dd;" horiz-adv-x="294" 
d="M97 610l64 110h76l-82 -110h-58zM195 610l64 110h76l-82 -110h-58z" />
    <glyph glyph-name="gravecomb" unicode="&#x300;" 
d="M-65 610l-52 110h80l34 -110h-62z" />
    <glyph glyph-name="acutecomb" unicode="&#x301;" 
d="M-67 610l74 110h84l-92 -110h-66z" />
    <glyph glyph-name="uni0302" unicode="&#x302;" 
d="M-175 610l74 110h84l34 -110h-52l-30 64l-54 -64h-56z" />
    <glyph glyph-name="tildecomb" unicode="&#x303;" 
d="M-34 625q-24 0 -51 15t-40 15t-22.5 -9.5t-11.5 -18.5l-29 6q18 82 69 82q24 0 51.5 -15t39.5 -15q14 0 23.5 9.5t10.5 18.5l29 -6q-12 -82 -69 -82z" />
    <glyph glyph-name="uni0304" unicode="&#x304;" 
d="M-144 634l11 60h166l-11 -60h-166z" />
    <glyph glyph-name="uni0306" unicode="&#x306;" 
d="M-77 610q-43 0 -68.5 29.5t-18.5 70.5h54q-3 -21 8.5 -35.5t28.5 -14.5q23 0 37 14t17 36h54q-7 -46 -37 -73t-75 -27z" />
    <glyph glyph-name="uni0307" unicode="&#x307;" 
d="M-55 628l14 80h76l-14 -80h-76z" />
    <glyph glyph-name="uni0308" unicode="&#x308;" 
d="M-173 628l14 80h70l-14 -80h-70zM-55 628l14 80h70l-14 -80h-70z" />
    <glyph glyph-name="uni030A" unicode="&#x30a;" 
d="M-57 610q-33 0 -51.5 19t-18.5 49q0 39 25.5 65.5t64.5 26.5q34 0 52 -18.5t18 -49.5q0 -40 -25.5 -66t-64.5 -26zM-54 650q21 0 34 14t13 34q0 13 -9.5 22.5t-23.5 9.5q-21 0 -34 -14t-13 -34q0 -13 9.5 -22.5t23.5 -9.5z" />
    <glyph glyph-name="uni030B" unicode="&#x30b;" 
d="M-137 610l64 110h76l-82 -110h-58zM-39 610l64 110h76l-82 -110h-58z" />
    <glyph glyph-name="uni030C" unicode="&#x30c;" 
d="M-153 720h52l30 -64l54 64h56l-74 -110h-84z" />
    <glyph glyph-name="uni0312" unicode="&#x312;" 
d="M-48 610l11 62q13 72 79 72l-5 -30q-14 0 -24.5 -10t-13.5 -27h31l-12 -67h-66z" />
    <glyph glyph-name="dotbelowcomb" unicode="&#x323;" 
d="M-190 -139l14 80h76l-14 -80h-76z" />
    <glyph glyph-name="uni0326" unicode="&#x326;" 
d="M-190 -194l5 30q14 0 24.5 10t13.5 27h-31l12 67h66l-11 -62q-13 -72 -79 -72z" />
    <glyph glyph-name="uni0327" unicode="&#x327;" 
d="M-146 -110l42 110h64l-24 -110h-82z" />
    <glyph glyph-name="uni0328" unicode="&#x328;" 
d="M-170 -165q-42 0 -51.5 30.5t13.5 61.5l52 73h68l-72 -105h52l-10 -60h-52z" />
    <glyph glyph-name="uni0394" unicode="&#x394;" horiz-adv-x="421" 
d="M-30 0l249 700h131l1 -700h-381zM77 76h194l-1 543z" />
    <glyph glyph-name="uni03A9" unicode="&#x3a9;" horiz-adv-x="402" 
d="M-23 0l13 76h71l-38 69l82 472q17 87 103 87h130q44 0 64 -25t12 -68l-81 -466l-62 -69h69l-13 -76h-151l13 76h20l36 71q11 22 15 43l74 421q3 17 -14 17h-110q-23 0 -27 -23l-74 -421q-4 -19 -2 -43l12 -65h22l-13 -76h-151z" />
    <glyph glyph-name="uni03BC" unicode="&#x3bc;" horiz-adv-x="354" 
d="M-38 -160l127 720h76l-84 -481q-3 -13 11 -13h108l87 494h76l-98 -560h-76l9 46l-49 -50h-83l-28 -156h-76z" />
    <glyph glyph-name="pi" unicode="&#x3c0;" horiz-adv-x="354" 
d="M-9 0l98 560h274l-98 -560h-35l-32 50l77 440h-122l-86 -490h-76z" />
    <glyph glyph-name="Wgrave" unicode="&#x1e80;" horiz-adv-x="600" 
d="M356 774l-52 110h80l34 -110h-62zM84 700h80l-34 -628l174 628h140l-48 -628l188 628h80l-213 -700h-130l38 613l-178 -613h-130z" />
    <glyph glyph-name="wgrave" unicode="&#x1e81;" horiz-adv-x="536" 
d="M295 610l-52 110h80l34 -110h-62zM57 560h76l-24 -499l155 499h106l-21 -499l152 499h78l-180 -560h-116l21 478l-149 -478h-116z" />
    <glyph glyph-name="Wacute" unicode="&#x1e82;" horiz-adv-x="600" 
d="M354 774l74 110h84l-92 -110h-66zM84 700h80l-34 -628l174 628h140l-48 -628l188 628h80l-213 -700h-130l38 613l-178 -613h-130z" />
    <glyph glyph-name="wacute" unicode="&#x1e83;" horiz-adv-x="536" 
d="M293 610l74 110h84l-92 -110h-66zM57 560h76l-24 -499l155 499h106l-21 -499l152 499h78l-180 -560h-116l21 478l-149 -478h-116z" />
    <glyph glyph-name="Wdieresis" unicode="&#x1e84;" horiz-adv-x="600" 
d="M293 774l14 80h70l-14 -80h-70zM411 774l14 80h70l-14 -80h-70zM84 700h80l-34 -628l174 628h140l-48 -628l188 628h80l-213 -700h-130l38 613l-178 -613h-130z" />
    <glyph glyph-name="wdieresis" unicode="&#x1e85;" horiz-adv-x="536" 
d="M235 628l14 80h70l-14 -80h-70zM353 628l14 80h70l-14 -80h-70zM57 560h76l-24 -499l155 499h106l-21 -499l152 499h78l-180 -560h-116l21 478l-149 -478h-116z" />
    <glyph glyph-name="uni1E92" unicode="&#x1e92;" horiz-adv-x="322" 
d="M-24 0l13 76l285 548h-184l13 76h268l-13 -76l-285 -548h188l-13 -76h-272zM49 -139l14 80h76l-14 -80h-76z" />
    <glyph glyph-name="uni1E93" unicode="&#x1e93;" horiz-adv-x="306" 
d="M-27 0l11 70l256 420h-177l12 70h258l-11 -70l-256 -420h181l-12 -70h-262zM41 -139l14 80h76l-14 -80h-76z" />
    <glyph glyph-name="uni1E9E" unicode="&#x1e9e;" horiz-adv-x="744" 
d="M81 -4q-44 0 -64 25t-13 68l30 171h80l-30 -171q-3 -17 14 -17h96q23 0 27 23l28 155q2 15 -6 23l-143 119q-35 29 -26 74l26 151q16 87 103 87h110q44 0 64 -25t12 -68l-28 -161h-80l28 161q3 17 -14 17h-90q-23 0 -27 -23l-24 -137q-3 -15 5 -23l144 -118
q35 -29 26 -74l-30 -170q-15 -87 -102 -87h-116zM453 -4q-44 0 -64 25t-13 68l30 171h80l-30 -171q-3 -17 14 -17h96q23 0 27 23l28 155q2 15 -6 23l-143 119q-35 29 -26 74l26 151q16 87 103 87h110q44 0 64 -25t12 -68l-28 -161h-80l28 161q3 17 -14 17h-90q-23 0 -27 -23
l-24 -137q-3 -15 5 -23l144 -118q35 -29 26 -74l-30 -170q-15 -87 -102 -87h-116z" />
    <glyph glyph-name="uni1EA1" unicode="&#x1ea1;" horiz-adv-x="339" 
d="M68 -4q-44 0 -64.5 24.5t-12.5 68.5l20 114q15 79 89 100l133 37l25 141q2 13 -11 13h-80q-19 0 -22 -19l-16 -95h-76l17 97q15 87 102 87h84q44 0 64 -25t13 -68l-83 -471h-76l9 46l-49 -50h-66zM77 66h108l36 199l-113 -34q-6 -2 -9 -3.5t-6 -5.5t-4 -11l-23 -132
q-2 -13 11 -13zM53 -139l14 80h76l-14 -80h-76z" />
    <glyph glyph-name="uni1EB8" unicode="&#x1eb8;" horiz-adv-x="314" 
d="M-4 0l123 700h242l-13 -76h-162l-41 -230h156l-13 -76h-156l-43 -242h166l-13 -76h-246zM59 -139l14 80h76l-14 -80h-76z" />
    <glyph glyph-name="uni1EB9" unicode="&#x1eb9;" horiz-adv-x="349" 
d="M81 -4q-44 0 -64 25t-13 68l69 388q15 87 102 87h94q44 0 64 -25t13 -68l-39 -220h-198l-30 -172q-2 -13 11 -13h90q19 0 22 19l16 94h76l-17 -96q-15 -87 -102 -87h-94zM121 321h122l28 160q2 13 -11 13h-90q-19 0 -22 -19zM63 -139l14 80h76l-14 -80h-76z" />
    <glyph glyph-name="uni1EBC" unicode="&#x1ebc;" horiz-adv-x="314" 
d="M301 769q-24 0 -51.5 15t-39.5 15q-14 0 -23.5 -9.5t-10.5 -18.5l-29 6q12 82 69 82q23 0 50.5 -15t39.5 -15q14 0 23.5 9.5t11.5 18.5l29 -6q-18 -82 -69 -82zM-4 0l123 700h242l-13 -76h-162l-41 -230h156l-13 -76h-156l-43 -242h166l-13 -76h-246z" />
    <glyph glyph-name="uni1EBD" unicode="&#x1ebd;" horiz-adv-x="349" 
d="M286 625q-24 0 -51 15t-40 15t-22.5 -9.5t-11.5 -18.5l-29 6q18 82 69 82q24 0 51.5 -15t39.5 -15q14 0 23.5 9.5t10.5 18.5l29 -6q-12 -82 -69 -82zM81 -4q-44 0 -64 25t-13 68l69 388q15 87 102 87h94q44 0 64 -25t13 -68l-39 -220h-198l-30 -172q-2 -13 11 -13h90
q19 0 22 19l16 94h76l-17 -96q-15 -87 -102 -87h-94zM121 321h122l28 160q2 13 -11 13h-90q-19 0 -22 -19z" />
    <glyph glyph-name="uni1ECA" unicode="&#x1eca;" horiz-adv-x="170" 
d="M-4 0l123 700h80l-123 -700h-80zM-27 -139l14 80h76l-14 -80h-76z" />
    <glyph glyph-name="uni1ECB" unicode="&#x1ecb;" horiz-adv-x="156" 
d="M103 640l15 80h76l-15 -80h-76zM-9 0l98 560h76l-98 -560h-76zM-34 -139l14 80h76l-14 -80h-76z" />
    <glyph glyph-name="uni1EE4" unicode="&#x1ee4;" horiz-adv-x="384" 
d="M87 -4q-44 0 -64 25t-13 68l108 611h80l-108 -611q-3 -17 14 -17h96q23 0 27 23l107 605h80l-109 -617q-15 -87 -102 -87h-116zM81 -139l14 80h76l-14 -80h-76z" />
    <glyph glyph-name="uni1EE5" unicode="&#x1ee5;" horiz-adv-x="349" 
d="M78 -4q-44 0 -64 25t-13 68l83 471h76l-84 -481q-2 -13 11 -13h109l86 494h76l-98 -560h-76l8 45l-48 -49h-66zM60 -139l14 80h76l-14 -80h-76z" />
    <glyph glyph-name="Ygrave" unicode="&#x1ef2;" horiz-adv-x="354" 
d="M233 774l-52 110h80l34 -110h-62zM82 700h78l33 -321l147 321h82l-210 -450l-44 -250h-80l44 250z" />
    <glyph glyph-name="ygrave" unicode="&#x1ef3;" horiz-adv-x="324" 
d="M189 610l-52 110h80l34 -110h-62zM40 -160l57 160h-46l6 560h80l-14 -499l162 499h82l-247 -720h-80z" />
    <glyph glyph-name="endash" unicode="&#x2013;" horiz-adv-x="320" 
d="M-7 241l12 70h320l-12 -70h-320z" />
    <glyph glyph-name="emdash" unicode="&#x2014;" horiz-adv-x="640" 
d="M-7 241l12 70h640l-12 -70h-640z" />
    <glyph glyph-name="quoteleft" unicode="&#x2018;" horiz-adv-x="126" 
d="M180 700l-6 -36q-36 0 -44 -44h36l-19 -110h-78l18 103q15 87 93 87z" />
    <glyph glyph-name="quoteright" unicode="&#x2019;" horiz-adv-x="126" 
d="M61 510l6 36q36 0 44 44h-36l19 110h78l-18 -103q-15 -87 -93 -87z" />
    <glyph glyph-name="quotesinglbase" unicode="&#x201a;" horiz-adv-x="138" 
d="M-27 -80l6 36q36 0 44 44h-36l19 110h78l-18 -103q-15 -87 -93 -87z" />
    <glyph glyph-name="quotedblleft" unicode="&#x201c;" horiz-adv-x="244" 
d="M176 700l-6 -36q-36 0 -44 -44h36l-19 -110h-78l18 103q15 87 93 87zM294 700l-6 -36q-36 0 -44 -44h36l-19 -110h-78l18 103q15 87 93 87z" />
    <glyph glyph-name="quotedblright" unicode="&#x201d;" horiz-adv-x="244" 
d="M65 510l6 36q36 0 44 44h-36l19 110h78l-18 -103q-15 -87 -93 -87zM183 510l6 36q36 0 44 44h-36l19 110h78l-18 -103q-15 -87 -93 -87z" />
    <glyph glyph-name="quotedblbase" unicode="&#x201e;" horiz-adv-x="276" 
d="M-27 -80l6 36q36 0 44 44h-36l19 110h78l-18 -103q-15 -87 -93 -87zM91 -80l6 36q36 0 44 44h-36l19 110h78l-18 -103q-15 -87 -93 -87z" />
    <glyph glyph-name="dagger" unicode="&#x2020;" horiz-adv-x="280" 
d="M63 526l12 64h85l19 110h70l-19 -110h85l-12 -64h-85l-45 -256h-70l45 256h-85z" />
    <glyph glyph-name="daggerdbl" unicode="&#x2021;" horiz-adv-x="280" 
d="M7 205l11 64h85l45 257h-85l12 64h85l19 110h70l-19 -110h85l-12 -64h-85l-45 -257h85l-11 -64h-85l-20 -110h-70l20 110h-85z" />
    <glyph glyph-name="bullet" unicode="&#x2022;" horiz-adv-x="330" 
d="M149 260q-29 0 -42.5 17t-8.5 46l10 60q10 57 68 57h30q29 0 42.5 -17t8.5 -46l-10 -60q-10 -57 -68 -57h-30z" />
    <glyph glyph-name="ellipsis" unicode="&#x2026;" horiz-adv-x="450" 
d="M-13 0l19 110h78l-19 -110h-78zM137 0l19 110h78l-19 -110h-78zM287 0l19 110h78l-19 -110h-78z" />
    <glyph glyph-name="perthousand" unicode="&#x2030;" horiz-adv-x="704" 
d="M133 394q-39 0 -57 22t-11 61l26 150q13 77 91 77h30q39 0 57 -22t11 -61l-26 -150q-13 -77 -91 -77h-30zM10 0l423 700h72l-423 -700h-72zM139 454h28q18 0 21 18l28 160q2 12 -10 12h-28q-18 0 -21 -18l-28 -160q-2 -12 10 -12zM303 -4q-39 0 -57 22t-11 61l26 150
q13 77 91 77h30q39 0 57 -22t11 -61l-26 -150q-13 -77 -91 -77h-30zM527 -4q-39 0 -57 22t-11 61l26 150q13 77 91 77h30q39 0 57 -22t11 -61l-26 -150q-15 -77 -91 -77h-30zM309 56h28q18 0 21 18l28 160q2 12 -10 12h-28q-18 0 -21 -18l-28 -160q-2 -12 10 -12zM533 56h28
q17 0 21 18l28 160q2 12 -10 12h-28q-19 0 -21 -18l-28 -160q-1 -12 10 -12z" />
    <glyph glyph-name="guilsinglleft" unicode="&#x2039;" horiz-adv-x="224" 
d="M14 300l140 180h86l-142 -180l77 -180h-82z" />
    <glyph glyph-name="guilsinglright" unicode="&#x203a;" horiz-adv-x="224" 
d="M-9 120l143 180l-78 180h82l80 -180l-141 -180h-86z" />
    <glyph glyph-name="fraction" unicode="&#x2044;" horiz-adv-x="372" 
d="M-55 0l423 700h84l-423 -700h-84z" />
    <glyph glyph-name="Euro" unicode="&#x20ac;" horiz-adv-x="424" 
d="M25 254l11 60h60l12 72h-59l10 60h60l30 171q17 87 103 87h116q44 0 64 -25t12 -68l-16 -95h-80l16 95q3 17 -14 17h-96q-23 0 -27 -23l-28 -159h136l-10 -60h-137l-12 -72h136l-11 -60h-136l-29 -165q-3 -17 14 -17h96q23 0 27 23l16 89h80l-18 -101q-15 -87 -102 -87
h-116q-44 0 -64 25t-13 68l29 165h-60z" />
    <glyph glyph-name="uni2116" unicode="&#x2116;" horiz-adv-x="693" 
d="M506 272q-43 0 -63.5 24.5t-12.5 68.5l44 252q16 87 103 87h60q44 0 64 -25t12 -68l-44 -252q-8 -44 -32.5 -65.5t-70.5 -21.5h-60zM-4 0l123 700h79l88 -354l63 354h80l-123 -700h-80l29 162l-88 354l-91 -516h-80zM515 342h56q19 0 22 19l46 260q2 13 -11 13h-56
q-19 0 -22 -19l-46 -260q-2 -13 11 -13zM416 142l12 70h190l-12 -70h-190z" />
    <glyph glyph-name="trademark" unicode="&#x2122;" horiz-adv-x="588" 
d="M105 650l9 50h192l-9 -50h-70l-58 -330h-52l58 330h-70zM269 320l67 380h88l-11 -317l101 317h88l-67 -380h-52l54 304l-102 -304h-66l6 304l-54 -304h-52z" />
    <glyph glyph-name="uni2126" unicode="&#x2126;" horiz-adv-x="402" 
d="M-23 0l13 76h71l-38 69l82 472q17 87 103 87h130q44 0 64 -25t12 -68l-81 -466l-62 -69h69l-13 -76h-151l13 76h20l36 71q11 22 15 43l74 421q3 17 -14 17h-110q-23 0 -27 -23l-74 -421q-4 -19 -2 -43l12 -65h22l-13 -76h-151z" />
    <glyph glyph-name="estimated" unicode="&#x212e;" horiz-adv-x="770" 
d="M385 -6q-139 0 -237 88t-98 213t98 213.5t237 88.5t237 -88.5t98 -213.5v-7h-543q-5 0 -5 -4v-164q0 -9 8 -19q83 -89 206 -89q63 0 119.5 26.5t95.5 72.5h49q-46 -54 -116 -85.5t-149 -31.5zM177 304h416q5 0 5 5v165q0 11 -9 20q-85 85 -203 85q-117 0 -205 -88
q-9 -9 -9 -20v-162q0 -5 5 -5z" />
    <glyph glyph-name="partialdiff" unicode="&#x2202;" horiz-adv-x="380" 
d="M81 -4q-44 0 -64 25t-13 68l51 288q15 87 103 87h89l32 -50l17 93q23 127 -105 127h-25l14 76h9q107 0 155 -58t29 -165l-72 -404q-15 -87 -102 -87h-118zM98 72h98q23 0 27 23l52 293h-115q-23 0 -27 -23l-49 -276q-3 -17 14 -17z" />
    <glyph glyph-name="uni2206" unicode="&#x2206;" horiz-adv-x="421" 
d="M-30 0l249 700h131l1 -700h-381zM77 76h194l-1 543z" />
    <glyph glyph-name="product" unicode="&#x220f;" horiz-adv-x="410" 
d="M-26 -120l145 820h320l-145 -820h-80l132 744h-160l-132 -744h-80z" />
    <glyph glyph-name="summation" unicode="&#x2211;" horiz-adv-x="370" 
d="M-41 -120l14 76l240 334l-122 334l13 76h310l-13 -76h-228l128 -334l-242 -334h224l-14 -76h-310z" />
    <glyph glyph-name="minus" unicode="&#x2212;" horiz-adv-x="400" 
d="M35 311l14 76h340l-14 -76h-340z" />
    <glyph glyph-name="uni2215" unicode="&#x2215;" horiz-adv-x="372" 
d="M-55 0l423 700h84l-423 -700h-84z" />
    <glyph glyph-name="uni2219" unicode="&#x2219;" horiz-adv-x="340" 
d="M149 260q-29 0 -42.5 17t-8.5 46l10 60q10 57 68 57h30q29 0 42.5 -17t8.5 -46l-10 -60q-10 -57 -68 -57h-30z" />
    <glyph glyph-name="radical" unicode="&#x221a;" horiz-adv-x="505" 
d="M9 244l13 76h150l16 -403l311 783h81l-326 -820h-144l-14 364h-87z" />
    <glyph glyph-name="infinity" unicode="&#x221e;" horiz-adv-x="690" 
d="M174 160q-68 0 -103.5 45t-24.5 111q10 60 60 102t110 42q54 0 86 -24.5t55 -67.5q40 44 79 68t90 24q68 0 103.5 -45t24.5 -111q-10 -60 -60 -102t-110 -42q-54 0 -86 24.5t-55 67.5q-81 -92 -169 -92zM176 230q39 0 69.5 21.5t66.5 63.5q-19 36 -40.5 55.5t-56.5 19.5
t-64.5 -25.5t-36.5 -60.5q-5 -31 13 -52.5t49 -21.5zM486 230q35 0 64.5 25.5t35.5 60.5q6 31 -12 52.5t-49 21.5q-39 0 -70.5 -22t-66.5 -63q20 -36 41.5 -55.5t56.5 -19.5z" />
    <glyph glyph-name="integral" unicode="&#x222b;" horiz-adv-x="199" 
d="M-95 -160l13 70h39q19 0 22 19l124 704q15 87 103 87h65l-13 -70h-57q-19 0 -22 -19l-124 -704q-15 -87 -103 -87h-47z" />
    <glyph glyph-name="approxequal" unicode="&#x2248;" horiz-adv-x="398" 
d="M297 369q-41 0 -82.5 26t-56.5 26q-26 0 -40 -16.5t-15 -29.5l-55 6q8 45 33.5 81.5t73.5 36.5q32 0 58.5 -13t46 -26t34.5 -13q19 0 32.5 10.5t17.5 19.5t6 16l55 -6q-8 -45 -34 -81.5t-74 -36.5zM267 199q-41 0 -82.5 26t-56.5 26q-26 0 -40 -16.5t-15 -29.5l-55 6
q8 45 33.5 81.5t73.5 36.5q32 0 58.5 -13t46 -26t34.5 -13q19 0 32.5 10.5t17.5 19.5t6 16l55 -6q-8 -45 -34 -81.5t-74 -36.5z" />
    <glyph glyph-name="notequal" unicode="&#x2260;" horiz-adv-x="400" 
d="M22 233l13 76h121l46 80h-153l14 76h182l53 94h66l-53 -94h92l-14 -76h-121l-46 -80h153l-13 -76h-183l-53 -94h-66l53 94h-91z" />
    <glyph glyph-name="lessequal" unicode="&#x2264;" horiz-adv-x="340" 
d="M56 370l18 104l279 110l-13 -78l-214 -84l184 -84l-13 -78zM16 144l13 72h260l-13 -72h-260z" />
    <glyph glyph-name="greaterequal" unicode="&#x2265;" horiz-adv-x="340" 
d="M40 260v78l199 84l-199 84v78l260 -110v-104zM40 144v72h260v-72h-260z" />
    <glyph glyph-name="lozenge" unicode="&#x25ca;" horiz-adv-x="535" 
d="M58 270l216 430h133l66 -430l-216 -430h-133zM138 270l58 -389l197 389l-57 389z" />
    <glyph glyph-name="uni00A40301" horiz-adv-x="260" 
d="M190 774l74 110h84l-92 -110h-66zM-30 -4l13 76h93q23 0 27 23l94 529h-116l13 76h196l-109 -617q-15 -87 -102 -87h-109z" />
    <glyph glyph-name="R.ss01" horiz-adv-x="383" 
d="M-4 0l123 700h203q44 0 64 -25t13 -68l-36 -202q-9 -55 -68 -75q52 -20 41 -77l-44 -253h-80l48 277q3 17 -14 17h-119l-51 -294h-80zM141 370h113q23 0 27 23l38 214q3 17 -14 17h-119z" />
    <glyph glyph-name="Racute.ss01" horiz-adv-x="383" 
d="M246 774l74 110h84l-92 -110h-66zM-4 0l123 700h203q44 0 64 -25t13 -68l-36 -202q-9 -55 -68 -75q52 -20 41 -77l-44 -253h-80l48 277q3 17 -14 17h-119l-51 -294h-80zM141 370h113q23 0 27 23l38 214q3 17 -14 17h-119z" />
    <glyph glyph-name="Rcaron.ss01" horiz-adv-x="383" 
d="M203 884h52l31 -64l53 64h56l-73 -110h-84zM-4 0l123 700h203q44 0 64 -25t13 -68l-36 -202q-9 -55 -68 -75q52 -20 41 -77l-44 -253h-80l48 277q3 17 -14 17h-119l-51 -294h-80zM141 370h113q23 0 27 23l38 214q3 17 -14 17h-119z" />
    <glyph glyph-name="Rcommaaccent.ss01" horiz-adv-x="383" 
d="M-4 0l123 700h203q44 0 64 -25t13 -68l-36 -202q-9 -55 -68 -75q52 -20 41 -77l-44 -253h-80l48 277q3 17 -14 17h-119l-51 -294h-80zM141 370h113q23 0 27 23l38 214q3 17 -14 17h-119zM75 -194l5 30q14 0 24.5 10t13.5 27h-31l12 67h66l-11 -62q-13 -72 -79 -72z" />
    <glyph glyph-name="i.loclTRK" horiz-adv-x="156" 
d="M103 640l15 80h76l-15 -80h-76zM-9 0l98 560h76l-98 -560h-76z" />
    <glyph glyph-name="uni006A0301" horiz-adv-x="157" 
d="M104 610l74 110h84l-92 -110h-66zM-95 -160l13 70h39q18 0 22 19l111 631h76l-111 -633q-15 -87 -103 -87h-47z" />
    <glyph glyph-name="a.ss01" horiz-adv-x="352" 
d="M4 89l69 388q15 87 91 87h82l31 -50l8 46h76l-98 -560h-76l8 45l-48 -49h-77q-38 0 -55.5 25t-10.5 68zM79 79q-2 -13 11 -13h109l74 428h-103q-19 0 -22 -19z" />
    <glyph glyph-name="aacute.ss01" horiz-adv-x="352" 
d="M203 610l74 110h84l-92 -110h-66zM4 89l69 388q15 87 91 87h82l31 -50l8 46h76l-98 -560h-76l8 45l-48 -49h-77q-38 0 -55.5 25t-10.5 68zM79 79q-2 -13 11 -13h109l74 428h-103q-19 0 -22 -19z" />
    <glyph glyph-name="abreve.ss01" horiz-adv-x="352" 
d="M241 610q-43 0 -68.5 29.5t-18.5 70.5h54q-3 -21 8.5 -35.5t28.5 -14.5q23 0 37 14t17 36h54q-7 -46 -37 -73t-75 -27zM4 89l69 388q15 87 91 87h82l31 -50l8 46h76l-98 -560h-76l8 45l-48 -49h-77q-38 0 -55.5 25t-10.5 68zM79 79q-2 -13 11 -13h109l74 428h-103
q-19 0 -22 -19z" />
    <glyph glyph-name="uni01CE.ss01" horiz-adv-x="352" 
d="M161 720h52l30 -64l54 64h56l-74 -110h-84zM4 89l69 388q15 87 91 87h82l31 -50l8 46h76l-98 -560h-76l8 45l-48 -49h-77q-38 0 -55.5 25t-10.5 68zM79 79q-2 -13 11 -13h109l74 428h-103q-19 0 -22 -19z" />
    <glyph glyph-name="acircumflex.ss01" horiz-adv-x="352" 
d="M139 610l74 110h84l34 -110h-52l-30 64l-54 -64h-56zM4 89l69 388q15 87 91 87h82l31 -50l8 46h76l-98 -560h-76l8 45l-48 -49h-77q-38 0 -55.5 25t-10.5 68zM79 79q-2 -13 11 -13h109l74 428h-103q-19 0 -22 -19z" />
    <glyph glyph-name="adieresis.ss01" horiz-adv-x="352" 
d="M145 628l14 80h70l-14 -80h-70zM263 628l14 80h70l-14 -80h-70zM4 89l69 388q15 87 91 87h82l31 -50l8 46h76l-98 -560h-76l8 45l-48 -49h-77q-38 0 -55.5 25t-10.5 68zM79 79q-2 -13 11 -13h109l74 428h-103q-19 0 -22 -19z" />
    <glyph glyph-name="uni1EA1.ss01" horiz-adv-x="352" 
d="M4 89l69 388q15 87 91 87h82l31 -50l8 46h76l-98 -560h-76l8 45l-48 -49h-77q-38 0 -55.5 25t-10.5 68zM79 79q-2 -13 11 -13h109l74 428h-103q-19 0 -22 -19zM66 -139l14 80h76l-14 -80h-76z" />
    <glyph glyph-name="agrave.ss01" horiz-adv-x="352" 
d="M205 610l-52 110h80l34 -110h-62zM4 89l69 388q15 87 91 87h82l31 -50l8 46h76l-98 -560h-76l8 45l-48 -49h-77q-38 0 -55.5 25t-10.5 68zM79 79q-2 -13 11 -13h109l74 428h-103q-19 0 -22 -19z" />
    <glyph glyph-name="amacron.ss01" horiz-adv-x="352" 
d="M157 634l11 60h166l-11 -60h-166zM4 89l69 388q15 87 91 87h82l31 -50l8 46h76l-98 -560h-76l8 45l-48 -49h-77q-38 0 -55.5 25t-10.5 68zM79 79q-2 -13 11 -13h109l74 428h-103q-19 0 -22 -19z" />
    <glyph glyph-name="aogonek.ss01" horiz-adv-x="352" 
d="M361 560l-98 -560l-72 -105h52l-10 -60h-52q-42 0 -51.5 30.5t13.5 61.5l52 73h-8l8 45l-48 -49h-77q-38 0 -55.5 25t-10.5 68l69 388q15 87 91 87h82l31 -50l8 46h76zM90 66h109l74 428h-103q-19 0 -22 -19l-69 -396q-2 -13 11 -13z" />
    <glyph glyph-name="aring.ss01" horiz-adv-x="352" 
d="M241 610q-33 0 -51.5 19t-18.5 49q0 39 25.5 65.5t64.5 26.5q34 0 52 -18.5t18 -49.5q0 -40 -25.5 -66t-64.5 -26zM244 650q21 0 34 14t13 34q0 13 -9.5 22.5t-23.5 9.5q-21 0 -34 -14t-13 -34q0 -13 9.5 -22.5t23.5 -9.5zM4 89l69 388q15 87 91 87h82l31 -50l8 46h76
l-98 -560h-76l8 45l-48 -49h-77q-38 0 -55.5 25t-10.5 68zM79 79q-2 -13 11 -13h109l74 428h-103q-19 0 -22 -19z" />
    <glyph glyph-name="atilde.ss01" horiz-adv-x="352" 
d="M289 625q-24 0 -51 15t-40 15t-22.5 -9.5t-11.5 -18.5l-29 6q18 82 69 82q24 0 51.5 -15t39.5 -15q14 0 23.5 9.5t10.5 18.5l29 -6q-12 -82 -69 -82zM4 89l69 388q15 87 91 87h82l31 -50l8 46h76l-98 -560h-76l8 45l-48 -49h-77q-38 0 -55.5 25t-10.5 68zM79 79
q-2 -13 11 -13h109l74 428h-103q-19 0 -22 -19z" />
    <glyph glyph-name="f_f_ij" horiz-adv-x="703" 
d="M47 490l12 70h36l13 73q15 87 103 87h55l-13 -70h-47q-18 0 -22 -19l-13 -71h117l13 73q15 87 103 87h55l-13 -70h-47q-18 0 -22 -19l-13 -71h66l-12 -70h-66l-86 -490h-76l86 490h-117l-86 -490h-76l86 490h-36zM490 640l15 80h76l-15 -80h-76zM650 640l15 80h76
l-15 -80h-76zM378 0l98 560h76l-98 -560h-76zM451 -160l13 70h39q19 0 22 19l111 631h76l-111 -633q-15 -87 -103 -87h-47z" />
    <glyph glyph-name="f_i" horiz-adv-x="350" 
d="M-3 0l86 490h-36l12 70h36l13 73q15 87 103 87h55l-13 -70h-47q-19 0 -22 -19l-12 -71h65l-12 -70h-66l-86 -490h-76zM297 640l15 80h76l-15 -80h-76zM185 0l98 560h76l-98 -560h-76z" />
    <glyph glyph-name="f_ij" horiz-adv-x="507" 
d="M-3 0l86 490h-36l12 70h36l13 73q15 87 103 87h55l-13 -70h-47q-19 0 -22 -19l-12 -71h65l-12 -70h-66l-86 -490h-76zM297 640l15 80h76l-15 -80h-76zM454 640l15 80h76l-15 -80h-76zM185 0l98 560h76l-98 -560h-76zM255 -160l13 70h39q19 0 22 19l111 631h76l-111 -633
q-15 -87 -103 -87h-47z" />
    <glyph glyph-name="f_l" horiz-adv-x="350" 
d="M-3 0l86 490h-36l12 70h36l13 73q15 87 103 87h55l-13 -70h-47q-19 0 -22 -19l-12 -71h65l-12 -70h-66l-86 -490h-76zM185 0l127 720h76l-127 -720h-76z" />
    <glyph glyph-name="zero.tf" horiz-adv-x="402" 
d="M93 -4q-44 0 -64 25t-13 68l93 528q17 87 103 87h122q44 0 64 -25t12 -68l-93 -528q-15 -87 -102 -87h-122zM110 72h102q23 0 27 23l91 516q3 17 -14 17h-102q-23 0 -27 -23l-91 -516q-3 -17 14 -17z" />
    <glyph glyph-name="one.tf" horiz-adv-x="402" 
d="M12 0l13 76h100l93 528h-81l10 56l118 40h50l-110 -624h100l-13 -76h-280z" />
    <glyph glyph-name="two.tf" horiz-adv-x="402" 
d="M5 0l13 76l9 53q8 42 31 70l230 271q16 18 19 36l18 105q3 17 -14 17h-88q-23 0 -27 -23l-23 -135h-80l25 147q16 87 103 87h108q44 0 64 -25t12 -68l-18 -107q-8 -42 -32 -70l-229 -271q-16 -19 -19 -36l-9 -51h213l-13 -76h-293z" />
    <glyph glyph-name="three.tf" horiz-adv-x="402" 
d="M18 89l26 143h80l-26 -143q-3 -17 14 -17h98q23 0 27 23l37 206q3 17 -14 17h-105l13 76h99q23 0 27 23l34 194q3 17 -14 17h-98q-23 0 -27 -23l-24 -138h-80l26 150q17 87 103 87h118q44 0 64 -25t12 -68l-32 -181q-5 -29 -20 -47t-48 -29q52 -19 41 -78l-34 -193
q-15 -87 -102 -87h-118q-44 0 -64 25t-13 68z" />
    <glyph glyph-name="four.tf" horiz-adv-x="402" 
d="M-8 120l14 76l3 20l247 484h131l-89 -504h69l-13 -76h-69l-21 -120h-80l21 120h-213zM81 196h137l73 411z" />
    <glyph glyph-name="five.tf" horiz-adv-x="402" 
d="M95 -4q-44 0 -64 25t-13 68l25 141h80l-25 -141q-3 -17 14 -17h98q23 0 27 23l45 256q3 17 -14 17h-120l-7 -35h-80l65 367h282l-13 -76h-202l-42 -230l49 50h86q44 0 64 -25t13 -68l-48 -268q-15 -87 -102 -87h-118z" />
    <glyph glyph-name="six.tf" horiz-adv-x="402" 
d="M18 89l93 528q17 87 103 87h112q44 0 64 -25t12 -68l-21 -123h-80l21 123q3 17 -14 17h-92q-23 0 -27 -23l-43 -241l49 50h86q43 0 63.5 -24.5t12.5 -68.5l-42 -238q-15 -87 -102 -87h-118q-44 0 -64 25t-13 68zM98 89q-3 -17 14 -17h98q23 0 27 23l40 226q3 17 -14 17
h-121z" />
    <glyph glyph-name="seven.tf" horiz-adv-x="402" 
d="M51 0l280 624h-219l13 76h300l-13 -76l-280 -624h-81z" />
    <glyph glyph-name="eight.tf" horiz-adv-x="402" 
d="M93 -4q-44 0 -64 25t-13 68l35 196q5 29 21 47t51 29q-52 19 -41 78l31 178q17 87 103 87h114q44 0 64 -25t12 -68l-31 -178q-6 -29 -21 -47t-47 -29q55 -18 45 -78l-35 -196q-15 -87 -102 -87h-122zM172 397h94q23 0 27 23l33 191q3 17 -14 17h-94q-23 0 -27 -23
l-33 -191q-3 -17 14 -17zM110 72h102q23 0 27 23l37 209q3 17 -14 17h-102q-23 0 -27 -23l-37 -209q-3 -17 14 -17z" />
    <glyph glyph-name="nine.tf" horiz-adv-x="402" 
d="M101 -4q-44 0 -64 25t-13 68l22 123h80l-22 -123q-3 -17 14 -17h92q23 0 27 23l44 241l-49 -50h-86q-44 0 -64 25t-13 68l42 238q17 87 103 87h118q44 0 64 -25t12 -68l-93 -528q-15 -87 -102 -87h-112zM163 362h121l44 249q3 17 -14 17h-98q-23 0 -27 -23l-40 -226
q-3 -17 14 -17z" />
    <glyph glyph-name="uni0308.case" 
d="M-147 774l14 80h70l-14 -80h-70zM-29 774l14 80h70l-14 -80h-70z" />
    <glyph glyph-name="uni0307.case" 
d="M-29 774l14 80h76l-14 -80h-76z" />
    <glyph glyph-name="gravecomb.case" 
d="M-26 774l-52 110h80l34 -110h-62z" />
    <glyph glyph-name="acutecomb.case" 
d="M-28 774l74 110h84l-92 -110h-66z" />
    <glyph glyph-name="uni030B.case" 
d="M-107 774l64 110h75l-81 -110h-58zM-9 774l64 110h75l-81 -110h-58z" />
    <glyph glyph-name="uni0302.case" 
d="M-146 774l74 110h84l34 -110h-52l-30 64l-54 -64h-56z" />
    <glyph glyph-name="uni030C.case" 
d="M-125 884h52l31 -64l53 64h56l-73 -110h-84z" />
    <glyph glyph-name="uni0306.case" 
d="M-48 770q-43 0 -68.5 29.5t-18.5 70.5h54q-3 -21 8.5 -35.5t28.5 -14.5q22 0 36 14t17 36h54q-7 -46 -36.5 -73t-74.5 -27z" />
    <glyph glyph-name="uni030A.case" 
d="M-29 770q-33 0 -51.5 19t-18.5 49q0 39 25.5 65.5t64.5 26.5q34 0 52 -18.5t18 -49.5q0 -40 -25.5 -66t-64.5 -26zM-26 810q21 0 34 14t13 34q0 13 -9.5 22.5t-23.5 9.5q-21 0 -34 -14t-13 -34q0 -13 9.5 -22.5t23.5 -9.5z" />
    <glyph glyph-name="tildecomb.case" 
d="M-8 769q-24 0 -51.5 15t-39.5 15q-14 0 -23.5 -9.5t-10.5 -18.5l-29 6q12 82 69 82q23 0 50.5 -15t39.5 -15q14 0 23.5 9.5t11.5 18.5l29 -6q-18 -82 -69 -82z" />
    <glyph glyph-name="uni0304.case" 
d="M-119 774l11 60h166l-11 -60h-166z" />
    <glyph glyph-name="IJacute" horiz-adv-x="430" 
d="M139 774l74 110h84l-92 -110h-66zM360 774l74 110h84l-92 -110h-66zM-4 0l123 700h80l-123 -700h-80zM140 -4l13 76h93q23 0 27 23l94 529h-116l13 76h196l-109 -617q-15 -87 -102 -87h-109z" />
    <glyph glyph-name="ijacute" horiz-adv-x="313" 
d="M103 610l74 110h84l-92 -110h-66zM260 610l74 110h84l-92 -110h-66zM-9 0l98 560h76l-98 -560h-76zM61 -160l13 70h39q18 0 22 19l111 631h76l-111 -633q-15 -87 -103 -87h-47z" />
    </font>
</defs>
</svg>
