<svg id="Layer_1" data-name="Layer 1" xmlns="http://www.w3.org/2000/svg" viewBox="0 0 599.01 593.25"><defs><style>.cls-1{fill:#4285f4;}.cls-2{fill:red;}</style></defs><title>logoblack</title><path class="cls-1" d="M248.48,732l7.5-42.75h20L268.48,732c-.5,2.75.25,4.25,3.5,4.25h24c3.25,0,6-1.5,6.75-5.75l7-38.75c.25-2.5.25-4-1.5-5.75l-35.75-29.75c-5.75-4.75-8-10.5-6.5-18.5l6.5-37.75c2.75-14.5,11.25-21.75,25.75-21.75h27.5c14.5,0,21.75,8.75,19,23.25l-7,40.25h-20l7-40.25c.5-2.75-.25-4.25-3.5-4.25h-22.5c-3.25,0-6,1.5-6.75,5.75l-6,34.25c-.5,2.75-.5,4,1.25,5.75l36,29.5c5.75,4.75,8,10.5,6.5,18.5l-7.5,42.5q-3.75,21.75-25.5,21.75h-29C253.23,755.27,246,746.52,248.48,732Z" transform="translate(-248 -578.27)"/><path class="cls-1" d="M336.48,732l23.25-132c2.75-14.5,11.25-21.75,25.75-21.75H415c14.5,0,21.75,8.75,19,23.25l-23.25,132q-3.75,21.75-25.5,21.75h-29.5C341.23,755.27,334,746.52,336.48,732Zm48,4.25c3.25,0,6-1.5,6.75-5.75l22.75-129c.5-2.75-.25-4.25-3.5-4.25H386c-3.25,0-6,1.5-6.75,5.75L356.48,732c-.5,2.75.25,4.25,3.5,4.25Z" transform="translate(-248 -578.27)"/><path class="cls-1" d="M426.23,732l23.25-132c2.75-14.5,11.25-21.75,25.75-21.75h29c14.5,0,21.75,8.75,19,23.25l-7.5,42.75h-20l7.5-42.75c.5-2.75-.25-4.25-3.5-4.25h-24c-3.25,0-6,1.5-6.75,5.75L446.23,732c-.5,2.75.25,4.25,3.5,4.25h24c3.25,0,6-1.5,6.75-5.75l7.25-41.25h20L500,733.52q-3.75,21.75-25.5,21.75h-29C431,755.27,423.73,746.52,426.23,732Z" transform="translate(-248 -578.27)"/><path class="cls-1" d="M541.73,579.27h20L531,754.27H511Z" transform="translate(-248 -578.27)"/><path class="cls-1" d="M597.23,579.27h32.5l-4.75,175H605l1.25-40h-33.5l-12.75,40H540Zm9.75,116,3-97-31,97Z" transform="translate(-248 -578.27)"/><path d="M670,579h20L589.13,1151.18h40.5l-3.25,19h-60.5Z" transform="translate(-248 -578.27)"/><path class="cls-2" d="M670.43,995.52h20l-30.75,175h-20Z" transform="translate(-248 -578.27)"/><path class="cls-2" d="M706.68,995.52h60.5l-3.25,19h-40.5L713.18,1072h39l-3.25,19h-39l-10.75,60.5h41.5l-3.25,19h-61.5Z" transform="translate(-248 -578.27)"/><path class="cls-2" d="M750.18,1148.27l7.5-42.75h20l-7.5,42.75c-.5,2.75.25,4.25,3.5,4.25h24c3.25,0,6-1.5,6.75-5.75l7-38.75c.25-2.5.25-4-1.5-5.75l-35.75-29.75c-5.75-4.75-8-10.5-6.5-18.5l6.5-37.75c2.75-14.5,11.25-21.75,25.75-21.75h27.5c14.5,0,21.75,8.75,19,23.25l-7,40.25h-20l7-40.25c.5-2.75-.25-4.25-3.5-4.25h-22.5c-3.25,0-6,1.5-6.75,5.75l-6,34.25c-.5,2.75-.5,4,1.25,5.75l36,29.5c5.75,4.75,8,10.5,6.5,18.5l-7.5,42.5q-3.75,21.75-25.5,21.75h-29C754.93,1171.52,747.68,1162.77,750.18,1148.27Z" transform="translate(-248 -578.27)"/></svg>